STARTFONT 2.3
FONT -FontForge-Lobster-Book-R-Normal--14-140-72-72-P-81-ISO10646-1
SIZE 14 72 72  2
FONTBOUNDINGBOX 29 21 -7 -6
COMMENT "Generated by fontforge, http://fontforge.sourceforge.net"
COMMENT "Copyright 2010 The Lobster Project Authors (https://github.com/impallari/The-Lobster-Font), with Reserved Font Name "Lobster"."
STARTPROPERTIES 41
FOUNDRY "FontForge"
FAMILY_NAME "Lobster"
WEIGHT_NAME "Book"
SLANT "R"
SETWIDTH_NAME "Normal"
ADD_STYLE_NAME ""
PIXEL_SIZE 14
POINT_SIZE 140
RESOLUTION_X 72
RESOLUTION_Y 72
SPACING "P"
AVERAGE_WIDTH 81
CHARSET_REGISTRY "ISO10646"
CHARSET_ENCODING "1"
FONTNAME_REGISTRY ""
CHARSET_COLLECTIONS "ISO8859-2 ISO8859-5 ISO8859-9 ISO8859-4 ISO10646-1"
BITS_PER_PIXEL 2
FONT_NAME "Lobster-Regular"
FACE_NAME "Lobster Regular"
COPYRIGHT "Copyright 2010 The Lobster Project Authors (https://github.com/impallari/The-Lobster-Font), with Reserved Font Name "Lobster"."
FONT_VERSION "2.100"
FONT_ASCENT 11
FONT_DESCENT 3
UNDERLINE_POSITION -1
UNDERLINE_THICKNESS 1
X_HEIGHT 6
CAP_HEIGHT 9
DEFAULT_CHAR 1
RAW_ASCENT 800
RAW_DESCENT 200
NORM_SPACE 3
RELATIVE_WEIGHT 40
RELATIVE_SETWIDTH 50
SUPERSCRIPT_X 0
SUPERSCRIPT_Y 4
SUPERSCRIPT_SIZE 8
SUBSCRIPT_X 0
SUBSCRIPT_Y 1
SUBSCRIPT_SIZE 8
AVG_LOWERCASE_WIDTH 64
AVG_UPPERCASE_WIDTH 85
ENDPROPERTIES
CHARS 1148
STARTCHAR NULL.dup1
ENCODING 0
SWIDTH 600 0
DWIDTH 8 0
BBX 1 1 0 0
BITMAP
00
ENDCHAR
STARTCHAR nonmarkingreturn
ENCODING 13
SWIDTH 600 0
DWIDTH 8 0
BBX 1 1 0 0
BITMAP
00
ENDCHAR
STARTCHAR space
ENCODING 32
SWIDTH 217 0
DWIDTH 3 0
BBX 1 1 0 0
BITMAP
00
ENDCHAR
STARTCHAR exclam
ENCODING 33
SWIDTH 257 0
DWIDTH 4 0
BBX 5 11 0 0
BITMAP
0640
0B40
0F00
0E00
0D00
1C00
1C00
1400
0000
7800
7400
ENDCHAR
STARTCHAR quotedbl
ENCODING 34
SWIDTH 353 0
DWIDTH 5 0
BBX 5 3 1 7
BITMAP
3680
7700
9A00
ENDCHAR
STARTCHAR numbersign
ENCODING 35
SWIDTH 659 0
DWIDTH 9 0
BBX 7 10 1 0
BITMAP
0514
0924
0930
7FFC
1860
1890
FFF8
24C0
3180
1040
ENDCHAR
STARTCHAR dollar
ENCODING 36
SWIDTH 548 0
DWIDTH 8 0
BBX 8 14 0 -2
BITMAP
0020
0020
02B8
0E5D
0F9D
0BC0
03D0
01F4
7AB8
A238
A2B4
2F90
0800
0800
ENDCHAR
STARTCHAR percent
ENCODING 37
SWIDTH 796 0
DWIDTH 11 0
BBX 11 10 0 0
BITMAP
0B80C0
28C240
35C600
71C900
7258B4
2E329C
00971C
018728
024734
0602D0
ENDCHAR
STARTCHAR ampersand
ENCODING 38
SWIDTH 682 0
DWIDTH 10 0
BBX 9 10 0 0
BITMAP
02F400
0B5C00
0E1C00
0F0000
0B8040
2E2FC0
7C7A40
B80800
BC1800
2F9000
ENDCHAR
STARTCHAR quotesingle
ENCODING 39
SWIDTH 196 0
DWIDTH 3 0
BBX 3 3 1 7
BITMAP
34
70
90
ENDCHAR
STARTCHAR parenleft
ENCODING 40
SWIDTH 437 0
DWIDTH 6 0
BBX 6 14 2 -3
BITMAP
0050
0280
0A00
1C00
3800
7400
B000
B000
E000
E000
A000
7000
3000
1800
ENDCHAR
STARTCHAR parenright
ENCODING 41
SWIDTH 413 0
DWIDTH 6 0
BBX 6 14 -1 -3
BITMAP
0100
0300
0280
01C0
01D0
01D0
01D0
01D0
02C0
0380
0740
0E00
2800
A000
ENDCHAR
STARTCHAR asterisk
ENCODING 42
SWIDTH 515 0
DWIDTH 7 0
BBX 5 5 1 5
BITMAP
9EC0
6E40
BF80
5D80
0C00
ENDCHAR
STARTCHAR plus
ENCODING 43
SWIDTH 442 0
DWIDTH 6 0
BBX 6 5 0 2
BITMAP
0700
0600
BFD0
0D00
0C00
ENDCHAR
STARTCHAR comma
ENCODING 44
SWIDTH 216 0
DWIDTH 3 0
BBX 3 4 0 -2
BITMAP
74
B4
20
50
ENDCHAR
STARTCHAR hyphen
ENCODING 45
SWIDTH 290 0
DWIDTH 4 0
BBX 3 1 0 3
BITMAP
BC
ENDCHAR
STARTCHAR period
ENCODING 46
SWIDTH 263 0
DWIDTH 4 0
BBX 3 2 0 0
BITMAP
74
74
ENDCHAR
STARTCHAR slash
ENCODING 47
SWIDTH 311 0
DWIDTH 4 0
BBX 4 13 0 -3
BITMAP
03
06
06
09
0C
0C
18
24
24
30
60
90
90
ENDCHAR
STARTCHAR zero
ENCODING 48
SWIDTH 546 0
DWIDTH 8 0
BBX 8 10 0 0
BITMAP
02F8
0F1D
2D0E
3C1E
781E
B81D
B42C
B438
78B0
2F80
ENDCHAR
STARTCHAR one
ENCODING 49
SWIDTH 317 0
DWIDTH 4 0
BBX 5 10 0 0
BITMAP
0140
3F40
0F00
1E00
1E00
2D00
3C00
3C00
7800
B400
ENDCHAR
STARTCHAR two
ENCODING 50
SWIDTH 492 0
DWIDTH 7 0
BBX 7 10 0 0
BITMAP
0BE0
38B4
38B8
14B4
01D0
0740
1800
7000
FFF4
9BE0
ENDCHAR
STARTCHAR three
ENCODING 51
SWIDTH 514 0
DWIDTH 7 0
BBX 7 10 0 0
BITMAP
0BE4
1C3C
1D3C
0474
02E0
00F4
7878
F078
A0F0
6F80
ENDCHAR
STARTCHAR four
ENCODING 52
SWIDTH 476 0
DWIDTH 7 0
BBX 7 10 0 0
BITMAP
0380
03C0
0760
0D30
24A0
BFF8
9AF4
02C0
03C0
0780
ENDCHAR
STARTCHAR five
ENCODING 53
SWIDTH 517 0
DWIDTH 7 0
BBX 7 11 0 0
BITMAP
0004
0FFC
1EA4
1800
2EE0
10B4
1478
7878
B0B4
B1F0
2F80
ENDCHAR
STARTCHAR six
ENCODING 54
SWIDTH 500 0
DWIDTH 7 0
BBX 7 10 0 0
BITMAP
02F8
0F1C
2D18
7C00
BAE0
B878
B438
B478
78B0
2F80
ENDCHAR
STARTCHAR seven
ENCODING 55
SWIDTH 464 0
DWIDTH 7 0
BBX 6 10 1 0
BITMAP
BFF0
FFE0
41C0
0340
0A00
2C00
7800
B400
F400
B400
ENDCHAR
STARTCHAR eight
ENCODING 56
SWIDTH 499 0
DWIDTH 7 0
BBX 7 10 0 0
BITMAP
07E4
1E2C
2D2C
1F74
0BD0
2AF0
B0B8
F078
B0B4
2F90
ENDCHAR
STARTCHAR nine
ENCODING 57
SWIDTH 489 0
DWIDTH 7 0
BBX 7 10 0 0
BITMAP
0BE0
2C78
7438
B47C
74B8
2EB8
00B4
60F0
A2D0
7E40
ENDCHAR
STARTCHAR colon
ENCODING 58
SWIDTH 267 0
DWIDTH 4 0
BBX 4 5 0 1
BITMAP
2D
1D
00
78
78
ENDCHAR
STARTCHAR semicolon
ENCODING 59
SWIDTH 276 0
DWIDTH 4 0
BBX 4 7 0 -2
BITMAP
2D
1D
00
34
78
24
10
ENDCHAR
STARTCHAR less
ENCODING 60
SWIDTH 358 0
DWIDTH 5 0
BBX 5 5 0 1
BITMAP
0280
2E00
B400
1E00
0200
ENDCHAR
STARTCHAR equal
ENCODING 61
SWIDTH 515 0
DWIDTH 7 0
BBX 7 5 0 1
BITMAP
2FF4
3FF4
0000
7FE0
7FE0
ENDCHAR
STARTCHAR greater
ENCODING 62
SWIDTH 362 0
DWIDTH 5 0
BBX 5 5 0 1
BITMAP
3400
1B40
0780
7800
8000
ENDCHAR
STARTCHAR question
ENCODING 63
SWIDTH 441 0
DWIDTH 6 0
BBX 6 10 0 0
BITMAP
1BD0
34F0
74F0
12D0
0600
0C00
1400
0000
7800
3800
ENDCHAR
STARTCHAR at
ENCODING 64
SWIDTH 688 0
DWIDTH 10 0
BBX 9 10 0 -1
BITMAP
01B900
0A4280
29E9C0
7769C0
AB35C0
DA7340
D76D00
D00400
A02400
1B9000
ENDCHAR
STARTCHAR A
ENCODING 65
SWIDTH 668 0
DWIDTH 9 0
BBX 10 12 0 -2
BITMAP
0006E0
001AD0
0073D0
0093C0
2FE780
A34B40
5B0B40
0E0F00
1D1E00
2C1E00
2C0000
040000
ENDCHAR
STARTCHAR B
ENCODING 66
SWIDTH 641 0
DWIDTH 9 0
BBX 9 10 0 0
BITMAP
06F900
294700
73C700
A3CE00
57FE00
0B4B40
0B4B40
0F0B40
1E0E00
1EB800
ENDCHAR
STARTCHAR C
ENCODING 67
SWIDTH 497 0
DWIDTH 7 0
BBX 8 10 0 0
BITMAP
02F8
0F49
2E0D
3D04
7C00
B800
B800
B800
7C08
2F90
ENDCHAR
STARTCHAR D
ENCODING 68
SWIDTH 663 0
DWIDTH 9 0
BBX 9 10 0 0
BITMAP
06FD00
294B40
A3C380
D7C3C0
9783C0
0B4380
0F0780
0F0B00
1E1E00
2EB400
ENDCHAR
STARTCHAR E
ENCODING 69
SWIDTH 459 0
DWIDTH 6 0
BBX 7 10 0 0
BITMAP
02F4
0B1C
0E18
0E00
0B40
2E00
BC00
F800
B814
6F90
ENDCHAR
STARTCHAR F
ENCODING 70
SWIDTH 459 0
DWIDTH 6 0
BBX 9 10 0 0
BITMAP
0AFF40
63C000
A3C000
D78000
5BF800
0B4000
0F0000
1E0000
1E0000
2D0000
ENDCHAR
STARTCHAR G
ENCODING 71
SWIDTH 578 0
DWIDTH 8 0
BBX 8 13 0 -3
BITMAP
06F9
1F4B
3D0A
B800
B409
B41D
787D
1EBC
0078
1A74
34B0
34E0
1B80
ENDCHAR
STARTCHAR H
ENCODING 72
SWIDTH 665 0
DWIDTH 9 0
BBX 10 10 0 0
BITMAP
06E1E0
26D2D0
A3C3C0
A3C3C0
57FF80
0B4B40
0B4B40
0F0F00
1E1E00
1E1E00
ENDCHAR
STARTCHAR I
ENCODING 73
SWIDTH 375 0
DWIDTH 5 0
BBX 6 10 0 0
BITMAP
06D0
26D0
A3C0
D780
5780
0B40
0F00
0F00
1E00
2D00
ENDCHAR
STARTCHAR J
ENCODING 74
SWIDTH 536 0
DWIDTH 8 0
BBX 8 13 0 -3
BITMAP
002F
019E
035E
072D
023C
003C
0078
00B4
00F4
29F0
A1E0
A2D0
2E40
ENDCHAR
STARTCHAR K
ENCODING 75
SWIDTH 601 0
DWIDTH 8 0
BBX 9 10 0 0
BITMAP
06D280
26D600
A3DC00
D7E000
57F900
0B5E00
0F1E00
0F2D00
1E3C00
2D2C00
ENDCHAR
STARTCHAR L
ENCODING 76
SWIDTH 379 0
DWIDTH 5 0
BBX 9 13 0 -3
BITMAP
06D000
2AD000
A3C000
D78000
578000
0B4000
0F0000
0F0000
1E0000
2E0000
06E400
007FC0
000B80
ENDCHAR
STARTCHAR M
ENCODING 77
SWIDTH 787 0
DWIDTH 11 0
BBX 11 10 1 0
BITMAP
06D0F4
27D1F0
97D3F0
DBD7E0
5EDAE0
1ADED0
26EAD0
32F3C0
62E3C0
D3D3C0
ENDCHAR
STARTCHAR N
ENCODING 78
SWIDTH 668 0
DWIDTH 9 0
BBX 10 10 0 0
BITMAP
0AD070
36E0A0
A3F0D0
D7F4D0
67B5C0
0A7980
0D3E80
0D2F40
1C2F00
281F00
ENDCHAR
STARTCHAR O
ENCODING 79
SWIDTH 665 0
DWIDTH 9 0
BBX 9 10 0 0
BITMAP
02BE00
1D5380
72C2C0
A782C0
5F42C0
1F03C0
1E0780
1E0F00
1E6D00
0BE400
ENDCHAR
STARTCHAR P
ENCODING 80
SWIDTH 573 0
DWIDTH 8 0
BBX 9 10 0 0
BITMAP
06F900
294B00
A3C740
D78700
578A00
0BA800
0F4000
0F0000
1E0000
2D0000
ENDCHAR
STARTCHAR Q
ENCODING 81
SWIDTH 665 0
DWIDTH 9 0
BBX 9 12 0 -2
BITMAP
02BE00
1D5380
72D2C0
A782C0
AF42C0
1F03C0
1E0780
1E0B00
1EAD00
0BF800
001F40
000500
ENDCHAR
STARTCHAR R
ENCODING 82
SWIDTH 601 0
DWIDTH 8 0
BBX 8 10 0 0
BITMAP
06F9
294B
A3C7
D79E
57FD
0B5E
0F1E
0F2D
1E3C
2D2C
ENDCHAR
STARTCHAR S
ENCODING 83
SWIDTH 570 0
DWIDTH 8 0
BBX 8 10 0 0
BITMAP
02F8
0B4A
0F4E
0B80
02E0
04F8
3D7C
703C
7478
1FE0
ENDCHAR
STARTCHAR T
ENCODING 84
SWIDTH 481 0
DWIDTH 7 0
BBX 10 10 0 0
BITMAP
1AFAE0
74F000
A1E000
91E000
02D000
02C000
03C000
078000
078000
0B4000
ENDCHAR
STARTCHAR U
ENCODING 85
SWIDTH 716 0
DWIDTH 10 0
BBX 11 10 0 0
BITMAP
06E078
35E0B4
A2D0F0
D3C0F0
5781E0
0742D0
0B43C0
0B0780
0B5F40
02F900
ENDCHAR
STARTCHAR V
ENCODING 86
SWIDTH 615 0
DWIDTH 9 0
BBX 10 10 0 0
BITMAP
06E090
2AE0C0
A1E180
D1E240
51E200
01E500
01E800
01E800
01F400
01F000
ENDCHAR
STARTCHAR W
ENCODING 87
SWIDTH 962 0
DWIDTH 13 0
BBX 15 10 0 0
BITMAP
06E0B424
2AE0F430
A1E1F450
D1E2F480
51E2B480
01E5B540
01E8BA00
01E8BA00
01F47C00
01F07800
ENDCHAR
STARTCHAR X
ENCODING 88
SWIDTH 620 0
DWIDTH 9 0
BBX 9 10 0 0
BITMAP
06E240
29F200
A1F900
D0F800
50B800
00B800
00FC00
027D00
063D00
082E00
ENDCHAR
STARTCHAR Y
ENCODING 89
SWIDTH 620 0
DWIDTH 9 0
BBX 10 10 0 0
BITMAP
06E060
29F080
A0F580
D0F600
50BA00
007D00
007C00
00B800
00B400
00F400
ENDCHAR
STARTCHAR Z
ENCODING 90
SWIDTH 542 0
DWIDTH 8 0
BBX 8 10 0 0
BITMAP
1FFD
287C
00B4
01F0
03D0
0780
0F40
2E04
3D1C
BFF4
ENDCHAR
STARTCHAR bracketleft
ENCODING 91
SWIDTH 400 0
DWIDTH 6 0
BBX 6 13 0 -3
BITMAP
07E0
0700
0A00
0D00
1D00
1C00
2800
3800
3400
7000
B000
A000
F800
ENDCHAR
STARTCHAR backslash
ENCODING 92
SWIDTH 362 0
DWIDTH 5 0
BBX 5 13 0 -3
BITMAP
6000
3000
3000
2400
1800
0C00
0C00
0900
0600
0600
0300
0240
0240
ENDCHAR
STARTCHAR bracketright
ENCODING 93
SWIDTH 400 0
DWIDTH 6 0
BBX 6 13 -1 -3
BITMAP
03F0
00A0
00E0
00D0
01C0
02C0
0280
0340
0740
0B00
0A00
0D00
BD00
ENDCHAR
STARTCHAR asciicircum
ENCODING 94
SWIDTH 421 0
DWIDTH 6 0
BBX 4 3 1 8
BITMAP
04
2D
96
ENDCHAR
STARTCHAR underscore
ENCODING 95
SWIDTH 444 0
DWIDTH 6 0
BBX 6 1 0 0
BITMAP
7FD0
ENDCHAR
STARTCHAR grave
ENCODING 96
SWIDTH 201 0
DWIDTH 3 0
BBX 2 3 0 8
BITMAP
60
30
20
ENDCHAR
STARTCHAR a
ENCODING 97
SWIDTH 526 0
DWIDTH 7 0
BBX 8 7 0 0
BITMAP
1BB8
7CB4
B4B4
F0F0
F1E1
F6E5
B9B8
ENDCHAR
STARTCHAR b
ENCODING 98
SWIDTH 444 0
DWIDTH 6 0
BBX 6 10 0 0
BITMAP
1900
2D00
3C00
3ED0
78E0
B4A0
B4E0
F0D0
F280
BE00
ENDCHAR
STARTCHAR c
ENCODING 99
SWIDTH 384 0
DWIDTH 5 0
BBX 6 7 0 0
BITMAP
1B80
3CC0
B440
F000
F000
F050
7E40
ENDCHAR
STARTCHAR d
ENCODING 100
SWIDTH 525 0
DWIDTH 7 0
BBX 8 10 0 0
BITMAP
0018
003C
007C
1BB8
7CB4
B4B4
F0F0
F1F0
F2E2
B9F8
ENDCHAR
STARTCHAR e
ENCODING 101
SWIDTH 384 0
DWIDTH 5 0
BBX 6 7 0 0
BITMAP
1B80
38C0
B680
FE00
F010
F040
7E00
ENDCHAR
STARTCHAR f
ENCODING 102
SWIDTH 267 0
DWIDTH 4 0
BBX 9 13 -3 -3
BITMAP
002E00
00B540
00F000
00F800
01E000
02D000
02D000
03C000
078000
0B8000
6B4000
8F0000
7D0000
ENDCHAR
STARTCHAR g
ENCODING 103
SWIDTH 507 0
DWIDTH 7 0
BBX 8 10 0 -3
BITMAP
1BB8
7CB4
B4B4
F0F0
F1E0
F2E5
BBE4
07C0
2780
2E00
ENDCHAR
STARTCHAR h
ENCODING 104
SWIDTH 505 0
DWIDTH 7 0
BBX 9 10 -1 0
BITMAP
064000
0B4000
0F0000
0FB800
1E3C00
2D3C00
2D7800
3C7400
78B540
787D00
ENDCHAR
STARTCHAR i
ENCODING 105
SWIDTH 267 0
DWIDTH 4 0
BBX 4 10 0 0
BITMAP
2D
2D
00
3C
78
B4
B4
F1
F6
B8
ENDCHAR
STARTCHAR j
ENCODING 106
SWIDTH 240 0
DWIDTH 3 0
BBX 7 13 -3 -3
BITMAP
00B0
00B4
0000
00F0
01E0
02D0
02D0
03C4
0794
0B90
6F40
8F00
7D00
ENDCHAR
STARTCHAR k
ENCODING 107
SWIDTH 518 0
DWIDTH 7 0
BBX 9 10 -1 0
BITMAP
064000
0B4000
0F0000
0F1800
1EA000
2FF400
2D7800
3C7840
787940
783E00
ENDCHAR
STARTCHAR l
ENCODING 108
SWIDTH 267 0
DWIDTH 4 0
BBX 4 10 0 0
BITMAP
19
2D
3C
3C
78
B4
B4
F1
FA
B8
ENDCHAR
STARTCHAR m
ENCODING 109
SWIDTH 752 0
DWIDTH 11 0
BBX 12 7 -1 0
BITMAP
0FBAF0
1E3DB4
2D7CB4
2D78F4
3CB4F0
78B4F2
78F0B8
ENDCHAR
STARTCHAR n
ENCODING 110
SWIDTH 505 0
DWIDTH 7 0
BBX 9 7 -1 0
BITMAP
0FB800
1E3C00
2D3C00
2D7800
3C7400
78B540
787D00
ENDCHAR
STARTCHAR o
ENCODING 111
SWIDTH 439 0
DWIDTH 6 0
BBX 8 7 0 0
BITMAP
1B80
3C91
B4E8
F0D0
F0C0
F280
7E00
ENDCHAR
STARTCHAR p
ENCODING 112
SWIDTH 468 0
DWIDTH 7 0
BBX 8 12 -1 -4
BITMAP
0500
0FB8
1E2C
2D2D
2D3C
3C78
7DB4
7FD0
B400
F000
F000
4000
ENDCHAR
STARTCHAR q
ENCODING 113
SWIDTH 486 0
DWIDTH 7 0
BBX 7 10 0 -3
BITMAP
1BB8
7CB4
B4B0
F0F0
F1E0
F2E0
BBD0
03C0
03C0
0780
ENDCHAR
STARTCHAR r
ENCODING 114
SWIDTH 376 0
DWIDTH 5 0
BBX 7 7 -1 0
BITMAP
0FB4
1E74
2D00
2D00
3C00
7800
7800
ENDCHAR
STARTCHAR s
ENCODING 115
SWIDTH 382 0
DWIDTH 5 0
BBX 7 8 -1 0
BITMAP
0040
07C0
0BD0
0AD0
16D0
72D4
52E0
2F40
ENDCHAR
STARTCHAR t
ENCODING 116
SWIDTH 267 0
DWIDTH 4 0
BBX 4 9 0 0
BITMAP
2D
3C
BE
78
B4
B4
F1
F6
B8
ENDCHAR
STARTCHAR u
ENCODING 117
SWIDTH 505 0
DWIDTH 7 0
BBX 8 7 0 0
BITMAP
3CB4
78F0
B4F0
B5E0
F2D1
F7E9
B9F4
ENDCHAR
STARTCHAR v
ENCODING 118
SWIDTH 414 0
DWIDTH 6 0
BBX 6 7 0 0
BITMAP
3C90
7860
B450
B490
F180
F740
B900
ENDCHAR
STARTCHAR w
ENCODING 119
SWIDTH 661 0
DWIDTH 9 0
BBX 9 7 0 0
BITMAP
3CB580
78F080
B4F0C0
B5E180
F2D240
F7EA00
B9F800
ENDCHAR
STARTCHAR x
ENCODING 120
SWIDTH 522 0
DWIDTH 7 0
BBX 8 7 0 0
BITMAP
0B58
238C
53E4
83D0
47C0
1AD1
60B4
ENDCHAR
STARTCHAR y
ENCODING 121
SWIDTH 486 0
DWIDTH 7 0
BBX 7 10 0 -3
BITMAP
3CB4
78F0
B4F0
B5E0
F2D0
F7D8
BBD0
1B80
6B40
3E00
ENDCHAR
STARTCHAR z
ENCODING 122
SWIDTH 428 0
DWIDTH 6 0
BBX 6 7 0 0
BITMAP
2FE0
32C0
0780
0F00
2D00
3C90
BF80
ENDCHAR
STARTCHAR braceleft
ENCODING 123
SWIDTH 352 0
DWIDTH 5 0
BBX 6 13 0 -3
BITMAP
02D0
0740
0B00
0A00
0A00
0D00
7800
1C00
2C00
3800
7400
7400
2C00
ENDCHAR
STARTCHAR bar
ENCODING 124
SWIDTH 532 0
DWIDTH 7 0
BBX 2 13 3 -3
BITMAP
D0
D0
D0
D0
D0
D0
D0
D0
D0
D0
D0
D0
D0
ENDCHAR
STARTCHAR braceright
ENCODING 125
SWIDTH 352 0
DWIDTH 5 0
BBX 5 13 -1 -3
BITMAP
0780
02C0
02C0
0380
0740
0700
03C0
0A00
0E00
0D00
1D00
2C00
B400
ENDCHAR
STARTCHAR asciitilde
ENCODING 126
SWIDTH 431 0
DWIDTH 6 0
BBX 5 2 1 8
BITMAP
1500
6F80
ENDCHAR
STARTCHAR uni00A0
ENCODING 160
SWIDTH 217 0
DWIDTH 3 0
BBX 1 1 0 0
BITMAP
00
ENDCHAR
STARTCHAR exclamdown
ENCODING 161
SWIDTH 219 0
DWIDTH 3 0
BBX 4 11 -1 -4
BITMAP
0B
0B
00
09
1C
2C
28
38
78
B4
40
ENDCHAR
STARTCHAR cent
ENCODING 162
SWIDTH 384 0
DWIDTH 5 0
BBX 6 10 0 0
BITMAP
0140
0680
2FA0
7650
B500
E500
B840
2E40
1400
1400
ENDCHAR
STARTCHAR sterling
ENCODING 163
SWIDTH 455 0
DWIDTH 6 0
BBX 7 10 0 0
BITMAP
01B8
079C
0B44
0F00
7FE0
1E00
2D00
2C04
7FFC
41F4
ENDCHAR
STARTCHAR currency
ENCODING 164
SWIDTH 500 0
DWIDTH 7 0
BBX 5 5 1 2
BITMAP
AE80
5180
9080
6140
AE80
ENDCHAR
STARTCHAR yen
ENCODING 165
SWIDTH 558 0
DWIDTH 8 0
BBX 7 10 1 0
BITMAP
7C08
3C24
3D20
2E50
1F80
0F80
6FA0
BFE0
2E00
2D00
ENDCHAR
STARTCHAR brokenbar
ENCODING 166
SWIDTH 532 0
DWIDTH 7 0
BBX 2 13 3 -3
BITMAP
D0
D0
D0
D0
D0
D0
00
D0
D0
D0
D0
D0
D0
ENDCHAR
STARTCHAR section
ENCODING 167
SWIDTH 542 0
DWIDTH 8 0
BBX 8 12 0 -2
BITMAP
01B8
0789
0748
0B80
2AE0
2DB8
1F2C
07DC
66F4
A1D0
A1C0
6A40
ENDCHAR
STARTCHAR dieresis
ENCODING 168
SWIDTH 392 0
DWIDTH 5 0
BBX 4 2 1 8
BITMAP
96
D6
ENDCHAR
STARTCHAR copyright
ENCODING 169
SWIDTH 587 0
DWIDTH 8 0
BBX 8 7 0 1
BITMAP
0690
2AE8
2815
5911
22D5
2418
0690
ENDCHAR
STARTCHAR ordfeminine
ENCODING 170
SWIDTH 345 0
DWIDTH 5 0
BBX 5 4 0 6
BITMAP
1F40
3300
6700
2600
ENDCHAR
STARTCHAR guillemotleft
ENCODING 171
SWIDTH 589 0
DWIDTH 8 0
BBX 8 5 0 1
BITMAP
0145
1964
A280
1964
0104
ENDCHAR
STARTCHAR logicalnot
ENCODING 172
SWIDTH 444 0
DWIDTH 6 0
BBX 6 4 0 0
BITMAP
BFD0
01D0
02C0
0140
ENDCHAR
STARTCHAR uni00AD
ENCODING 173
SWIDTH 290 0
DWIDTH 4 0
BBX 3 1 0 3
BITMAP
BC
ENDCHAR
STARTCHAR registered
ENCODING 174
SWIDTH 553 0
DWIDTH 8 0
BBX 8 7 0 1
BITMAP
0690
2A94
5858
8A85
5888
2414
0690
ENDCHAR
STARTCHAR macron
ENCODING 175
SWIDTH 446 0
DWIDTH 6 0
BBX 5 1 1 8
BITMAP
BF40
ENDCHAR
STARTCHAR degree
ENCODING 176
SWIDTH 314 0
DWIDTH 4 0
BBX 4 5 0 5
BITMAP
19
32
62
65
24
ENDCHAR
STARTCHAR plusminus
ENCODING 177
SWIDTH 479 0
DWIDTH 7 0
BBX 6 7 0 2
BITMAP
0240
0240
3FF0
0700
0600
0400
7FD0
ENDCHAR
STARTCHAR uni00B2
ENCODING 178
SWIDTH 328 0
DWIDTH 5 0
BBX 5 6 0 4
BITMAP
1F00
2340
1700
0800
2000
7E00
ENDCHAR
STARTCHAR uni00B3
ENCODING 179
SWIDTH 336 0
DWIDTH 5 0
BBX 5 6 0 4
BITMAP
1F40
1640
0600
3340
6340
2900
ENDCHAR
STARTCHAR acute
ENCODING 180
SWIDTH 316 0
DWIDTH 4 0
BBX 2 3 2 8
BITMAP
20
A0
80
ENDCHAR
STARTCHAR uni00B5
ENCODING 181
SWIDTH 505 0
DWIDTH 7 0
BBX 9 10 -1 -3
BITMAP
0F2D00
1E3C00
2D3C00
2D7800
3CB440
7DFA40
7E7D00
B40000
F00000
400000
ENDCHAR
STARTCHAR paragraph
ENCODING 182
SWIDTH 542 0
DWIDTH 8 0
BBX 6 12 1 -2
BITMAP
1B90
7FB0
BF70
FF70
FFA0
7EA0
1ED0
0DC0
1DC0
1E80
2A80
3740
ENDCHAR
STARTCHAR periodcentered
ENCODING 183
SWIDTH 434 0
DWIDTH 6 0
BBX 4 3 1 2
BITMAP
28
7D
2C
ENDCHAR
STARTCHAR cedilla
ENCODING 184
SWIDTH 227 0
DWIDTH 3 0
BBX 4 4 0 -3
BITMAP
10
38
0D
64
ENDCHAR
STARTCHAR uni00B9
ENCODING 185
SWIDTH 229 0
DWIDTH 3 0
BBX 3 7 0 4
BITMAP
04
7C
28
24
34
70
10
ENDCHAR
STARTCHAR ordmasculine
ENCODING 186
SWIDTH 329 0
DWIDTH 5 0
BBX 4 4 0 6
BITMAP
2F
72
65
28
ENDCHAR
STARTCHAR guillemotright
ENCODING 187
SWIDTH 586 0
DWIDTH 8 0
BBX 8 5 0 1
BITMAP
2490
0A28
028A
69A4
4100
ENDCHAR
STARTCHAR onequarter
ENCODING 188
SWIDTH 749 0
DWIDTH 10 0
BBX 11 11 0 0
BITMAP
040000
7C0300
280900
240C00
342400
706264
109270
018260
0306F0
090090
1800D0
ENDCHAR
STARTCHAR onehalf
ENCODING 189
SWIDTH 745 0
DWIDTH 10 0
BBX 11 11 0 0
BITMAP
040000
7C0300
280900
240C00
342400
7061E0
109334
018160
030080
090200
1807E0
ENDCHAR
STARTCHAR threequarters
ENCODING 190
SWIDTH 836 0
DWIDTH 12 0
BBX 12 10 0 0
BITMAP
1F4090
164180
060300
334600
634C59
2924AD
00609C
0091AD
018028
030024
ENDCHAR
STARTCHAR questiondown
ENCODING 191
SWIDTH 439 0
DWIDTH 6 0
BBX 5 10 0 -3
BITMAP
02C0
03C0
0000
0140
0300
1D00
7540
E2C0
F1C0
7E40
ENDCHAR
STARTCHAR Agrave
ENCODING 192
SWIDTH 668 0
DWIDTH 9 0
BBX 10 16 0 -2
BITMAP
000340
000240
000280
000000
0006E0
001AD0
0073D0
0093C0
2FE780
A34B40
5B0B40
0E0F00
1D1E00
2C1E00
2C0000
040000
ENDCHAR
STARTCHAR Aacute
ENCODING 193
SWIDTH 668 0
DWIDTH 9 0
BBX 11 16 0 -2
BITMAP
000038
000070
000090
000000
0006E0
001AD0
0073D0
0093C0
2FE780
A34B40
5B0B40
0E0F00
1D1E00
2C1E00
2C0000
040000
ENDCHAR
STARTCHAR Acircumflex
ENCODING 194
SWIDTH 668 0
DWIDTH 9 0
BBX 11 16 0 -2
BITMAP
000020
0000F4
000248
000000
0006E0
001AD0
0073D0
0093C0
2FE780
A34B40
5B0B40
0E0F00
1D1E00
2C1E00
2C0000
040000
ENDCHAR
STARTCHAR Atilde
ENCODING 195
SWIDTH 668 0
DWIDTH 9 0
BBX 11 15 0 -2
BITMAP
000BE4
000050
000000
0006E0
001AD0
0073D0
0093C0
2FE780
A34B40
5B0B40
0E0F00
1D1E00
2C1E00
2C0000
040000
ENDCHAR
STARTCHAR Adieresis
ENCODING 196
SWIDTH 668 0
DWIDTH 9 0
BBX 11 15 0 -2
BITMAP
000734
000624
000000
0006E0
001AD0
0073D0
0093C0
2FE780
A34B40
5B0B40
0E0F00
1D1E00
2C1E00
2C0000
040000
ENDCHAR
STARTCHAR Aring
ENCODING 197
SWIDTH 668 0
DWIDTH 9 0
BBX 10 16 0 -2
BITMAP
0001D0
000220
0001D0
000000
0006E0
001AD0
0073D0
0093C0
2FE780
A34B40
5B0B40
0E0F00
1D1E00
2C1E00
2C0000
040000
ENDCHAR
STARTCHAR AE
ENCODING 198
SWIDTH 764 0
DWIDTH 11 0
BBX 13 12 0 -2
BITMAP
0006EA40
001AD000
0063C000
00D3C000
6BEBF800
A34B4000
0B0B4000
0E0F0000
1D1F0000
2C1FF800
2C000000
04000000
ENDCHAR
STARTCHAR Ccedilla
ENCODING 199
SWIDTH 497 0
DWIDTH 7 0
BBX 8 13 0 -3
BITMAP
02F8
0F49
2E0D
3D00
7C00
B800
B800
B800
7D18
2FE0
0240
07C0
0540
ENDCHAR
STARTCHAR Egrave
ENCODING 200
SWIDTH 459 0
DWIDTH 6 0
BBX 7 14 0 0
BITMAP
01C0
00D0
0090
0000
02F4
0B1C
0E18
0E00
0B40
2E00
BC00
F800
B814
6F90
ENDCHAR
STARTCHAR Eacute
ENCODING 201
SWIDTH 459 0
DWIDTH 6 0
BBX 7 14 0 0
BITMAP
001C
0034
0010
0000
02F4
0B1C
0E18
0E00
0B40
2E00
BC00
F800
B814
6F90
ENDCHAR
STARTCHAR Ecircumflex
ENCODING 202
SWIDTH 459 0
DWIDTH 6 0
BBX 7 14 0 0
BITMAP
0024
00A8
0104
0000
02F4
0B1C
0E18
0E00
0B40
2E00
BC00
F800
B814
6F90
ENDCHAR
STARTCHAR Edieresis
ENCODING 203
SWIDTH 459 0
DWIDTH 6 0
BBX 8 13 0 0
BITMAP
01CD
0189
0000
02F4
0B1C
0E18
0E00
0B40
2E00
BC00
F800
B814
6F90
ENDCHAR
STARTCHAR Igrave
ENCODING 204
SWIDTH 375 0
DWIDTH 5 0
BBX 6 14 0 0
BITMAP
0240
0280
0180
0000
06D0
26D0
A3C0
D780
5780
0B40
0F00
0F00
1E00
2D00
ENDCHAR
STARTCHAR Iacute
ENCODING 205
SWIDTH 375 0
DWIDTH 5 0
BBX 7 14 0 0
BITMAP
0038
0070
0090
0000
06D0
26D0
A3C0
D780
5780
0B40
0F00
0F00
1E00
2D00
ENDCHAR
STARTCHAR Icircumflex
ENCODING 206
SWIDTH 375 0
DWIDTH 5 0
BBX 7 14 0 0
BITMAP
0060
01F0
0614
0000
06D0
26D0
A3C0
D780
5780
0B40
0F00
0F00
1E00
2D00
ENDCHAR
STARTCHAR Idieresis
ENCODING 207
SWIDTH 375 0
DWIDTH 5 0
BBX 7 13 0 0
BITMAP
0728
0228
0000
06D0
26D0
A3C0
D780
5780
0B40
0F00
0F00
1E00
2D00
ENDCHAR
STARTCHAR Eth
ENCODING 208
SWIDTH 663 0
DWIDTH 9 0
BBX 9 10 0 0
BITMAP
06F900
398740
A3C3C0
D783C0
1FD3C0
0B4380
0F0780
1F0B00
1E1E00
2EB400
ENDCHAR
STARTCHAR Ntilde
ENCODING 209
SWIDTH 686 0
DWIDTH 10 0
BBX 10 13 0 0
BITMAP
002F90
005B80
000000
0AD070
36E0A0
A3F0D0
D7F4D0
67B5C0
0A7980
0D3E80
0D2F40
1C2F00
281F00
ENDCHAR
STARTCHAR Ograve
ENCODING 210
SWIDTH 665 0
DWIDTH 9 0
BBX 9 14 0 0
BITMAP
00A000
007000
003000
000000
02BE00
1D5380
72C2C0
A782C0
5F42C0
1F03C0
1E0780
1E0F00
1E6D00
0BE400
ENDCHAR
STARTCHAR Oacute
ENCODING 211
SWIDTH 665 0
DWIDTH 9 0
BBX 9 14 0 0
BITMAP
000700
000900
001C00
000000
02BE00
1D5380
72C2C0
A782C0
5F42C0
1F03C0
1E0780
1E0F00
1E6D00
0BE400
ENDCHAR
STARTCHAR Ocircumflex
ENCODING 212
SWIDTH 665 0
DWIDTH 9 0
BBX 9 14 0 0
BITMAP
000900
002D00
009200
000000
02BE00
1D5380
72C2C0
A782C0
5F42C0
1F03C0
1E0780
1E0F00
1E6D00
0BE400
ENDCHAR
STARTCHAR Otilde
ENCODING 213
SWIDTH 665 0
DWIDTH 9 0
BBX 9 13 0 0
BITMAP
007E80
000500
000000
02BE00
1D5380
72C2C0
A782C0
5F42C0
1F03C0
1E0780
1E0F00
1E6D00
0BE400
ENDCHAR
STARTCHAR Odieresis
ENCODING 214
SWIDTH 665 0
DWIDTH 9 0
BBX 9 13 0 0
BITMAP
00A700
009600
000000
02BE00
1D5380
72C2C0
A782C0
5F42C0
1F03C0
1E0780
1E0F00
1E6D00
0BE400
ENDCHAR
STARTCHAR multiply
ENCODING 215
SWIDTH 414 0
DWIDTH 6 0
BBX 4 5 1 2
BITMAP
86
BD
7C
DA
41
ENDCHAR
STARTCHAR Oslash
ENCODING 216
SWIDTH 658 0
DWIDTH 9 0
BBX 9 11 0 -1
BITMAP
06BD00
2AFB40
77E780
AB6380
5F2380
1E2780
1E5B40
2D9E00
1EBC00
0BE000
018000
ENDCHAR
STARTCHAR Ugrave
ENCODING 217
SWIDTH 716 0
DWIDTH 10 0
BBX 11 14 0 0
BITMAP
001D00
000D00
000900
000000
06E0B4
25D0B4
A2D0F0
D3C1E0
5781E0
0B42D0
0B03C0
0F0780
0B9F00
06F900
ENDCHAR
STARTCHAR Uacute
ENCODING 218
SWIDTH 716 0
DWIDTH 10 0
BBX 11 14 0 0
BITMAP
000280
000700
000500
000000
06E0B4
25D0B4
A2D0F0
D3C1E0
5781E0
0B42D0
0B03C0
0F0780
0B9F00
06F900
ENDCHAR
STARTCHAR Ucircumflex
ENCODING 219
SWIDTH 716 0
DWIDTH 10 0
BBX 11 14 0 0
BITMAP
000240
000A80
001040
000000
06E0B4
25D0B4
A2D0F0
D3C1E0
5781E0
0B42D0
0B03C0
0F0780
0B9F00
06F900
ENDCHAR
STARTCHAR Udieresis
ENCODING 220
SWIDTH 716 0
DWIDTH 10 0
BBX 11 13 0 0
BITMAP
0028D0
001890
000000
06E0B4
25D0B4
A2D0F0
D3C1E0
5781E0
0B42D0
0B03C0
0F0780
0B9F00
06F900
ENDCHAR
STARTCHAR Yacute
ENCODING 221
SWIDTH 620 0
DWIDTH 9 0
BBX 10 14 0 0
BITMAP
0000D0
000180
000340
000000
06E060
29F080
A0F580
D0F600
50BA00
007D00
007C00
00B800
00B400
00F400
ENDCHAR
STARTCHAR Thorn
ENCODING 222
SWIDTH 583 0
DWIDTH 8 0
BBX 9 11 0 0
BITMAP
005000
02D000
07F800
2BCB00
A78740
D78740
9B4B00
0F2D00
0FE400
1E0000
2D0000
ENDCHAR
STARTCHAR germandbls
ENCODING 223
SWIDTH 480 0
DWIDTH 7 0
BBX 7 14 -1 -4
BITMAP
01F4
0758
0B28
0F24
1E60
2D34
2D2C
3C2C
3C3C
7AE4
B400
B400
F000
4000
ENDCHAR
STARTCHAR agrave
ENCODING 224
SWIDTH 526 0
DWIDTH 7 0
BBX 8 10 0 0
BITMAP
0280
0280
0180
1BB8
7CB4
B4B4
F0F0
F1E1
F6E5
B9B8
ENDCHAR
STARTCHAR aacute
ENCODING 225
SWIDTH 526 0
DWIDTH 7 0
BBX 8 10 0 0
BITMAP
00A0
00C0
0040
1BB8
7CB4
B4B4
F0F0
F1E1
F6E5
B9B8
ENDCHAR
STARTCHAR acircumflex
ENCODING 226
SWIDTH 526 0
DWIDTH 7 0
BBX 8 10 0 0
BITMAP
0060
02A0
0400
1BB8
7CB4
B4B4
F0F0
F1E1
F6E5
B9B8
ENDCHAR
STARTCHAR atilde
ENCODING 227
SWIDTH 526 0
DWIDTH 7 0
BBX 8 10 0 0
BITMAP
07E4
05A4
0000
1BB8
7CB4
B4B4
F0F0
F1E1
F6E5
B9B8
ENDCHAR
STARTCHAR adieresis
ENCODING 228
SWIDTH 526 0
DWIDTH 7 0
BBX 8 10 0 0
BITMAP
0728
0624
0000
1BB8
7CB4
B4B4
F0F0
F1E1
F6E5
B9B8
ENDCHAR
STARTCHAR aring
ENCODING 229
SWIDTH 526 0
DWIDTH 7 0
BBX 8 10 0 0
BITMAP
01D0
0210
01C0
1BB8
7CB4
B4B4
F0F0
F1E1
F6E5
B9B8
ENDCHAR
STARTCHAR ae
ENCODING 230
SWIDTH 650 0
DWIDTH 9 0
BBX 10 7 0 0
BITMAP
1BEF80
10F980
00F640
6FF900
F5E010
F2E080
B9BA00
ENDCHAR
STARTCHAR ccedilla
ENCODING 231
SWIDTH 384 0
DWIDTH 5 0
BBX 6 10 0 -3
BITMAP
1B80
3CC0
B440
F000
F010
F090
7F40
0800
0B00
1500
ENDCHAR
STARTCHAR egrave
ENCODING 232
SWIDTH 384 0
DWIDTH 5 0
BBX 6 10 0 0
BITMAP
0A00
0700
0300
1B80
38C0
B680
FE00
F010
F040
7E00
ENDCHAR
STARTCHAR eacute
ENCODING 233
SWIDTH 384 0
DWIDTH 5 0
BBX 6 10 0 0
BITMAP
00D0
0180
0100
1B80
38C0
B680
FE00
F010
F040
7E00
ENDCHAR
STARTCHAR ecircumflex
ENCODING 234
SWIDTH 384 0
DWIDTH 5 0
BBX 6 10 0 0
BITMAP
0180
0690
0010
1B80
38C0
B680
FE00
F010
F040
7E00
ENDCHAR
STARTCHAR edieresis
ENCODING 235
SWIDTH 384 0
DWIDTH 5 0
BBX 6 10 0 0
BITMAP
0DA0
0860
0000
1B80
38C0
B680
FE00
F010
F040
7E00
ENDCHAR
STARTCHAR igrave
ENCODING 236
SWIDTH 267 0
DWIDTH 4 0
BBX 4 10 0 0
BITMAP
34
24
18
3C
78
B4
B4
F1
F6
B8
ENDCHAR
STARTCHAR iacute
ENCODING 237
SWIDTH 267 0
DWIDTH 4 0
BBX 4 10 0 0
BITMAP
07
0D
04
3C
78
B4
B4
F1
F6
B8
ENDCHAR
STARTCHAR icircumflex
ENCODING 238
SWIDTH 267 0
DWIDTH 4 0
BBX 4 10 0 0
BITMAP
09
26
40
3C
78
B4
B4
F1
F6
B8
ENDCHAR
STARTCHAR idieresis
ENCODING 239
SWIDTH 267 0
DWIDTH 4 0
BBX 4 10 0 0
BITMAP
A7
62
00
3C
78
B4
B4
F1
F6
B8
ENDCHAR
STARTCHAR eth
ENCODING 240
SWIDTH 526 0
DWIDTH 7 0
BBX 8 11 0 0
BITMAP
0040
00E9
02F4
0078
1BB8
7CB4
B4B4
F0F0
F1F0
F2E2
B9F8
ENDCHAR
STARTCHAR ntilde
ENCODING 241
SWIDTH 505 0
DWIDTH 7 0
BBX 9 10 -1 0
BITMAP
02E900
05A800
000000
0FB800
1E3C00
2D3C00
2D7800
3C7440
78BA40
787D00
ENDCHAR
STARTCHAR ograve
ENCODING 242
SWIDTH 433 0
DWIDTH 6 0
BBX 9 10 -1 0
BITMAP
01C000
00D000
009000
06E000
1E3440
2D7900
3C3400
7C7000
7C9000
2F4000
ENDCHAR
STARTCHAR oacute
ENCODING 243
SWIDTH 439 0
DWIDTH 6 0
BBX 8 10 0 0
BITMAP
00E0
0180
0100
1B80
3C91
B4E8
F0D0
F0C0
F280
7E00
ENDCHAR
STARTCHAR ocircumflex
ENCODING 244
SWIDTH 433 0
DWIDTH 6 0
BBX 9 10 -1 0
BITMAP
006000
02A000
000000
06E000
1E3440
2D7900
3C3400
7C7000
7C9000
2F4000
ENDCHAR
STARTCHAR otilde
ENCODING 245
SWIDTH 433 0
DWIDTH 6 0
BBX 9 10 -1 0
BITMAP
0BE400
06F400
000000
06E000
1E3440
2D7900
3C3400
7C7000
7C9000
2F4000
ENDCHAR
STARTCHAR odieresis
ENCODING 246
SWIDTH 433 0
DWIDTH 6 0
BBX 9 10 -1 0
BITMAP
072800
062400
000000
06E000
1E3440
2D7900
3C3400
7C7000
7C9000
2F4000
ENDCHAR
STARTCHAR divide
ENCODING 247
SWIDTH 415 0
DWIDTH 6 0
BBX 6 7 0 1
BITMAP
0740
0780
0000
7FD0
0000
1E00
0E00
ENDCHAR
STARTCHAR oslash
ENCODING 248
SWIDTH 428 0
DWIDTH 6 0
BBX 8 8 -1 -1
BITMAP
06E9
0F24
2D74
3DB4
3E70
3D90
2E40
9000
ENDCHAR
STARTCHAR ugrave
ENCODING 249
SWIDTH 505 0
DWIDTH 7 0
BBX 8 10 0 0
BITMAP
0700
0340
0240
3CB4
78F0
B4F0
B5E0
F2D1
F7E9
B9F4
ENDCHAR
STARTCHAR uacute
ENCODING 250
SWIDTH 505 0
DWIDTH 7 0
BBX 8 10 0 0
BITMAP
00A0
01C0
0000
3CB4
78F0
B4F0
B5E0
F2D1
F7E9
B9F4
ENDCHAR
STARTCHAR ucircumflex
ENCODING 251
SWIDTH 505 0
DWIDTH 7 0
BBX 8 10 0 0
BITMAP
0090
0660
0000
3CB4
78F0
B4F0
B5E0
F2D1
F7E9
B9F4
ENDCHAR
STARTCHAR udieresis
ENCODING 252
SWIDTH 505 0
DWIDTH 7 0
BBX 8 10 0 0
BITMAP
0D70
0960
0000
3CB4
78F0
B4F0
B5E0
F2D1
F7E9
B9F4
ENDCHAR
STARTCHAR yacute
ENCODING 253
SWIDTH 505 0
DWIDTH 7 0
BBX 7 13 0 -3
BITMAP
00A0
01C0
0000
3CB4
78F0
B4F0
B5E0
F2D0
F7D8
BBD0
1B80
6B40
3E00
ENDCHAR
STARTCHAR thorn
ENCODING 254
SWIDTH 473 0
DWIDTH 7 0
BBX 8 15 -1 -4
BITMAP
0140
0780
0B40
0F00
0FB8
1E2C
2D2D
2D3C
3C78
78B4
7FD0
B400
F000
F000
4000
ENDCHAR
STARTCHAR ydieresis
ENCODING 255
SWIDTH 505 0
DWIDTH 7 0
BBX 7 13 0 -3
BITMAP
0DA0
0960
0000
3CB4
78F0
B4F0
B5E0
F2D0
F7D8
BBD0
1B80
6B40
3E00
ENDCHAR
STARTCHAR Amacron
ENCODING 256
SWIDTH 668 0
DWIDTH 9 0
BBX 11 15 0 -2
BITMAP
000BF8
000000
000000
0006E0
001AD0
0073D0
0093C0
2FE780
A34B40
5B0B40
0E0F00
1D1E00
2C1E00
2C0000
040000
ENDCHAR
STARTCHAR amacron
ENCODING 257
SWIDTH 526 0
DWIDTH 7 0
BBX 8 10 0 0
BITMAP
0BF8
0000
0000
1BB8
7CB4
B4B4
F0F0
F1E1
F6E5
B9B8
ENDCHAR
STARTCHAR Abreve
ENCODING 258
SWIDTH 668 0
DWIDTH 9 0
BBX 12 15 0 -2
BITMAP
00070D
0002A4
000000
0006E0
001AD0
0073D0
0093C0
2FE780
A34B40
5B0B40
0E0F00
1D1E00
2C1E00
2C0000
040000
ENDCHAR
STARTCHAR abreve
ENCODING 259
SWIDTH 526 0
DWIDTH 7 0
BBX 8 10 0 0
BITMAP
0A1C
06A0
0000
1BB8
7CB4
B4B4
F0F0
F1E1
F6E5
B9B8
ENDCHAR
STARTCHAR Aogonek
ENCODING 260
SWIDTH 668 0
DWIDTH 9 0
BBX 10 13 0 -3
BITMAP
0006E0
001AD0
0073D0
0093C0
2FE780
A34B40
5B0B40
0E0F00
1D1E00
2C1E00
2C1800
183400
002900
ENDCHAR
STARTCHAR aogonek
ENCODING 261
SWIDTH 526 0
DWIDTH 7 0
BBX 8 10 0 -3
BITMAP
1BB8
7CB4
B4B4
F0F0
F1E0
F2E2
B9F8
0060
00D0
00A4
ENDCHAR
STARTCHAR Cacute
ENCODING 262
SWIDTH 497 0
DWIDTH 7 0
BBX 8 14 0 0
BITMAP
001C
0024
0010
0000
02F8
0F49
2E0D
3D04
7C00
B800
B800
B800
7C08
2F90
ENDCHAR
STARTCHAR cacute
ENCODING 263
SWIDTH 384 0
DWIDTH 5 0
BBX 6 10 0 0
BITMAP
00A0
00C0
0040
1B80
3CC0
B440
F000
F000
F050
7E40
ENDCHAR
STARTCHAR Ccircumflex
ENCODING 264
SWIDTH 497 0
DWIDTH 7 0
BBX 8 14 0 0
BITMAP
0024
00A8
0104
0000
02F8
0F49
2E0D
3D04
7C00
B800
B800
B800
7C08
2F90
ENDCHAR
STARTCHAR ccircumflex
ENCODING 265
SWIDTH 384 0
DWIDTH 5 0
BBX 6 10 0 0
BITMAP
01C0
0690
0410
1B80
3CC0
B440
F000
F000
F050
7E40
ENDCHAR
STARTCHAR Cdotaccent
ENCODING 266
SWIDTH 497 0
DWIDTH 7 0
BBX 8 14 0 0
BITMAP
002C
002D
0000
0000
02F8
0F49
2E0D
3D04
7C00
B800
B800
B800
7C08
2F90
ENDCHAR
STARTCHAR cdotaccent
ENCODING 267
SWIDTH 384 0
DWIDTH 5 0
BBX 6 10 0 0
BITMAP
02C0
02C0
0000
1B80
3CC0
B440
F000
F000
F050
7E40
ENDCHAR
STARTCHAR Ccaron
ENCODING 268
SWIDTH 497 0
DWIDTH 7 0
BBX 8 14 0 0
BITMAP
0085
0074
0010
0000
02F8
0F49
2E0D
3D04
7C00
B800
B800
B800
7C08
2F90
ENDCHAR
STARTCHAR ccaron
ENCODING 269
SWIDTH 384 0
DWIDTH 5 0
BBX 7 10 0 0
BITMAP
0264
0280
0000
1B80
3CC0
B440
F000
F010
F580
7E00
ENDCHAR
STARTCHAR Dcaron
ENCODING 270
SWIDTH 663 0
DWIDTH 9 0
BBX 9 14 0 0
BITMAP
008600
007800
001000
000000
06FD00
294B40
A3C380
D7C3C0
9783C0
0B4380
0F0780
0F0B00
1E1E00
2EB400
ENDCHAR
STARTCHAR dcaron
ENCODING 271
SWIDTH 525 0
DWIDTH 7 0
BBX 10 10 0 0
BITMAP
0000D0
003C90
003C40
1BB800
7CB800
B4B400
F0F000
F1F000
F2E200
B9F800
ENDCHAR
STARTCHAR Dcroat
ENCODING 272
SWIDTH 663 0
DWIDTH 9 0
BBX 9 10 0 0
BITMAP
06F900
398740
A3C3C0
D783C0
1FD3C0
0B4380
0F0780
1F0B00
1E1E00
2EB400
ENDCHAR
STARTCHAR dcroat
ENCODING 273
SWIDTH 525 0
DWIDTH 7 0
BBX 8 10 0 0
BITMAP
002C
01FF
0078
1BB8
7CB4
B4B4
F0F0
F1E0
F2E2
B9F8
ENDCHAR
STARTCHAR Emacron
ENCODING 274
SWIDTH 459 0
DWIDTH 6 0
BBX 8 13 0 0
BITMAP
02FE
0000
0000
02F4
0B1C
0E18
0E00
0B40
2E00
BC00
F800
B814
6F90
ENDCHAR
STARTCHAR emacron
ENCODING 275
SWIDTH 384 0
DWIDTH 5 0
BBX 6 10 0 0
BITMAP
2FE0
0000
0000
1B80
38C0
B680
FE00
F010
F040
7E00
ENDCHAR
STARTCHAR Ebreve
ENCODING 276
SWIDTH 459 0
DWIDTH 6 0
BBX 8 13 0 0
BITMAP
0287
01A8
0000
02F4
0B1C
0E18
0E00
0B40
2E00
BC00
F800
B814
6F90
ENDCHAR
STARTCHAR ebreve
ENCODING 277
SWIDTH 384 0
DWIDTH 5 0
BBX 6 10 0 0
BITMAP
3470
1A80
0000
1B80
38C0
B680
FE00
F010
F040
7E00
ENDCHAR
STARTCHAR Edotaccent
ENCODING 278
SWIDTH 459 0
DWIDTH 6 0
BBX 7 14 0 0
BITMAP
0074
0078
0000
0000
02F4
0B1C
0E18
0E00
0B40
2E00
BC00
F800
B814
6F90
ENDCHAR
STARTCHAR edotaccent
ENCODING 279
SWIDTH 384 0
DWIDTH 5 0
BBX 6 10 0 0
BITMAP
02C0
03C0
0000
1B80
38C0
B680
FE00
F010
F040
7E00
ENDCHAR
STARTCHAR Eogonek
ENCODING 280
SWIDTH 459 0
DWIDTH 6 0
BBX 7 13 0 -3
BITMAP
07E4
1E1C
2D1C
1E00
0B80
3E00
B800
B800
BD54
2FD0
0180
0240
0290
ENDCHAR
STARTCHAR eogonek
ENCODING 281
SWIDTH 384 0
DWIDTH 5 0
BBX 6 10 0 -3
BITMAP
1B80
38C0
B680
FE00
F010
F580
7F00
0800
1C00
0A00
ENDCHAR
STARTCHAR Ecaron
ENCODING 282
SWIDTH 459 0
DWIDTH 6 0
BBX 8 14 0 0
BITMAP
0086
0078
0010
0000
02F4
0B1C
0E18
0E00
0B40
2E00
BC00
F800
B814
6F90
ENDCHAR
STARTCHAR ecaron
ENCODING 283
SWIDTH 384 0
DWIDTH 5 0
BBX 7 10 0 0
BITMAP
0264
0280
0000
1B80
38C0
B680
F900
F010
F040
7E00
ENDCHAR
STARTCHAR Gcircumflex
ENCODING 284
SWIDTH 578 0
DWIDTH 8 0
BBX 8 17 0 -3
BITMAP
0008
003C
0095
0000
06F9
1F47
3D0A
B800
B409
B41D
787C
1EBC
0078
1A74
34B0
34E0
1B80
ENDCHAR
STARTCHAR gcircumflex
ENCODING 285
SWIDTH 507 0
DWIDTH 7 0
BBX 8 13 0 -3
BITMAP
0060
02A0
0400
1BB8
7CB4
B4B4
F0F0
F1E0
F2E5
BBE4
07C0
2780
2E00
ENDCHAR
STARTCHAR Gbreve
ENCODING 286
SWIDTH 578 0
DWIDTH 8 0
BBX 9 16 0 -3
BITMAP
00D280
006A00
000000
06F900
1F4B00
3D0A00
B80000
B40900
B41D00
787D00
1EBC00
007800
1A7400
34B000
34E000
1B8000
ENDCHAR
STARTCHAR gbreve
ENCODING 287
SWIDTH 507 0
DWIDTH 7 0
BBX 8 13 0 -3
BITMAP
0A1C
06A0
0000
1BB8
7CB4
B4B4
F0F0
F1E0
F2E5
BBE4
07C0
2780
2E00
ENDCHAR
STARTCHAR Gdotaccent
ENCODING 288
SWIDTH 578 0
DWIDTH 8 0
BBX 8 17 0 -3
BITMAP
0038
0038
0000
0000
06F9
1F4B
3D0A
B800
B409
B41D
787D
1EBC
0078
1A74
34B0
34E0
1B80
ENDCHAR
STARTCHAR gdotaccent
ENCODING 289
SWIDTH 507 0
DWIDTH 7 0
BBX 8 13 0 -3
BITMAP
00E0
01E0
0000
1BB8
7CB4
B4B4
F0F0
F1E0
F2E5
BBE4
07C0
2780
2E00
ENDCHAR
STARTCHAR Gcommaaccent
ENCODING 290
SWIDTH 578 0
DWIDTH 8 0
BBX 8 14 0 -4
BITMAP
02F8
0F4D
2E1D
7C00
B800
B81D
F42C
B43C
78B8
2EB4
0000
0340
0200
0100
ENDCHAR
STARTCHAR gcommaaccent
ENCODING 291
SWIDTH 507 0
DWIDTH 7 0
BBX 8 14 0 -3
BITMAP
0080
01C0
0040
0000
1BB8
7CB4
B4B4
F0F0
F1E0
F2E5
BBE4
07C0
2780
2E00
ENDCHAR
STARTCHAR Hcircumflex
ENCODING 292
SWIDTH 665 0
DWIDTH 9 0
BBX 10 14 0 0
BITMAP
000200
000B40
002480
000000
06E1E0
26D2D0
A3C3C0
A3C3C0
57FF80
0B4B40
0B4B40
0F0F00
1E1E00
1E1E00
ENDCHAR
STARTCHAR hcircumflex
ENCODING 293
SWIDTH 505 0
DWIDTH 7 0
BBX 9 13 -1 0
BITMAP
004000
01D000
052000
054000
0B4000
0F0000
0FB800
1E3C00
2D3C00
2D7800
3C7400
78B540
787D00
ENDCHAR
STARTCHAR Hbar
ENCODING 294
SWIDTH 665 0
DWIDTH 9 0
BBX 11 10 0 0
BITMAP
06E1E0
26D2D0
A7EBE4
A7C3C0
57FF80
0B4B40
0F4B40
0F0F00
1E1E00
1E1E00
ENDCHAR
STARTCHAR hbar
ENCODING 295
SWIDTH 505 0
DWIDTH 7 0
BBX 9 10 -1 0
BITMAP
0B4000
2FD000
0F0000
1FB800
1E3C00
2D3C00
2D7800
3C7400
78B540
787D00
ENDCHAR
STARTCHAR Itilde
ENCODING 296
SWIDTH 375 0
DWIDTH 5 0
BBX 7 13 0 0
BITMAP
07E8
0050
0000
06D0
26D0
A3C0
D780
5780
0B40
0F00
0F00
1E00
2D00
ENDCHAR
STARTCHAR itilde
ENCODING 297
SWIDTH 267 0
DWIDTH 4 0
BBX 4 10 0 0
BITMAP
7A
59
00
3C
78
B4
B4
F1
F6
B8
ENDCHAR
STARTCHAR Imacron
ENCODING 298
SWIDTH 375 0
DWIDTH 5 0
BBX 7 13 0 0
BITMAP
0BF8
0000
0000
06D0
26D0
A3C0
D780
5780
0B40
0F00
0F00
1E00
2D00
ENDCHAR
STARTCHAR imacron
ENCODING 299
SWIDTH 267 0
DWIDTH 4 0
BBX 4 10 0 0
BITMAP
BF
00
00
3C
78
B4
B4
F1
F6
B8
ENDCHAR
STARTCHAR Ibreve
ENCODING 300
SWIDTH 375 0
DWIDTH 5 0
BBX 8 13 0 0
BITMAP
060D
02A4
0000
06D0
26D0
A3C0
D780
5780
0B40
0F00
0F00
1E00
2D00
ENDCHAR
STARTCHAR ibreve
ENCODING 301
SWIDTH 267 0
DWIDTH 4 0
BBX 5 10 0 0
BITMAP
6240
2900
0000
3C00
7800
B400
B400
F100
F600
B800
ENDCHAR
STARTCHAR Iogonek
ENCODING 302
SWIDTH 375 0
DWIDTH 5 0
BBX 6 17 0 -3
BITMAP
0600
0700
0340
0000
06D0
2AD0
A3C0
D780
5780
0B40
0F00
0F00
1E00
2D00
2400
3100
2D00
ENDCHAR
STARTCHAR iogonek
ENCODING 303
SWIDTH 267 0
DWIDTH 4 0
BBX 5 13 -1 -3
BITMAP
0B40
0B40
0000
0F00
1E00
2D00
2D00
3C40
3D80
2E00
6000
A100
7800
ENDCHAR
STARTCHAR Idotaccent
ENCODING 304
SWIDTH 375 0
DWIDTH 5 0
BBX 6 13 0 0
BITMAP
00F0
00A0
0000
06D0
26D0
A3C0
D780
5780
0B40
0F00
0F00
1E00
2D00
ENDCHAR
STARTCHAR dotlessi
ENCODING 305
SWIDTH 267 0
DWIDTH 4 0
BBX 4 7 0 0
BITMAP
3C
78
B4
B4
F1
F6
B8
ENDCHAR
STARTCHAR IJ
ENCODING 306
SWIDTH 663 0
DWIDTH 9 0
BBX 10 13 0 -3
BITMAP
06D190
2AD3C0
A3C3C0
D78780
578B40
0B4F40
0F0F00
0F1E00
1E2E00
2F6D00
1C3C00
1C7800
0B9000
ENDCHAR
STARTCHAR ij
ENCODING 307
SWIDTH 507 0
DWIDTH 7 0
BBX 8 13 0 -3
BITMAP
2D28
2D3C
0000
3C78
78B4
B4F4
B4F0
F1E1
F6E5
BAE4
1BC0
2780
2E00
ENDCHAR
STARTCHAR Jcircumflex
ENCODING 308
SWIDTH 536 0
DWIDTH 8 0
BBX 9 17 0 -3
BITMAP
000240
000A80
001040
000000
002F00
019E00
035E00
072D00
023C00
003C00
007800
00B400
00F400
29F000
A1E000
A2D000
2E4000
ENDCHAR
STARTCHAR jcircumflex
ENCODING 309
SWIDTH 240 0
DWIDTH 3 0
BBX 7 13 -3 -3
BITMAP
0024
0198
0100
00F0
01E0
02D0
02D0
03C4
0794
0B90
6F40
8F00
7D00
ENDCHAR
STARTCHAR Kcommaaccent
ENCODING 310
SWIDTH 601 0
DWIDTH 8 0
BBX 9 13 0 -3
BITMAP
06D280
26D600
A3DC00
D7E000
57F900
0B5E00
0F1E00
0F2D00
1E3C00
2D2C00
004000
01C000
014000
ENDCHAR
STARTCHAR kcommaaccent
ENCODING 311
SWIDTH 518 0
DWIDTH 7 0
BBX 9 14 -1 -4
BITMAP
064000
0B4000
0F0000
0F1800
1EA000
2FF400
2D7800
3C7840
787940
783E00
000000
034000
024000
010000
ENDCHAR
STARTCHAR kgreenlandic
ENCODING 312
SWIDTH 518 0
DWIDTH 7 0
BBX 9 7 -1 0
BITMAP
0F1800
1EA000
2FF400
2D7800
3C7840
787940
783E00
ENDCHAR
STARTCHAR Lacute
ENCODING 313
SWIDTH 379 0
DWIDTH 5 0
BBX 9 17 0 -3
BITMAP
002800
007000
005000
000000
06D000
2AD000
A3C000
D78000
578000
0B4000
0F0000
0F0000
1E0000
2E0000
06E400
007FC0
000B80
ENDCHAR
STARTCHAR lacute
ENCODING 314
SWIDTH 267 0
DWIDTH 4 0
BBX 5 13 0 0
BITMAP
0280
0700
0500
1900
2D00
3C00
3C00
7800
B400
B400
F100
FA00
B800
ENDCHAR
STARTCHAR Lcommaaccent
ENCODING 315
SWIDTH 379 0
DWIDTH 5 0
BBX 9 13 0 -3
BITMAP
06D000
2AD000
A3C000
D78000
578000
0B4000
0F0000
0F0000
1E0000
2E0000
16E400
287FC0
100B80
ENDCHAR
STARTCHAR lcommaaccent
ENCODING 316
SWIDTH 267 0
DWIDTH 4 0
BBX 4 14 0 -4
BITMAP
19
2D
3C
3C
78
B4
B4
F1
FA
B8
00
D0
90
40
ENDCHAR
STARTCHAR Lcaron
ENCODING 317
SWIDTH 379 0
DWIDTH 5 0
BBX 9 17 0 -3
BITMAP
008900
00B400
001000
000000
06D000
2AD000
A3C000
D78000
578000
0B4000
0F0000
0F0000
1E0000
2E0000
06E400
007FC0
000B80
ENDCHAR
STARTCHAR lcaron
ENCODING 318
SWIDTH 267 0
DWIDTH 4 0
BBX 6 10 0 0
BITMAP
00D0
2D90
2D40
3C00
7800
B400
B400
F000
F600
B800
ENDCHAR
STARTCHAR Ldot
ENCODING 319
SWIDTH 605 0
DWIDTH 8 0
BBX 9 13 0 -3
BITMAP
06D000
26D000
A3C000
D78000
078000
0B5E00
0F1E00
0F0000
1E0000
2E4000
06E400
007FC0
000B80
ENDCHAR
STARTCHAR ldot
ENCODING 320
SWIDTH 353 0
DWIDTH 5 0
BBX 5 10 0 0
BITMAP
1900
2D00
3C00
7C00
7A40
B680
B400
F000
F000
B800
ENDCHAR
STARTCHAR Lslash
ENCODING 321
SWIDTH 392 0
DWIDTH 5 0
BBX 9 13 0 -3
BITMAP
06D000
2AD000
A3C000
D7E400
578000
1F4000
0F0000
0F0000
1E0000
2E0000
06E400
007FC0
000B80
ENDCHAR
STARTCHAR lslash
ENCODING 322
SWIDTH 286 0
DWIDTH 4 0
BBX 6 10 -1 0
BITMAP
0640
0B40
0F00
0F90
1E00
7D00
6D00
3C40
3E80
2E00
ENDCHAR
STARTCHAR Nacute
ENCODING 323
SWIDTH 702 0
DWIDTH 10 0
BBX 10 14 0 0
BITMAP
0000D0
000180
000340
000000
0AD070
36E0A0
A3F0D0
D7F4D0
67B5C0
0A7980
0D3E80
0D2F40
1C2F00
281F00
ENDCHAR
STARTCHAR nacute
ENCODING 324
SWIDTH 505 0
DWIDTH 7 0
BBX 9 10 -1 0
BITMAP
001C00
003400
001000
0FB800
1E3C00
2D3C00
2D7800
3C7440
78BA40
787D00
ENDCHAR
STARTCHAR Ncommaaccent
ENCODING 325
SWIDTH 668 0
DWIDTH 9 0
BBX 10 14 0 -4
BITMAP
0AD070
36E0A0
A3F0D0
D7F4D0
67B5C0
0A7980
0D3E80
0D2F40
1C2F00
281F00
000000
018000
018000
010000
ENDCHAR
STARTCHAR ncommaaccent
ENCODING 326
SWIDTH 505 0
DWIDTH 7 0
BBX 9 10 -1 -3
BITMAP
0FB800
1E3C00
2D3C00
2D7800
3C7400
78B540
787D00
000000
070000
020000
ENDCHAR
STARTCHAR Ncaron
ENCODING 327
SWIDTH 668 0
DWIDTH 9 0
BBX 10 14 0 0
BITMAP
000860
000780
000200
000000
0AD070
36E0A0
A3F0D0
D7F4D0
67B5C0
0A7980
0D3E80
0D2F40
1C2F00
281F00
ENDCHAR
STARTCHAR ncaron
ENCODING 328
SWIDTH 505 0
DWIDTH 7 0
BBX 9 10 -1 0
BITMAP
015800
00E000
000000
0FB800
1E3C00
2D3C00
2D7800
3C7400
78B540
787D00
ENDCHAR
STARTCHAR napostrophe
ENCODING 329
SWIDTH 505 0
DWIDTH 7 0
BBX 9 10 -1 0
BITMAP
1C0000
0C0000
000000
0FB800
1E3C00
2D3C00
2D7800
3C7400
78B540
787D00
ENDCHAR
STARTCHAR Eng
ENCODING 330
SWIDTH 723 0
DWIDTH 10 0
BBX 11 13 0 -3
BITMAP
06F428
1DF434
35F834
72FC70
26BCA0
036DE0
071ED0
070FC0
0A0B80
0D0780
018740
028A00
00A800
ENDCHAR
STARTCHAR eng
ENCODING 331
SWIDTH 505 0
DWIDTH 7 0
BBX 7 10 -1 -3
BITMAP
1FB8
1F7C
2D38
2D78
3CB4
78B4
78F0
0AE0
16D0
0B80
ENDCHAR
STARTCHAR Omacron
ENCODING 332
SWIDTH 665 0
DWIDTH 9 0
BBX 9 13 0 0
BITMAP
00FF40
000000
000000
02BE00
1D5380
72C2C0
A782C0
5F42C0
1F03C0
1E0780
1E0F00
1E6D00
0BE400
ENDCHAR
STARTCHAR omacron
ENCODING 333
SWIDTH 433 0
DWIDTH 6 0
BBX 9 10 -1 0
BITMAP
07F800
000000
000000
06E000
1E3440
2D7900
3C3400
7C7000
7C9000
2F4000
ENDCHAR
STARTCHAR Obreve
ENCODING 334
SWIDTH 665 0
DWIDTH 9 0
BBX 9 13 0 0
BITMAP
00A1C0
002A40
000000
02BE00
1D5380
72C2C0
A782C0
5F42C0
1F03C0
1E0780
1E0F00
1E6D00
0BE400
ENDCHAR
STARTCHAR obreve
ENCODING 335
SWIDTH 433 0
DWIDTH 6 0
BBX 9 10 -1 0
BITMAP
070D00
02A400
000000
06E000
1E3440
2D7900
3C3400
7C7000
7C9000
2F4000
ENDCHAR
STARTCHAR Ohungarumlaut
ENCODING 336
SWIDTH 665 0
DWIDTH 9 0
BBX 10 14 0 0
BITMAP
000A60
001CD0
002540
000000
02BE00
1D5380
72C2C0
A782C0
5F42C0
1F03C0
1E0780
1E0F00
1E6D00
0BE400
ENDCHAR
STARTCHAR ohungarumlaut
ENCODING 337
SWIDTH 433 0
DWIDTH 6 0
BBX 9 10 -1 0
BITMAP
00DA00
018C00
021400
06E000
1E3440
2D7900
3C3400
7C7000
7C9000
2F4000
ENDCHAR
STARTCHAR OE
ENCODING 338
SWIDTH 846 0
DWIDTH 12 0
BBX 13 10 0 0
BITMAP
06BFFF80
29A38000
73C2C000
AB42C000
1F02F800
1F038000
1E074000
1E0B0000
1E2E5400
0BFFF800
ENDCHAR
STARTCHAR oe
ENCODING 339
SWIDTH 663 0
DWIDTH 9 0
BBX 10 7 0 0
BITMAP
1B9B80
78FC80
B5F880
F0F500
E0F010
F1F490
7E7E40
ENDCHAR
STARTCHAR Racute
ENCODING 340
SWIDTH 601 0
DWIDTH 8 0
BBX 8 14 0 0
BITMAP
000A
001C
0014
0000
06F9
294B
A3C7
D79E
57FD
0B5E
0F1E
0F2D
1E3C
2D2C
ENDCHAR
STARTCHAR racute
ENCODING 341
SWIDTH 376 0
DWIDTH 5 0
BBX 7 10 -1 0
BITMAP
0034
0090
0040
0FB4
1E74
2D00
2D00
3C00
7800
7800
ENDCHAR
STARTCHAR Rcommaaccent
ENCODING 342
SWIDTH 601 0
DWIDTH 8 0
BBX 8 13 0 -3
BITMAP
06F9
294B
A3C7
D79E
57FD
0B5E
0F1E
0F2D
1E3C
2D2C
0140
0280
0140
ENDCHAR
STARTCHAR rcommaaccent
ENCODING 343
SWIDTH 376 0
DWIDTH 5 0
BBX 7 10 -1 -3
BITMAP
0FB4
1E74
2D00
2D00
3C00
7800
7800
0000
1C00
0800
ENDCHAR
STARTCHAR Rcaron
ENCODING 344
SWIDTH 601 0
DWIDTH 8 0
BBX 9 14 0 0
BITMAP
002240
002D00
001000
000000
06F900
294B00
A3C700
D79E00
57FD00
0B5E00
0F1E00
0F2D00
1E3C00
2D2C00
ENDCHAR
STARTCHAR rcaron
ENCODING 345
SWIDTH 376 0
DWIDTH 5 0
BBX 7 10 -1 0
BITMAP
0264
0280
0000
0FB4
1E74
2D00
2D00
3C00
7800
7800
ENDCHAR
STARTCHAR Sacute
ENCODING 346
SWIDTH 570 0
DWIDTH 8 0
BBX 8 14 0 0
BITMAP
000D
0018
0010
0000
02F8
0B4A
0F4E
0B80
02E0
04F8
3D7C
703C
7478
1FE0
ENDCHAR
STARTCHAR sacute
ENCODING 347
SWIDTH 382 0
DWIDTH 5 0
BBX 7 10 -1 0
BITMAP
0034
00A0
0040
02C0
07D0
0BD0
16D0
32D4
62E0
2F40
ENDCHAR
STARTCHAR Scircumflex
ENCODING 348
SWIDTH 570 0
DWIDTH 8 0
BBX 8 14 0 0
BITMAP
0018
0069
0041
0000
02F8
0B4A
0F4E
0B80
02E0
04F8
3D7C
703C
7478
1FE0
ENDCHAR
STARTCHAR scircumflex
ENCODING 349
SWIDTH 382 0
DWIDTH 5 0
BBX 7 10 -1 0
BITMAP
0090
02A0
0410
02C0
07D0
0BD0
16D0
32D4
62E0
2F40
ENDCHAR
STARTCHAR Scedilla
ENCODING 350
SWIDTH 570 0
DWIDTH 8 0
BBX 8 13 0 -3
BITMAP
02F8
0B4A
0F4E
0B80
02E0
00F8
3D7C
743C
7478
2FE0
0240
01C0
0B80
ENDCHAR
STARTCHAR scedilla
ENCODING 351
SWIDTH 382 0
DWIDTH 5 0
BBX 7 11 -1 -3
BITMAP
0040
07C0
0BD0
0AD0
16D0
72D4
53E0
2F40
0900
1700
2E00
ENDCHAR
STARTCHAR Scaron
ENCODING 352
SWIDTH 570 0
DWIDTH 8 0
BBX 9 14 0 0
BITMAP
002240
002D00
001000
000000
02F800
0B4A00
0F4E00
0B8000
02E000
04F800
3D7C00
703C00
747800
1FE000
ENDCHAR
STARTCHAR scaron
ENCODING 353
SWIDTH 369 0
DWIDTH 5 0
BBX 7 10 -1 0
BITMAP
0224
02D0
0040
03C0
07D0
0AD0
16D0
36D4
63E0
2F40
ENDCHAR
STARTCHAR uni0162
ENCODING 354
SWIDTH 481 0
DWIDTH 7 0
BBX 10 13 0 -3
BITMAP
1AFAE0
74F000
A1E000
91E000
02D000
02C000
03C000
078000
078000
0B4000
064000
06C000
0B4000
ENDCHAR
STARTCHAR uni0163
ENCODING 355
SWIDTH 267 0
DWIDTH 4 0
BBX 5 12 -1 -3
BITMAP
0B40
0F00
2F80
1E00
2D00
2D00
3C40
3D80
2E00
2400
1A00
6D00
ENDCHAR
STARTCHAR Tcaron
ENCODING 356
SWIDTH 481 0
DWIDTH 7 0
BBX 10 14 0 0
BITMAP
005600
003C00
002400
000000
1AFAE0
74F000
A1E000
91E000
02D000
02C000
03C000
078000
078000
0B4000
ENDCHAR
STARTCHAR tcaron
ENCODING 357
SWIDTH 267 0
DWIDTH 4 0
BBX 6 10 0 0
BITMAP
00A0
1990
3C40
BE00
7800
B400
B400
F100
F600
B800
ENDCHAR
STARTCHAR Tbar
ENCODING 358
SWIDTH 481 0
DWIDTH 7 0
BBX 10 10 0 0
BITMAP
1AFFE0
74F000
E1E000
91E000
02D000
2FFD00
03C000
078000
078000
0B4000
ENDCHAR
STARTCHAR tbar
ENCODING 359
SWIDTH 267 0
DWIDTH 4 0
BBX 4 9 0 0
BITMAP
2D
3C
BE
FE
B4
B4
F1
F6
B8
ENDCHAR
STARTCHAR Utilde
ENCODING 360
SWIDTH 716 0
DWIDTH 10 0
BBX 11 13 0 0
BITMAP
002F90
000140
000000
06E0B4
25D0B4
A2D0F0
D3C1E0
5781E0
0B42D0
0B03C0
0F0780
0B9F00
06F900
ENDCHAR
STARTCHAR utilde
ENCODING 361
SWIDTH 505 0
DWIDTH 7 0
BBX 8 10 0 0
BITMAP
0BA4
16A0
0000
3CB4
78F0
B4F0
B5E0
F2D1
F7E9
B9F4
ENDCHAR
STARTCHAR Umacron
ENCODING 362
SWIDTH 716 0
DWIDTH 10 0
BBX 11 13 0 0
BITMAP
002FE0
000000
000000
06E0B4
25D0B4
A2D0F0
D3C1E0
5781E0
0B42D0
0B03C0
0F0780
0B9F00
06F900
ENDCHAR
STARTCHAR umacron
ENCODING 363
SWIDTH 505 0
DWIDTH 7 0
BBX 8 10 0 0
BITMAP
1FF0
0000
0000
3CB4
78F0
B4F0
B5E0
F2D1
F7E9
B9F4
ENDCHAR
STARTCHAR Ubreve
ENCODING 364
SWIDTH 716 0
DWIDTH 10 0
BBX 11 13 0 0
BITMAP
002870
000A90
000000
06E0B4
25D0B4
A2D0F0
D3C1E0
5781E0
0B42D0
0B03C0
0F0780
0B9F00
06F900
ENDCHAR
STARTCHAR ubreve
ENCODING 365
SWIDTH 505 0
DWIDTH 7 0
BBX 8 10 0 0
BITMAP
1C28
0A90
0000
3CB4
78F0
B4F0
B5E0
F2D1
F7E9
B9F4
ENDCHAR
STARTCHAR Uring
ENCODING 366
SWIDTH 716 0
DWIDTH 10 0
BBX 11 14 0 0
BITMAP
000740
000840
000740
000000
06E0B4
25D0B4
A2D0F0
D3C1E0
5781E0
0B42D0
0B03C0
0F0780
0B9F00
06F900
ENDCHAR
STARTCHAR uring
ENCODING 367
SWIDTH 505 0
DWIDTH 7 0
BBX 8 10 0 0
BITMAP
0280
0180
0280
3CB4
78F0
B4F0
B5E0
F2D1
F7E9
B9F4
ENDCHAR
STARTCHAR Uhungarumlaut
ENCODING 368
SWIDTH 716 0
DWIDTH 10 0
BBX 11 14 0 0
BITMAP
000368
000A60
000890
000000
06E0B4
25D0B4
A2D0F0
D3C1E0
5781E0
0B42D0
0B03C0
0F0780
0B9F00
06F900
ENDCHAR
STARTCHAR uhungarumlaut
ENCODING 369
SWIDTH 505 0
DWIDTH 7 0
BBX 8 10 0 0
BITMAP
0368
0630
0850
3CB4
78F0
B4F0
B5E0
F2D1
F7E9
B9F4
ENDCHAR
STARTCHAR Uogonek
ENCODING 370
SWIDTH 716 0
DWIDTH 10 0
BBX 11 17 0 -3
BITMAP
001D00
000D00
000900
000000
06E0B4
25E0B4
A2D0F0
D3C0E0
9781E0
0B42D0
0B43C0
0F0780
0B0B00
07F900
008000
018400
01E000
ENDCHAR
STARTCHAR uogonek
ENCODING 371
SWIDTH 505 0
DWIDTH 7 0
BBX 8 10 0 -3
BITMAP
3CB4
78F0
B4F0
B5E0
F2D1
F7E9
B9F4
0080
0184
01E0
ENDCHAR
STARTCHAR Wcircumflex
ENCODING 372
SWIDTH 962 0
DWIDTH 13 0
BBX 15 14 0 0
BITMAP
00000800
00003C00
00009500
00000000
06E0B424
2AE0F430
A1E1F450
D1E2F480
51E2B480
01E5B540
01E8BA00
01E8BA00
01F47C00
01F07800
ENDCHAR
STARTCHAR wcircumflex
ENCODING 373
SWIDTH 661 0
DWIDTH 9 0
BBX 9 10 0 0
BITMAP
002400
00A800
010400
3CB580
78F080
B4F0C0
B5E180
F2D240
F7EA00
B9F800
ENDCHAR
STARTCHAR Ycircumflex
ENCODING 374
SWIDTH 620 0
DWIDTH 9 0
BBX 10 14 0 0
BITMAP
000240
000B80
002480
000000
06E060
29F080
A0F580
D0F600
50BA00
007D00
007C00
00B800
00B400
00F400
ENDCHAR
STARTCHAR ycircumflex
ENCODING 375
SWIDTH 505 0
DWIDTH 7 0
BBX 7 13 0 -3
BITMAP
00C0
06A0
0000
3CB4
78F0
B4F0
B5E0
F2D0
F7D8
BBD0
1B80
6B40
3E00
ENDCHAR
STARTCHAR Ydieresis
ENCODING 376
SWIDTH 620 0
DWIDTH 9 0
BBX 10 13 0 0
BITMAP
0018D0
001890
000000
06E060
29F080
A0F580
D0F600
50BA00
007D00
007C00
00B800
00B400
00F400
ENDCHAR
STARTCHAR Zacute
ENCODING 377
SWIDTH 542 0
DWIDTH 8 0
BBX 8 14 0 0
BITMAP
000E
001C
0024
0000
1FFD
287C
00B4
01F0
03D0
0780
0F40
2E04
3D1C
BFF4
ENDCHAR
STARTCHAR zacute
ENCODING 378
SWIDTH 428 0
DWIDTH 6 0
BBX 6 10 0 0
BITMAP
00A0
01C0
0000
2FE0
32C0
0780
0F00
2D00
3C90
BF80
ENDCHAR
STARTCHAR Zdotaccent
ENCODING 379
SWIDTH 530 0
DWIDTH 7 0
BBX 8 13 0 0
BITMAP
00A0
0060
0000
1FFD
287C
00B4
01F0
03D0
0780
0F40
2E04
3D1C
BFF4
ENDCHAR
STARTCHAR zdotaccent
ENCODING 380
SWIDTH 428 0
DWIDTH 6 0
BBX 6 10 0 0
BITMAP
0280
0240
0000
2FE0
32C0
0780
0F00
2D00
3C90
BF80
ENDCHAR
STARTCHAR Zcaron
ENCODING 381
SWIDTH 542 0
DWIDTH 8 0
BBX 8 14 0 0
BITMAP
0086
0078
0020
0000
1FFD
287C
00B4
01F0
03D0
0780
0F40
2E04
3D1C
BFF4
ENDCHAR
STARTCHAR zcaron
ENCODING 382
SWIDTH 428 0
DWIDTH 6 0
BBX 7 10 0 0
BITMAP
0664
0280
0000
2FE0
32C0
0780
0F00
2D00
3C90
BF80
ENDCHAR
STARTCHAR longs
ENCODING 383
SWIDTH 267 0
DWIDTH 4 0
BBX 9 13 -3 -3
BITMAP
002E00
00B540
00F000
02F000
01E000
02D000
02D000
03C000
078000
0B8000
6B4000
8F0000
7D0000
ENDCHAR
STARTCHAR uni018F
ENCODING 399
SWIDTH 544 0
DWIDTH 8 0
BBX 8 10 0 0
BITMAP
0BE4
2FFC
143D
002E
06FD
1E7D
787C
B0B4
B1D0
2E40
ENDCHAR
STARTCHAR florin
ENCODING 402
SWIDTH 267 0
DWIDTH 4 0
BBX 10 13 -4 -3
BITMAP
0002E0
000F70
001D00
00BF80
003C00
007800
00B400
00F000
01E000
02D000
13C000
674000
7D0000
ENDCHAR
STARTCHAR Ohorn
ENCODING 416
SWIDTH 665 0
DWIDTH 9 0
BBX 10 12 0 0
BITMAP
000030
000070
02BEA0
1D53C0
72C2C0
A782C0
5F42C0
1F03C0
1E0780
1E0F00
1E6D00
0BE400
ENDCHAR
STARTCHAR ohorn
ENCODING 417
SWIDTH 439 0
DWIDTH 6 0
BBX 7 9 0 0
BITMAP
0018
0018
1BB4
7C90
B490
F0D0
F0C0
F280
7D00
ENDCHAR
STARTCHAR Uhorn
ENCODING 431
SWIDTH 716 0
DWIDTH 10 0
BBX 12 13 0 0
BITMAP
000003
000003
000005
06E0B4
25D0B0
A2D0F0
D3C1E0
5781E0
0B42D0
0B03C0
0F0780
0B9F00
06F900
ENDCHAR
STARTCHAR uhorn
ENCODING 432
SWIDTH 505 0
DWIDTH 7 0
BBX 8 10 0 0
BITMAP
0005
000A
0009
3CB4
78F0
B4F0
B5E0
F2D1
F7E9
B9F4
ENDCHAR
STARTCHAR uni01B7
ENCODING 439
SWIDTH 555 0
DWIDTH 8 0
BBX 8 10 0 0
BITMAP
1FFE
2C78
00F0
02D0
03E0
00B8
007C
607C
A0F4
6F90
ENDCHAR
STARTCHAR uni01CD
ENCODING 461
SWIDTH 668 0
DWIDTH 9 0
BBX 12 16 0 -2
BITMAP
000085
0000B4
000060
000000
0006E0
001AD0
0073D0
0093C0
2FE780
A34B40
5B0B40
0E0F00
1D1E00
2C1E00
2C0000
040000
ENDCHAR
STARTCHAR uni01CE
ENCODING 462
SWIDTH 526 0
DWIDTH 7 0
BBX 8 10 0 0
BITMAP
0158
00D0
0000
1BB8
7CB4
B4B4
F0F0
F1E1
F6E5
B9B8
ENDCHAR
STARTCHAR uni01CF
ENCODING 463
SWIDTH 375 0
DWIDTH 5 0
BBX 8 14 0 0
BITMAP
0049
00F4
0090
0000
06D0
26D0
A3C0
D780
5780
0B40
0F00
0F00
1E00
2D00
ENDCHAR
STARTCHAR uni01D0
ENCODING 464
SWIDTH 267 0
DWIDTH 4 0
BBX 5 10 0 0
BITMAP
2640
1D00
0000
3C00
7800
B400
B400
F100
F600
B800
ENDCHAR
STARTCHAR uni01D1
ENCODING 465
SWIDTH 665 0
DWIDTH 9 0
BBX 10 14 0 0
BITMAP
000490
000F40
000900
000000
02BE00
1D5380
72C2C0
A782C0
5F42C0
1F03C0
1E0780
1E0F00
1E6D00
0BE400
ENDCHAR
STARTCHAR uni01D2
ENCODING 466
SWIDTH 433 0
DWIDTH 6 0
BBX 9 10 -1 0
BITMAP
015800
00E000
004000
06E000
1E3440
2D3A00
3C3400
7C7000
7DD000
2F4000
ENDCHAR
STARTCHAR uni01D3
ENCODING 467
SWIDTH 716 0
DWIDTH 10 0
BBX 11 14 0 0
BITMAP
000560
000380
000100
000000
06E0B4
25D0B4
A2D0F0
D3C1E0
5781E0
0B42D0
0B03C0
0F0780
0B9F00
06F900
ENDCHAR
STARTCHAR uni01D4
ENCODING 468
SWIDTH 505 0
DWIDTH 7 0
BBX 8 10 0 0
BITMAP
0264
0280
0000
3CB4
78F0
B4F0
B5E0
F2D1
F7E9
B9F4
ENDCHAR
STARTCHAR uni01D5
ENCODING 469
SWIDTH 716 0
DWIDTH 10 0
BBX 11 14 0 0
BITMAP
001FF0
001860
0028A0
000000
06E0B4
25D0B4
A2D0F0
D3C1E0
5781E0
0B42D0
0B03C0
0F0780
0B9F00
06F900
ENDCHAR
STARTCHAR uni01D6
ENCODING 470
SWIDTH 505 0
DWIDTH 7 0
BBX 8 12 0 0
BITMAP
0BF8
0000
0D70
0960
0000
3CB4
78F0
B4F0
B5E0
F2D1
F7E9
B9F4
ENDCHAR
STARTCHAR uni01D7
ENCODING 471
SWIDTH 716 0
DWIDTH 10 0
BBX 11 14 0 0
BITMAP
0001C0
007374
002624
000000
06E0B4
25D0B4
A2D0F0
D3C1E0
5781E0
0B42D0
0B03C0
0F0780
0B9F00
06F900
ENDCHAR
STARTCHAR uni01D8
ENCODING 472
SWIDTH 505 0
DWIDTH 7 0
BBX 8 13 0 0
BITMAP
0070
00D0
0040
0D70
0960
0000
3CB4
78F0
B4F0
B5E0
F2D1
F7E9
B9F4
ENDCHAR
STARTCHAR uni01D9
ENCODING 473
SWIDTH 716 0
DWIDTH 10 0
BBX 11 14 0 0
BITMAP
000450
007B74
001114
000000
06E0B4
25D0B4
A2D0F0
D3C1E0
5781E0
0B42D0
0B03C0
0F0780
0B9F00
06F900
ENDCHAR
STARTCHAR uni01DA
ENCODING 474
SWIDTH 505 0
DWIDTH 7 0
BBX 8 13 0 0
BITMAP
0104
02A0
0180
0D70
0960
0000
3CB4
78F0
B4F0
B5E0
F2D1
F7E9
B9F4
ENDCHAR
STARTCHAR uni01DB
ENCODING 475
SWIDTH 716 0
DWIDTH 10 0
BBX 11 14 0 0
BITMAP
000700
007774
002264
000000
06E0B4
25D0B4
A2D0F0
D3C1E0
5781E0
0B42D0
0B03C0
0F0780
0B9F00
06F900
ENDCHAR
STARTCHAR uni01DC
ENCODING 476
SWIDTH 505 0
DWIDTH 7 0
BBX 8 13 0 0
BITMAP
0740
0340
0240
0D70
0960
0000
3CB4
78F0
B4F0
B5E0
F2D1
F7E9
B9F4
ENDCHAR
STARTCHAR uni01E4
ENCODING 484
SWIDTH 601 0
DWIDTH 8 0
BBX 8 13 0 -3
BITMAP
06F9
1F4B
3D0A
B800
B409
B4AE
787C
1E7C
0078
1A74
34B0
34E0
1B80
ENDCHAR
STARTCHAR uni01E5
ENCODING 485
SWIDTH 507 0
DWIDTH 7 0
BBX 8 10 0 -3
BITMAP
1BB8
7CB4
B4B4
F0F0
F1E0
F2E5
BBE8
0BD0
7BE0
2F40
ENDCHAR
STARTCHAR Gcaron
ENCODING 486
SWIDTH 578 0
DWIDTH 8 0
BBX 9 17 0 -3
BITMAP
002240
002D00
000400
000000
06F900
1F4B00
3D0A00
B80000
B40900
B41D00
787D00
1EBC00
007800
1A7400
34B000
34E000
1B8000
ENDCHAR
STARTCHAR gcaron
ENCODING 487
SWIDTH 507 0
DWIDTH 7 0
BBX 8 13 0 -3
BITMAP
0158
00D0
0000
1BB8
7CB4
B4B4
F0F0
F1E0
F2E5
BBE4
07C0
2780
2E00
ENDCHAR
STARTCHAR uni01E8
ENCODING 488
SWIDTH 601 0
DWIDTH 8 0
BBX 10 15 0 0
BITMAP
000410
000A80
000600
000000
000000
06D280
26D600
A3DC00
D7E000
57F900
0B5E00
0F1E00
0F2D00
1E3C00
2D2C00
ENDCHAR
STARTCHAR uni01E9
ENCODING 489
SWIDTH 518 0
DWIDTH 7 0
BBX 9 13 -1 0
BITMAP
000140
002A00
002400
064000
0B4000
0F0000
0F1800
1EA000
2FF400
2D7800
3C7840
787940
783E00
ENDCHAR
STARTCHAR uni01EA
ENCODING 490
SWIDTH 665 0
DWIDTH 9 0
BBX 9 17 0 -3
BITMAP
00A000
006000
006000
000000
02BE00
1D5380
72C2C0
A782C0
5F42C0
1F03C0
1E0780
1E0F00
1E6D00
0BE400
060000
0A1000
078000
ENDCHAR
STARTCHAR uni01EB
ENCODING 491
SWIDTH 433 0
DWIDTH 6 0
BBX 9 10 -1 -3
BITMAP
06E000
1E3440
2D7900
3C3400
7C7000
7C9000
2F4000
180000
240000
1E0000
ENDCHAR
STARTCHAR uni01EE
ENCODING 494
SWIDTH 525 0
DWIDTH 7 0
BBX 8 14 0 0
BITMAP
0041
00A8
0060
0000
1FFE
2C78
00F0
02D0
03E0
00B8
007C
607C
A0F4
6F90
ENDCHAR
STARTCHAR uni01EF
ENCODING 495
SWIDTH 600 0
DWIDTH 8 0
BBX 7 14 0 -3
BITMAP
0014
02A0
0240
0000
2FD0
6380
0B40
1E00
2D04
0F14
0B90
6F00
9F00
B900
ENDCHAR
STARTCHAR uni01F4
ENCODING 500
SWIDTH 578 0
DWIDTH 8 0
BBX 8 17 0 -3
BITMAP
000A
000D
0028
0000
06F9
1F47
3D0A
B800
B409
B41D
787C
1EBC
0078
1A74
34B0
34E0
1B80
ENDCHAR
STARTCHAR uni01F5
ENCODING 501
SWIDTH 507 0
DWIDTH 7 0
BBX 8 13 0 -3
BITMAP
00A0
00C0
0040
1BB8
7CB4
B4B4
F0F0
F1E0
F2E5
BBE4
07C0
2780
2E00
ENDCHAR
STARTCHAR Aringacute
ENCODING 506
SWIDTH 668 0
DWIDTH 9 0
BBX 11 16 0 -2
BITMAP
000028
0000A0
0001A0
0001E0
0007E0
001AD0
0073C0
00D3C0
2FE780
A34B40
5B0B40
0E0F00
1D1E00
2C1E00
2C0000
040000
ENDCHAR
STARTCHAR aringacute
ENCODING 507
SWIDTH 526 0
DWIDTH 7 0
BBX 8 11 0 0
BITMAP
0060
0050
0210
01C0
1BB8
7CB4
B4B4
F0F0
F1E1
F6E5
B9B8
ENDCHAR
STARTCHAR AEacute
ENCODING 508
SWIDTH 764 0
DWIDTH 11 0
BBX 13 16 0 -2
BITMAP
00000D00
00001800
00002000
00000000
0006EA40
001AD000
0063C000
00D3C000
6BEBF800
A34B4000
0B0B4000
0E0F0000
1D1F0000
2C1FF800
2C000000
04000000
ENDCHAR
STARTCHAR aeacute
ENCODING 509
SWIDTH 650 0
DWIDTH 9 0
BBX 10 10 0 0
BITMAP
000A00
000C00
000000
1BEF80
10F980
00F640
6FF900
F5E010
F2E080
B9BA00
ENDCHAR
STARTCHAR Oslashacute
ENCODING 510
SWIDTH 658 0
DWIDTH 9 0
BBX 9 15 0 -1
BITMAP
000280
000700
000900
000000
06BD00
2AFB40
77E780
AB6380
5F2380
1E2780
1E5B40
2D9E00
1EBC00
0BE000
018000
ENDCHAR
STARTCHAR oslashacute
ENCODING 511
SWIDTH 428 0
DWIDTH 6 0
BBX 8 11 -1 -1
BITMAP
0028
0070
0040
06E9
0F24
2D74
3DB4
3E70
3D90
2E40
9000
ENDCHAR
STARTCHAR uni0200
ENCODING 512
SWIDTH 668 0
DWIDTH 9 0
BBX 10 16 0 -2
BITMAP
002580
001CD0
000560
000000
0006E0
001AD0
0073D0
0093C0
2FE780
A34B40
5B0B40
0E0F00
1D1E00
2C1E00
2C0000
040000
ENDCHAR
STARTCHAR uni0201
ENCODING 513
SWIDTH 526 0
DWIDTH 7 0
BBX 8 10 0 0
BITMAP
29C0
0C90
0520
1BB8
7CB4
B4B4
F0F0
F1E1
F6E5
B9B8
ENDCHAR
STARTCHAR uni0202
ENCODING 514
SWIDTH 668 0
DWIDTH 9 0
BBX 12 15 0 -2
BITMAP
0001B8
000A0D
000000
0006E0
001AD0
0073D0
0093C0
2FE780
A34B40
5B0B40
0E0F00
1D1E00
2C1E00
2C0000
040000
ENDCHAR
STARTCHAR uni0203
ENCODING 515
SWIDTH 526 0
DWIDTH 7 0
BBX 8 10 0 0
BITMAP
06F4
0D28
0000
1BB8
7CB4
B4B4
F0F0
F1E1
F6E5
B9B8
ENDCHAR
STARTCHAR uni0204
ENCODING 516
SWIDTH 459 0
DWIDTH 6 0
BBX 7 14 0 0
BITMAP
1DD0
0670
0214
0000
02F4
0B1C
0E18
0E00
0B40
2E00
BC00
F800
B814
6F90
ENDCHAR
STARTCHAR uni0205
ENCODING 517
SWIDTH 384 0
DWIDTH 5 0
BBX 6 10 0 0
BITMAP
A700
2680
1880
1B80
38C0
B680
FE00
F010
F580
7E00
ENDCHAR
STARTCHAR uni0206
ENCODING 518
SWIDTH 459 0
DWIDTH 6 0
BBX 8 14 0 0
BITMAP
00B9
034A
0000
0000
02F4
0B1C
0E18
0E00
0B40
2E00
BC00
F800
B814
6F90
ENDCHAR
STARTCHAR uni0207
ENCODING 519
SWIDTH 384 0
DWIDTH 5 0
BBX 6 10 0 0
BITMAP
1B90
34A0
0000
1B80
38C0
B680
FE00
F010
F040
7E00
ENDCHAR
STARTCHAR uni0208
ENCODING 520
SWIDTH 375 0
DWIDTH 5 0
BBX 6 14 0 0
BITMAP
29C0
0C90
0520
0000
02D0
63D0
93C0
9780
0B80
0B40
0F00
1F00
1E00
2D00
ENDCHAR
STARTCHAR uni0209
ENCODING 521
SWIDTH 267 0
DWIDTH 4 0
BBX 5 10 -1 0
BITMAP
DA00
6300
2140
0F00
1E00
2D00
2D00
3C40
3D80
2E00
ENDCHAR
STARTCHAR uni020A
ENCODING 522
SWIDTH 375 0
DWIDTH 5 0
BBX 7 13 0 0
BITMAP
02E4
0D1C
0000
06D0
26D0
A3C0
D780
5780
0B40
0F00
0F00
1E00
2D00
ENDCHAR
STARTCHAR uni020B
ENCODING 523
SWIDTH 267 0
DWIDTH 4 0
BBX 4 10 0 0
BITMAP
6E
D3
00
3C
78
B4
B4
F1
F6
B8
ENDCHAR
STARTCHAR uni020C
ENCODING 524
SWIDTH 665 0
DWIDTH 9 0
BBX 9 14 0 0
BITMAP
036800
018C00
009500
000000
02BE00
1D5380
72C2C0
A782C0
5F42C0
1F03C0
1E0780
1E0F00
1E6D00
0BE400
ENDCHAR
STARTCHAR uni020D
ENCODING 525
SWIDTH 433 0
DWIDTH 6 0
BBX 9 10 -1 0
BITMAP
29C000
0D9000
062000
06E000
1E3440
2D3A00
3C3400
7C7000
7DD000
2F4000
ENDCHAR
STARTCHAR uni020E
ENCODING 526
SWIDTH 665 0
DWIDTH 9 0
BBX 9 13 0 0
BITMAP
002F40
00A1C0
000000
02BE00
1D5380
72C2C0
A782C0
5F42C0
1F03C0
1E0780
1E0F00
1E6D00
0BE400
ENDCHAR
STARTCHAR uni020F
ENCODING 527
SWIDTH 433 0
DWIDTH 6 0
BBX 9 10 -1 0
BITMAP
02F400
0A1C00
000000
06E000
1E3440
2D7900
3C3400
7C7000
7C9000
2F4000
ENDCHAR
STARTCHAR uni0210
ENCODING 528
SWIDTH 601 0
DWIDTH 8 0
BBX 8 14 0 0
BITMAP
0DA0
0630
0214
0000
06F9
294B
A3C7
D79E
57FD
0B5E
0F1E
0F2D
1E3C
2D2C
ENDCHAR
STARTCHAR uni0211
ENCODING 529
SWIDTH 376 0
DWIDTH 5 0
BBX 7 10 -1 0
BITMAP
7740
19C0
0850
0FB4
1E74
2D00
2D00
3C00
7800
7800
ENDCHAR
STARTCHAR uni0212
ENCODING 530
SWIDTH 601 0
DWIDTH 8 0
BBX 8 14 0 0
BITMAP
00B9
034A
0000
0000
06F9
294B
A3C7
D79E
57FD
0B5E
0F1E
0F2D
1E3C
2D2C
ENDCHAR
STARTCHAR uni0213
ENCODING 531
SWIDTH 376 0
DWIDTH 5 0
BBX 7 10 -1 0
BITMAP
06F4
0D28
0000
0FB4
1E74
2D00
2D00
3C00
7800
7800
ENDCHAR
STARTCHAR uni0214
ENCODING 532
SWIDTH 716 0
DWIDTH 10 0
BBX 11 14 0 0
BITMAP
00AA00
007340
001580
000000
06E0B4
25D0B4
A2D0F0
D3C1E0
5781E0
0B42D0
0B03C0
0F0780
0B9F00
06F900
ENDCHAR
STARTCHAR uni0215
ENCODING 533
SWIDTH 505 0
DWIDTH 7 0
BBX 8 10 0 0
BITMAP
7740
2580
0880
3CB4
78F0
B4F0
B5E0
F2D1
F7E9
B9F4
ENDCHAR
STARTCHAR uni0216
ENCODING 534
SWIDTH 716 0
DWIDTH 10 0
BBX 11 13 0 0
BITMAP
000B90
003470
000000
06E0B4
25D0B4
A2D0F0
D3C1E0
5781E0
0B42D0
0B03C0
0F0780
0B9F00
06F900
ENDCHAR
STARTCHAR uni0217
ENCODING 535
SWIDTH 505 0
DWIDTH 7 0
BBX 8 10 0 0
BITMAP
0BE0
2834
0000
3CB4
78F0
B4F0
B5E0
F2D1
F7E9
B9F4
ENDCHAR
STARTCHAR Scommaaccent
ENCODING 536
SWIDTH 570 0
DWIDTH 8 0
BBX 8 13 0 -3
BITMAP
02F8
0B4A
0F4E
0B80
02E0
04F8
3D7C
703C
7478
1FE0
0500
0A00
0500
ENDCHAR
STARTCHAR scommaaccent
ENCODING 537
SWIDTH 382 0
DWIDTH 5 0
BBX 7 11 -1 -3
BITMAP
0040
07C0
0BD0
0AD0
16D0
72D4
52E0
2F40
0000
1C00
0800
ENDCHAR
STARTCHAR uni021A
ENCODING 538
SWIDTH 481 0
DWIDTH 7 0
BBX 10 14 0 -4
BITMAP
1AFAE0
74F000
A1E000
91E000
02D000
02C000
03C000
078000
078000
0B4000
000000
0A0000
060000
040000
ENDCHAR
STARTCHAR uni021B
ENCODING 539
SWIDTH 267 0
DWIDTH 4 0
BBX 4 13 0 -4
BITMAP
2D
3C
BE
78
B4
B4
F1
F6
B8
00
D0
90
40
ENDCHAR
STARTCHAR uni021E
ENCODING 542
SWIDTH 665 0
DWIDTH 9 0
BBX 10 15 0 0
BITMAP
000410
000A80
000600
000000
000000
06E1E0
26D2D0
A3C3C0
A3C3C0
57FF80
0B4B40
0B4B40
0F0F00
1E1E00
1E1E00
ENDCHAR
STARTCHAR uni021F
ENCODING 543
SWIDTH 600 0
DWIDTH 8 0
BBX 9 13 -1 0
BITMAP
001040
002A00
001800
064000
0B4000
0F0000
0FB800
1E3C00
2D3C00
2D7800
3C7400
78B540
787D00
ENDCHAR
STARTCHAR uni0237
ENCODING 567
SWIDTH 240 0
DWIDTH 3 0
BBX 7 10 -3 -3
BITMAP
00F0
01E0
02D0
02D0
03C4
0794
0B90
6F40
8F00
7D00
ENDCHAR
STARTCHAR uni0259
ENCODING 601
SWIDTH 404 0
DWIDTH 6 0
BBX 6 7 0 0
BITMAP
2F80
53D0
02D0
1BD0
A3C0
DB40
B900
ENDCHAR
STARTCHAR uni0292
ENCODING 658
SWIDTH 442 0
DWIDTH 6 0
BBX 7 10 0 -3
BITMAP
2FD0
6380
0B40
1E00
2D04
0F14
0B90
6F00
9F00
B900
ENDCHAR
STARTCHAR uni02BB
ENCODING 699
SWIDTH 241 0
DWIDTH 3 0
BBX 2 3 2 7
BITMAP
50
D0
D0
ENDCHAR
STARTCHAR uni02BC
ENCODING 700
SWIDTH 228 0
DWIDTH 3 0
BBX 2 3 2 8
BITMAP
A0
A0
40
ENDCHAR
STARTCHAR circumflex
ENCODING 710
SWIDTH 293 0
DWIDTH 4 0
BBX 4 3 0 8
BITMAP
01
1E
62
ENDCHAR
STARTCHAR caron
ENCODING 711
SWIDTH 294 0
DWIDTH 4 0
BBX 4 3 1 8
BITMAP
41
69
24
ENDCHAR
STARTCHAR uni02C9
ENCODING 713
SWIDTH 421 0
DWIDTH 6 0
BBX 5 1 2 8
BITMAP
FF40
ENDCHAR
STARTCHAR uni02CA
ENCODING 714
SWIDTH 256 0
DWIDTH 4 0
BBX 2 3 2 8
BITMAP
10
A0
80
ENDCHAR
STARTCHAR uni02CB
ENCODING 715
SWIDTH 274 0
DWIDTH 4 0
BBX 2 3 2 8
BITMAP
A0
70
30
ENDCHAR
STARTCHAR breve
ENCODING 728
SWIDTH 431 0
DWIDTH 6 0
BBX 5 2 1 8
BITMAP
D280
6A00
ENDCHAR
STARTCHAR dotaccent
ENCODING 729
SWIDTH 250 0
DWIDTH 4 0
BBX 2 2 1 8
BITMAP
F0
E0
ENDCHAR
STARTCHAR ring
ENCODING 730
SWIDTH 156 0
DWIDTH 2 0
BBX 2 2 0 7
BITMAP
A0
A0
ENDCHAR
STARTCHAR ogonek
ENCODING 731
SWIDTH 291 0
DWIDTH 4 0
BBX 4 3 0 -3
BITMAP
24
71
29
ENDCHAR
STARTCHAR tilde
ENCODING 732
SWIDTH 403 0
DWIDTH 6 0
BBX 5 2 1 8
BITMAP
1400
AF40
ENDCHAR
STARTCHAR hungarumlaut
ENCODING 733
SWIDTH 436 0
DWIDTH 6 0
BBX 5 3 1 8
BITMAP
2980
3240
9600
ENDCHAR
STARTCHAR gravecomb
ENCODING 768
SWIDTH 0 0
DWIDTH 0 0
BBX 3 3 -3 8
BITMAP
70
34
24
ENDCHAR
STARTCHAR acutecomb
ENCODING 769
SWIDTH 0 0
DWIDTH 0 0
BBX 3 3 -3 8
BITMAP
14
34
50
ENDCHAR
STARTCHAR uni0302
ENCODING 770
SWIDTH 0 0
DWIDTH 0 0
BBX 4 3 -4 8
BITMAP
01
1E
66
ENDCHAR
STARTCHAR tildecomb
ENCODING 771
SWIDTH 0 0
DWIDTH 0 0
BBX 5 2 -5 8
BITMAP
1500
6F80
ENDCHAR
STARTCHAR uni0304
ENCODING 772
SWIDTH 0 0
DWIDTH 0 0
BBX 5 1 -4 8
BITMAP
FF40
ENDCHAR
STARTCHAR uni0306
ENCODING 774
SWIDTH 0 0
DWIDTH 0 0
BBX 6 2 -5 8
BITMAP
70D0
2E40
ENDCHAR
STARTCHAR uni0307
ENCODING 775
SWIDTH 0 0
DWIDTH 0 0
BBX 3 2 -2 8
BITMAP
B4
74
ENDCHAR
STARTCHAR uni0308
ENCODING 776
SWIDTH 0 0
DWIDTH 0 0
BBX 5 2 -4 8
BITMAP
6240
A340
ENDCHAR
STARTCHAR hookabovecomb
ENCODING 777
SWIDTH 0 0
DWIDTH 0 0
BBX 3 3 -3 8
BITMAP
B4
18
90
ENDCHAR
STARTCHAR uni030A
ENCODING 778
SWIDTH 0 0
DWIDTH 0 0
BBX 3 2 -2 7
BITMAP
64
A4
ENDCHAR
STARTCHAR uni030B
ENCODING 779
SWIDTH 0 0
DWIDTH 0 0
BBX 5 3 -4 8
BITMAP
3640
A700
8900
ENDCHAR
STARTCHAR uni030C
ENCODING 780
SWIDTH 0 0
DWIDTH 0 0
BBX 4 3 -3 8
BITMAP
05
A8
90
ENDCHAR
STARTCHAR uni030F
ENCODING 783
SWIDTH 0 0
DWIDTH 0 0
BBX 5 3 -5 8
BITMAP
6700
2680
1880
ENDCHAR
STARTCHAR uni0311
ENCODING 785
SWIDTH 0 0
DWIDTH 0 0
BBX 5 2 -5 8
BITMAP
2F40
A1C0
ENDCHAR
STARTCHAR uni031B
ENCODING 795
SWIDTH 0 0
DWIDTH 0 0
BBX 3 3 -2 6
BITMAP
24
30
50
ENDCHAR
STARTCHAR dotbelowcomb
ENCODING 803
SWIDTH 0 0
DWIDTH 0 0
BBX 3 2 -3 -3
BITMAP
74
74
ENDCHAR
STARTCHAR uni0324
ENCODING 804
SWIDTH 0 0
DWIDTH 0 0
BBX 4 2 -6 -3
BITMAP
96
D7
ENDCHAR
STARTCHAR uni0326
ENCODING 806
SWIDTH 0 0
DWIDTH 0 0
BBX 2 2 -4 -3
BITMAP
70
30
ENDCHAR
STARTCHAR uni0327
ENCODING 807
SWIDTH 0 0
DWIDTH 0 0
BBX 3 4 -5 -3
BITMAP
20
68
1C
64
ENDCHAR
STARTCHAR uni0328
ENCODING 808
SWIDTH 0 0
DWIDTH 0 0
BBX 3 3 -5 -3
BITMAP
50
D0
B8
ENDCHAR
STARTCHAR uni032E
ENCODING 814
SWIDTH 0 0
DWIDTH 0 0
BBX 4 2 -6 -3
BITMAP
D7
69
ENDCHAR
STARTCHAR uni0331
ENCODING 817
SWIDTH 0 0
DWIDTH 0 0
BBX 5 1 -7 -2
BITMAP
7FC0
ENDCHAR
STARTCHAR uni0335
ENCODING 821
SWIDTH 0 0
DWIDTH 0 0
BBX 6 1 -6 3
BITMAP
7FD0
ENDCHAR
STARTCHAR uni0394
ENCODING 916
SWIDTH 619 0
DWIDTH 9 0
BBX 9 11 0 0
BITMAP
001400
003D00
006D00
00DE00
028A00
070B00
0A0700
1C0700
340740
600340
BFFF80
ENDCHAR
STARTCHAR uni03A9
ENCODING 937
SWIDTH 745 0
DWIDTH 10 0
BBX 10 11 0 0
BITMAP
006F40
02D6D0
0600A0
0D0060
1800A0
2800A0
2800D0
280180
1C0300
090900
7F2FC0
ENDCHAR
STARTCHAR uni03BC
ENCODING 956
SWIDTH 505 0
DWIDTH 7 0
BBX 9 10 -1 -3
BITMAP
0A2900
1E3C00
2D3C00
2D7800
3CB800
3CF540
7F7E00
B80000
B40000
500000
ENDCHAR
STARTCHAR pi
ENCODING 960
SWIDTH 530 0
DWIDTH 7 0
BBX 8 7 0 0
BITMAP
FFFD
3460
30A0
60D0
A0C0
91C0
8090
ENDCHAR
STARTCHAR uni0400
ENCODING 1024
SWIDTH 459 0
DWIDTH 6 0
BBX 7 14 0 0
BITMAP
00D0
0090
0050
0000
02F4
0B1C
0E18
0E00
0B40
2E00
BC00
F800
B814
6F90
ENDCHAR
STARTCHAR uni0401
ENCODING 1025
SWIDTH 459 0
DWIDTH 6 0
BBX 8 13 0 0
BITMAP
0189
028D
0000
02F4
0B1C
0E18
0E00
0B40
2E00
BC00
F800
B814
6F90
ENDCHAR
STARTCHAR uni0402
ENCODING 1026
SWIDTH 725 0
DWIDTH 10 0
BBX 10 13 0 -3
BITMAP
0AFFE0
74F000
A0F000
A1E000
52FB80
02D3C0
03C3C0
07C3C0
078780
0B4740
000B00
001D00
00B400
ENDCHAR
STARTCHAR uni0403
ENCODING 1027
SWIDTH 400 0
DWIDTH 6 0
BBX 9 14 0 0
BITMAP
000140
000700
000800
000000
0AFF80
72D000
A3C000
A78000
178000
0B4000
0B4000
0F0000
1E0000
1E0000
ENDCHAR
STARTCHAR uni0404
ENCODING 1028
SWIDTH 497 0
DWIDTH 7 0
BBX 8 10 0 0
BITMAP
02F8
0F49
2E0D
3D00
7FD0
B800
B800
B800
7C08
2F90
ENDCHAR
STARTCHAR uni0405
ENCODING 1029
SWIDTH 570 0
DWIDTH 8 0
BBX 8 10 0 0
BITMAP
02F8
0B4A
0F4E
0B80
02E0
04F8
3D7C
703C
7478
1FE0
ENDCHAR
STARTCHAR uni0406
ENCODING 1030
SWIDTH 374 0
DWIDTH 5 0
BBX 6 10 0 0
BITMAP
06E0
26D0
A3C0
A3C0
5780
0B40
0B40
0F00
1E00
1E00
ENDCHAR
STARTCHAR uni0407
ENCODING 1031
SWIDTH 375 0
DWIDTH 5 0
BBX 7 13 0 0
BITMAP
0218
0368
0000
06D0
26D0
A3C0
D780
5780
0B40
0F00
0F00
1E00
2D00
ENDCHAR
STARTCHAR uni0408
ENCODING 1032
SWIDTH 536 0
DWIDTH 8 0
BBX 8 13 0 -3
BITMAP
002F
019E
035E
072D
023C
003C
0078
00B4
00F4
29F0
A1E0
A2D0
2E40
ENDCHAR
STARTCHAR uni0409
ENCODING 1033
SWIDTH 817 0
DWIDTH 11 0
BBX 12 12 -1 -2
BITMAP
000BC0
002780
009780
028B40
074FB8
0A0F1E
1D1E0F
2C2D0E
382D1D
743DF4
740000
100000
ENDCHAR
STARTCHAR uni040A
ENCODING 1034
SWIDTH 931 0
DWIDTH 13 0
BBX 13 10 0 0
BITMAP
06E1E000
2AD2D000
A3C3C000
A3C3C000
57FFEE00
0B4B4B40
0B4B4780
0F0F0B40
1E1E0F00
1E1EB900
ENDCHAR
STARTCHAR uni040B
ENCODING 1035
SWIDTH 745 0
DWIDTH 10 0
BBX 10 10 0 0
BITMAP
0AFFE0
74F000
A0F000
A1E000
52FB80
02D3C0
03C3C0
07C3C0
078780
0B4780
ENDCHAR
STARTCHAR uni040C
ENCODING 1036
SWIDTH 635 0
DWIDTH 9 0
BBX 10 14 0 0
BITMAP
000140
000700
000800
000000
06E2D0
2ADA90
A3E400
A3E000
57F900
0B5E00
0B5E00
0F2D00
1E2C00
1E2D00
ENDCHAR
STARTCHAR uni040D
ENCODING 1037
SWIDTH 705 0
DWIDTH 10 0
BBX 11 14 0 0
BITMAP
001C00
000D00
000900
000000
06E0F4
26D2F0
A3C7E0
A3CBD0
579AD0
0B77C0
0BA780
0FC780
1F4B40
1E0F00
ENDCHAR
STARTCHAR uni040E
ENCODING 1038
SWIDTH 644 0
DWIDTH 9 0
BBX 10 13 0 0
BITMAP
002850
001A40
000000
06E020
29F090
A0F4C0
A0B540
507B00
003E00
002C00
002800
03A400
02D000
ENDCHAR
STARTCHAR uni040F
ENCODING 1039
SWIDTH 665 0
DWIDTH 9 0
BBX 10 15 0 -5
BITMAP
06E1E0
26D2D0
A3C3C0
A7C3C0
578780
0B4B40
0B4B40
0F0F00
1E1E00
1FFE00
014000
038000
02D000
01C000
004000
ENDCHAR
STARTCHAR uni0410
ENCODING 1040
SWIDTH 668 0
DWIDTH 9 0
BBX 10 12 0 -2
BITMAP
0006E0
001AD0
0073D0
0093C0
2FE780
A34B40
5B0B40
0E0F00
1D1E00
2C1E00
2C0000
040000
ENDCHAR
STARTCHAR uni0411
ENCODING 1041
SWIDTH 638 0
DWIDTH 9 0
BBX 9 10 0 0
BITMAP
0BFF80
63C000
A7C000
D78000
5BA900
0F4F00
0F0B40
1E0B00
1E0E00
2DB800
ENDCHAR
STARTCHAR uni0412
ENCODING 1042
SWIDTH 641 0
DWIDTH 9 0
BBX 9 10 0 0
BITMAP
06F900
294700
73C700
A3CE00
57FE00
0B4B40
0B4B40
0F0B40
1E0E00
1EB800
ENDCHAR
STARTCHAR uni0413
ENCODING 1043
SWIDTH 400 0
DWIDTH 6 0
BBX 9 10 0 0
BITMAP
0AFF80
72D000
A3C000
A78000
178000
0B4000
0B4000
0F0000
1E0000
1E0000
ENDCHAR
STARTCHAR uni0414
ENCODING 1044
SWIDTH 669 0
DWIDTH 9 0
BBX 10 10 -1 0
BITMAP
01BF40
0E55D0
28F0F0
29F0F0
02E0F0
02D0F0
2FD1E0
67C2D0
578780
2E6E00
ENDCHAR
STARTCHAR uni0415
ENCODING 1045
SWIDTH 459 0
DWIDTH 6 0
BBX 7 10 0 0
BITMAP
02F4
0B1C
0E18
0E00
0B40
2E00
BC00
F800
B814
6F90
ENDCHAR
STARTCHAR uni0416
ENCODING 1046
SWIDTH 777 0
DWIDTH 11 0
BBX 13 10 -1 0
BITMAP
07868B40
06DB6A40
005F6000
006F8000
06FFF400
0F2D7800
1E2D7800
1D3C7400
2D78B000
7878B400
ENDCHAR
STARTCHAR uni0417
ENCODING 1047
SWIDTH 525 0
DWIDTH 7 0
BBX 7 10 0 0
BITMAP
06E4
147C
007C
00F4
0BD0
00F4
00B8
90B4
D1F0
7F80
ENDCHAR
STARTCHAR uni0418
ENCODING 1048
SWIDTH 705 0
DWIDTH 10 0
BBX 11 10 0 0
BITMAP
06E0F4
26D2F0
A3C7E0
A3CBD0
579AD0
0B77C0
0BA780
0FC780
1F4B40
1E0F00
ENDCHAR
STARTCHAR uni0419
ENCODING 1049
SWIDTH 705 0
DWIDTH 10 0
BBX 11 13 0 0
BITMAP
003890
002E40
000000
06E0F4
26D2F0
A3C7E0
A3CBD0
579AD0
0B77C0
0BA780
0FC780
1F4B40
1E0F00
ENDCHAR
STARTCHAR uni041A
ENCODING 1050
SWIDTH 635 0
DWIDTH 9 0
BBX 10 10 0 0
BITMAP
06E2D0
2ADA90
A3E400
A3E000
57F900
0B5E00
0B5E00
0F2D00
1E2C00
1E2D00
ENDCHAR
STARTCHAR uni041B
ENCODING 1051
SWIDTH 549 0
DWIDTH 8 0
BBX 9 12 -1 -2
BITMAP
000BC0
002B80
009780
028B40
074F00
0A0F00
1D1E00
2C2D00
382D00
743C00
740000
100000
ENDCHAR
STARTCHAR uni041C
ENCODING 1052
SWIDTH 787 0
DWIDTH 11 0
BBX 11 10 1 0
BITMAP
06D0F4
27D1F0
97D3F0
DBD7E0
5EDAE0
1ADED0
26EAD0
32F3C0
62E3C0
D3D3C0
ENDCHAR
STARTCHAR uni041D
ENCODING 1053
SWIDTH 665 0
DWIDTH 9 0
BBX 10 10 0 0
BITMAP
06E1E0
26D2D0
A3C3C0
A3C3C0
57FF80
0B4B40
0B4B40
0F0F00
1E1E00
1E1E00
ENDCHAR
STARTCHAR uni041E
ENCODING 1054
SWIDTH 665 0
DWIDTH 9 0
BBX 9 10 0 0
BITMAP
02BE00
1D5380
72C2C0
A782C0
5F42C0
1F03C0
1E0780
1E0F00
1E6D00
0BE400
ENDCHAR
STARTCHAR uni041F
ENCODING 1055
SWIDTH 688 0
DWIDTH 10 0
BBX 11 10 0 0
BITMAP
1AEBF8
72D2D0
A3C3C0
978780
078780
0B4B40
0F0B40
0F0F00
1E1E00
1E1E00
ENDCHAR
STARTCHAR uni0420
ENCODING 1056
SWIDTH 573 0
DWIDTH 8 0
BBX 9 10 0 0
BITMAP
06F900
294B00
A3C740
D78700
578A00
0BA800
0F4000
0F0000
1E0000
2D0000
ENDCHAR
STARTCHAR uni0421
ENCODING 1057
SWIDTH 497 0
DWIDTH 7 0
BBX 8 10 0 0
BITMAP
02F8
0F49
2E0D
3D04
7C00
B800
B800
B800
7C08
2F90
ENDCHAR
STARTCHAR uni0422
ENCODING 1058
SWIDTH 481 0
DWIDTH 7 0
BBX 10 10 0 0
BITMAP
1AFAE0
74F000
A1E000
91E000
02D000
02C000
03C000
078000
078000
0B4000
ENDCHAR
STARTCHAR uni0423
ENCODING 1059
SWIDTH 644 0
DWIDTH 9 0
BBX 10 10 0 0
BITMAP
06E020
29F090
A0F4C0
A0B540
507B00
003E00
002C00
002800
03A400
02D000
ENDCHAR
STARTCHAR uni0424
ENCODING 1060
SWIDTH 786 0
DWIDTH 11 0
BBX 11 11 0 0
BITMAP
06FD00
1D2D00
082D00
057E90
2878B4
747878
B4B474
B4F0B4
79F2D0
1BFE40
02D000
ENDCHAR
STARTCHAR uni0425
ENCODING 1061
SWIDTH 620 0
DWIDTH 9 0
BBX 9 10 0 0
BITMAP
06E240
29F200
A1F900
D0F800
50B800
00B800
00FC00
027D00
063D00
082E00
ENDCHAR
STARTCHAR uni0426
ENCODING 1062
SWIDTH 692 0
DWIDTH 10 0
BBX 10 12 0 -2
BITMAP
06E1E0
2AD2D0
A3C3C0
A3C3C0
578780
0B4B40
0B4B40
0F0F00
1E1E00
1FEE00
006FA0
0007D0
ENDCHAR
STARTCHAR uni0427
ENCODING 1063
SWIDTH 695 0
DWIDTH 10 0
BBX 10 10 0 0
BITMAP
06E0F0
2AD1E0
A3C1E0
A3C2D0
53C3C0
02FBC0
000780
000B40
000B40
000F00
ENDCHAR
STARTCHAR uni0428
ENCODING 1064
SWIDTH 906 0
DWIDTH 13 0
BBX 13 10 0 0
BITMAP
06E3D3C0
26D3C780
A3C78780
A7CB8B40
578B4F00
0B4F0F00
0B5F1E00
0F1E2D00
1E2D2D00
1FFFFC00
ENDCHAR
STARTCHAR uni0429
ENCODING 1065
SWIDTH 934 0
DWIDTH 13 0
BBX 14 12 0 -2
BITMAP
06E3D3C0
2AD3C780
A3C78780
A3CB8B40
578B4F00
0B4F0F00
0B5F1E00
0F1E2D00
1E2D2C00
1FFD7C00
005BFE90
00006F80
ENDCHAR
STARTCHAR uni042A
ENCODING 1066
SWIDTH 714 0
DWIDTH 10 0
BBX 10 10 0 0
BITMAP
06F800
20B400
A0F000
A0F000
61FB80
02D2D0
02D1D0
03C2D0
0783C0
07AE00
ENDCHAR
STARTCHAR uni042B
ENCODING 1067
SWIDTH 909 0
DWIDTH 13 0
BBX 13 10 0 0
BITMAP
06E003C0
2AD00780
A3C00780
A3C00B40
57ED0F00
0B4B4F00
0B475E00
0F0B6D00
1E0F2D00
1EB83C00
ENDCHAR
STARTCHAR uni042C
ENCODING 1068
SWIDTH 640 0
DWIDTH 9 0
BBX 9 10 0 0
BITMAP
06E000
2AD000
A3C000
A3C000
57ED00
0B4B40
0B4740
0F0B40
1E0F00
1EB800
ENDCHAR
STARTCHAR uni042D
ENCODING 1069
SWIDTH 544 0
DWIDTH 8 0
BBX 8 10 0 0
BITMAP
06F4
107C
103D
003D
0BFD
003C
0078
90F4
D2E0
6A40
ENDCHAR
STARTCHAR uni042E
ENCODING 1070
SWIDTH 946 0
DWIDTH 13 0
BBX 13 10 0 0
BITMAP
06E1BE00
2AD19780
A3C3C2C0
A3CB42C0
57FF03C0
0B5E0380
0B5E0740
0F2E0F00
1E1E2D00
1E0BE400
ENDCHAR
STARTCHAR uni042F
ENCODING 1071
SWIDTH 630 0
DWIDTH 9 0
BBX 11 10 -1 0
BITMAP
00AFA0
038678
070F64
075F00
07FE00
0F6E00
1E3D00
1D3C00
2D7800
787800
ENDCHAR
STARTCHAR uni0430
ENCODING 1072
SWIDTH 526 0
DWIDTH 7 0
BBX 8 7 0 0
BITMAP
1BB8
7CB4
B4B4
F0F0
F1E1
F6E5
B9B8
ENDCHAR
STARTCHAR uni0431
ENCODING 1073
SWIDTH 430 0
DWIDTH 6 0
BBX 8 10 0 0
BITMAP
07FE
0BFC
0240
1B80
7C90
B490
F0D0
F1C0
F280
7E00
ENDCHAR
STARTCHAR uni0432
ENCODING 1074
SWIDTH 449 0
DWIDTH 6 0
BBX 9 10 -1 0
BITMAP
01F400
039800
0B1400
0E2000
2EA540
2DF800
3C3400
7C3400
3C6000
1F8000
ENDCHAR
STARTCHAR uni0433
ENCODING 1075
SWIDTH 375 0
DWIDTH 5 0
BBX 7 7 -1 0
BITMAP
0BD0
21E0
12E0
1F80
3D04
7C10
2F80
ENDCHAR
STARTCHAR uni0434
ENCODING 1076
SWIDTH 507 0
DWIDTH 7 0
BBX 8 10 0 -3
BITMAP
1BB8
7CB4
B4B4
F0F0
F1E0
F2E5
BBE4
07C0
2780
2E00
ENDCHAR
STARTCHAR uni0435
ENCODING 1077
SWIDTH 384 0
DWIDTH 5 0
BBX 6 7 0 0
BITMAP
1B80
38C0
B680
FE00
F010
F040
7E00
ENDCHAR
STARTCHAR uni0436
ENCODING 1078
SWIDTH 882 0
DWIDTH 12 0
BBX 14 7 -1 0
BITMAP
0B878B80
21DB5CC0
01DB7840
01FFF400
12DE7410
639D7450
7A2D2E40
ENDCHAR
STARTCHAR uni0437
ENCODING 1079
SWIDTH 498 0
DWIDTH 7 0
BBX 8 10 0 -3
BITMAP
1BD0
21F0
81F0
42D0
1F45
0798
07D0
2BC0
2780
2E00
ENDCHAR
STARTCHAR uni0438
ENCODING 1080
SWIDTH 505 0
DWIDTH 7 0
BBX 8 7 0 0
BITMAP
3CB4
78F0
B4F0
B5E0
F2D1
F7E9
B9F4
ENDCHAR
STARTCHAR uni0439
ENCODING 1081
SWIDTH 505 0
DWIDTH 7 0
BBX 8 9 0 0
BITMAP
0D20
0B90
3CB4
78F0
B4F0
B5E0
F2D1
F7E9
B9F4
ENDCHAR
STARTCHAR uni043A
ENCODING 1082
SWIDTH 501 0
DWIDTH 7 0
BBX 9 7 -1 0
BITMAP
0F1E00
1EA900
2FE000
2DB400
3CB440
78BA00
787D00
ENDCHAR
STARTCHAR uni043B
ENCODING 1083
SWIDTH 558 0
DWIDTH 8 0
BBX 9 7 -1 0
BITMAP
007F00
008F00
015E00
025D00
022D00
722C40
691E40
ENDCHAR
STARTCHAR uni043C
ENCODING 1084
SWIDTH 827 0
DWIDTH 12 0
BBX 13 7 -1 0
BITMAP
00782E00
00B83E00
017CBD00
026CAC00
122E7C40
622E3D80
292D2E00
ENDCHAR
STARTCHAR uni043D
ENCODING 1085
SWIDTH 507 0
DWIDTH 7 0
BBX 9 7 -1 0
BITMAP
0F2D00
1E2C00
2D3C00
2FF800
3C7800
78B540
787D00
ENDCHAR
STARTCHAR uni043E
ENCODING 1086
SWIDTH 439 0
DWIDTH 6 0
BBX 8 7 0 0
BITMAP
1B80
3C91
B4E8
F0D0
F0C0
F280
7E00
ENDCHAR
STARTCHAR uni043F
ENCODING 1087
SWIDTH 505 0
DWIDTH 7 0
BBX 9 7 -1 0
BITMAP
0FB800
1E3C00
2D3C00
2D7800
3C7400
78B540
787D00
ENDCHAR
STARTCHAR uni0440
ENCODING 1088
SWIDTH 468 0
DWIDTH 7 0
BBX 8 12 -1 -4
BITMAP
0500
0FB8
1E2C
2D2D
2D3C
3C78
7DB4
7FD0
B400
F000
F000
4000
ENDCHAR
STARTCHAR uni0441
ENCODING 1089
SWIDTH 384 0
DWIDTH 5 0
BBX 6 7 0 0
BITMAP
1B80
3CC0
B440
F000
F000
F050
7E40
ENDCHAR
STARTCHAR uni0442
ENCODING 1090
SWIDTH 752 0
DWIDTH 11 0
BBX 12 7 -1 0
BITMAP
0FBAF0
1E3DB4
2D7CB4
2D78F4
3CB4F0
78B4F2
78F0B8
ENDCHAR
STARTCHAR uni0443
ENCODING 1091
SWIDTH 486 0
DWIDTH 7 0
BBX 7 10 0 -3
BITMAP
3CB4
78F0
B4F0
B5E0
F2D0
F7D8
BBD0
1B80
6B40
3E00
ENDCHAR
STARTCHAR uni0444
ENCODING 1092
SWIDTH 738 0
DWIDTH 10 0
BBX 10 13 0 -3
BITMAP
001800
003C00
007800
1BBBD0
7CB5E0
B4B1E0
F0E1E0
F1E2D0
F2D3C0
BBFE00
03C000
038000
074000
ENDCHAR
STARTCHAR uni0445
ENCODING 1093
SWIDTH 522 0
DWIDTH 7 0
BBX 8 7 0 0
BITMAP
0B58
238C
53E4
83D0
47C0
1AD1
60B4
ENDCHAR
STARTCHAR uni0446
ENCODING 1094
SWIDTH 535 0
DWIDTH 7 0
BBX 7 10 0 -3
BITMAP
3CB4
78F0
B4F0
B5E0
F2D0
F7E4
B9F8
0AF4
1FD0
1000
ENDCHAR
STARTCHAR uni0447
ENCODING 1095
SWIDTH 505 0
DWIDTH 7 0
BBX 8 7 0 0
BITMAP
3CB4
78F0
B4F0
BAE0
7ED1
02E9
01F4
ENDCHAR
STARTCHAR uni0448
ENCODING 1096
SWIDTH 752 0
DWIDTH 11 0
BBX 11 7 0 0
BITMAP
3CB5E0
78F1E0
B4F2D0
B5E3C0
F2D3C4
F7EBD8
B9F6E0
ENDCHAR
STARTCHAR uni0449
ENCODING 1097
SWIDTH 782 0
DWIDTH 11 0
BBX 10 10 0 -3
BITMAP
3CB5E0
78F1E0
B4F2D0
B5E3C0
F2D3C0
F7EBD0
B9F6F0
001BE0
007F80
005000
ENDCHAR
STARTCHAR uni044A
ENCODING 1098
SWIDTH 448 0
DWIDTH 6 0
BBX 6 7 0 0
BITMAP
7E00
DC00
2ED0
B5E0
F1E0
F2D0
7E40
ENDCHAR
STARTCHAR uni044B
ENCODING 1099
SWIDTH 655 0
DWIDTH 9 0
BBX 10 7 0 0
BITMAP
780740
782F40
B6CF00
B0CE00
F1DE10
F79E90
7E0F40
ENDCHAR
STARTCHAR uni044C
ENCODING 1100
SWIDTH 448 0
DWIDTH 6 0
BBX 6 7 0 0
BITMAP
3C00
7800
BFD0
B5E0
F1E0
F6C0
7E40
ENDCHAR
STARTCHAR uni044D
ENCODING 1101
SWIDTH 413 0
DWIDTH 6 0
BBX 7 7 -1 0
BITMAP
0BD0
20F0
00F4
0BF0
11E0
92C0
7A00
ENDCHAR
STARTCHAR uni044E
ENCODING 1102
SWIDTH 675 0
DWIDTH 9 0
BBX 12 7 -1 0
BITMAP
0F0BD0
1E2D61
2D78B5
2FF4A0
3CF490
78B580
787E00
ENDCHAR
STARTCHAR uni044F
ENCODING 1103
SWIDTH 527 0
DWIDTH 7 0
BBX 9 7 -1 0
BITMAP
02FE00
0F2D00
0E2D00
07FC00
637840
767840
2D2E00
ENDCHAR
STARTCHAR uni0450
ENCODING 1104
SWIDTH 384 0
DWIDTH 5 0
BBX 6 11 0 0
BITMAP
0A00
0600
0300
0000
1B80
38C0
B680
FE00
F010
F040
7E00
ENDCHAR
STARTCHAR uni0451
ENCODING 1105
SWIDTH 384 0
DWIDTH 5 0
BBX 6 10 0 0
BITMAP
0960
0DA0
0000
1B80
38C0
B680
FE00
F010
F040
7E00
ENDCHAR
STARTCHAR uni0452
ENCODING 1106
SWIDTH 491 0
DWIDTH 7 0
BBX 9 13 -1 -3
BITMAP
064000
0B4000
2FE000
1F0000
1FB400
2E7800
2D7800
3CB440
78B600
79F400
0BE000
19D000
0B8000
ENDCHAR
STARTCHAR uni0453
ENCODING 1107
SWIDTH 375 0
DWIDTH 5 0
BBX 7 11 -1 0
BITMAP
0014
0070
0090
0000
0BD0
21E0
12E0
1F80
3D04
7C10
2F80
ENDCHAR
STARTCHAR uni0454
ENCODING 1108
SWIDTH 384 0
DWIDTH 5 0
BBX 6 7 0 0
BITMAP
1B80
3CC0
B440
FE00
F000
F050
7E40
ENDCHAR
STARTCHAR uni0455
ENCODING 1109
SWIDTH 382 0
DWIDTH 5 0
BBX 7 8 -1 0
BITMAP
0040
07C0
0BD0
0AD0
16D0
72D4
52E0
2F40
ENDCHAR
STARTCHAR uni0456
ENCODING 1110
SWIDTH 267 0
DWIDTH 4 0
BBX 4 10 0 0
BITMAP
2D
2D
00
3C
78
B4
B4
F1
F6
B8
ENDCHAR
STARTCHAR uni0457
ENCODING 1111
SWIDTH 267 0
DWIDTH 4 0
BBX 5 10 0 0
BITMAP
6240
A340
0000
3C00
7800
B400
B400
F100
F600
B800
ENDCHAR
STARTCHAR uni0458
ENCODING 1112
SWIDTH 240 0
DWIDTH 3 0
BBX 7 13 -3 -3
BITMAP
00B0
00B4
0000
00F0
01E0
02D0
02D0
03C4
0794
0B90
6F40
8F00
7D00
ENDCHAR
STARTCHAR uni0459
ENCODING 1113
SWIDTH 745 0
DWIDTH 10 0
BBX 11 7 -1 0
BITMAP
007F00
00DF00
019FF4
026E78
122D38
762C74
7D1F90
ENDCHAR
STARTCHAR uni045A
ENCODING 1114
SWIDTH 694 0
DWIDTH 10 0
BBX 10 7 -1 0
BITMAP
0F2D00
1E2C00
2D3E90
2FFDF0
3C78B0
7875E0
782F40
ENDCHAR
STARTCHAR uni045B
ENCODING 1115
SWIDTH 505 0
DWIDTH 7 0
BBX 9 10 -1 0
BITMAP
064000
0B4000
2FE000
1F0000
1FB400
2E7800
2D7800
3C7840
78B540
787D00
ENDCHAR
STARTCHAR uni045C
ENCODING 1116
SWIDTH 501 0
DWIDTH 7 0
BBX 9 11 -1 0
BITMAP
000400
002800
006000
000000
0F1E00
1EA900
2FE000
2DB400
3CB440
78BA00
787D00
ENDCHAR
STARTCHAR uni045D
ENCODING 1117
SWIDTH 505 0
DWIDTH 7 0
BBX 8 11 0 0
BITMAP
0600
0300
0240
0000
3CB4
78F0
B4F0
B5E0
F2D1
F7E9
B9F4
ENDCHAR
STARTCHAR uni045E
ENCODING 1118
SWIDTH 486 0
DWIDTH 7 0
BBX 7 12 0 -3
BITMAP
0D20
0B90
3CB4
78F0
B4F0
B5E0
F2D0
F7D8
BBD0
1B80
6B40
3E00
ENDCHAR
STARTCHAR uni045F
ENCODING 1119
SWIDTH 505 0
DWIDTH 7 0
BBX 8 10 0 -3
BITMAP
3CB4
78F0
B4F0
B5E0
F2D1
F7E9
B9F4
0500
0F00
0600
ENDCHAR
STARTCHAR uni0462
ENCODING 1122
SWIDTH 659 0
DWIDTH 9 0
BBX 9 10 0 0
BITMAP
02D000
2BE040
A7EE40
D78000
5BE900
0F4F00
0F0B40
1E0B00
1E0E00
2DB800
ENDCHAR
STARTCHAR uni0463
ENCODING 1123
SWIDTH 692 0
DWIDTH 10 0
BBX 10 7 -1 0
BITMAP
0FB800
1E3C00
2D3ED0
2D78B0
3C74B0
7875E0
782E40
ENDCHAR
STARTCHAR uni046A
ENCODING 1130
SWIDTH 834 0
DWIDTH 12 0
BBX 11 10 0 0
BITMAP
02FFF8
1DB820
347C90
703E80
12BFA4
0B6E38
0E2D38
1E3C78
2D3CB4
3C78B4
ENDCHAR
STARTCHAR uni046B
ENCODING 1131
SWIDTH 750 0
DWIDTH 11 0
BBX 8 7 1 0
BITMAP
2FFE
A7C8
D3E4
2BFA
76DB
B2CF
E38E
ENDCHAR
STARTCHAR uni0472
ENCODING 1138
SWIDTH 665 0
DWIDTH 9 0
BBX 9 10 0 0
BITMAP
02BE00
1D9380
72C2C0
A742C0
5FA2C0
1E2BC0
1E0780
1E0F00
1E2D00
0BE400
ENDCHAR
STARTCHAR uni0473
ENCODING 1139
SWIDTH 439 0
DWIDTH 6 0
BBX 8 7 0 0
BITMAP
1B80
38D5
B4F4
FBD0
F1C0
F780
7E00
ENDCHAR
STARTCHAR uni0474
ENCODING 1140
SWIDTH 668 0
DWIDTH 9 0
BBX 10 10 0 0
BITMAP
06E0B0
2AE1D0
A1E380
D1E700
51E600
01E900
01EC00
01F800
01F400
01F000
ENDCHAR
STARTCHAR uni0475
ENCODING 1141
SWIDTH 414 0
DWIDTH 6 0
BBX 6 7 0 0
BITMAP
3C90
7860
B450
B490
F180
F740
B900
ENDCHAR
STARTCHAR uni0490
ENCODING 1168
SWIDTH 431 0
DWIDTH 6 0
BBX 9 12 0 0
BITMAP
000040
0001C0
0BFFC0
3BEA40
A3C000
A78000
578000
0B4000
0F0000
0F0000
1E0000
2D0000
ENDCHAR
STARTCHAR uni0491
ENCODING 1169
SWIDTH 342 0
DWIDTH 5 0
BBX 7 8 -1 0
BITMAP
0034
0FE0
1E00
2D00
2D00
3C00
7800
7800
ENDCHAR
STARTCHAR uni0492
ENCODING 1170
SWIDTH 400 0
DWIDTH 6 0
BBX 9 10 0 0
BITMAP
0AFF80
72D000
A3C000
A7C000
178000
2FA000
0F4000
0F0000
1E0000
1E0000
ENDCHAR
STARTCHAR uni0493
ENCODING 1171
SWIDTH 375 0
DWIDTH 5 0
BBX 7 7 -1 0
BITMAP
0BD0
21E0
12D0
7FE0
3D04
7C10
2F80
ENDCHAR
STARTCHAR uni0494
ENCODING 1172
SWIDTH 665 0
DWIDTH 9 0
BBX 9 10 0 0
BITMAP
0AFF80
36D000
A3C000
A7C000
67FE00
0B8B40
0B4780
0F0740
1E0F00
1EB800
ENDCHAR
STARTCHAR uni0495
ENCODING 1173
SWIDTH 486 0
DWIDTH 7 0
BBX 9 10 -1 -3
BITMAP
0FFC00
1E0000
2EF000
2DB400
3CB540
78B600
79F400
0BE000
19D000
0B8000
ENDCHAR
STARTCHAR uni0496
ENCODING 1174
SWIDTH 777 0
DWIDTH 11 0
BBX 13 14 -1 -4
BITMAP
07868B40
06DB6A40
005F6000
006F8000
06FFF400
0F2D7800
1E2D7800
1D3C7400
2D78B000
7878B400
00009000
0000E000
0000B400
00002000
ENDCHAR
STARTCHAR uni0497
ENCODING 1175
SWIDTH 882 0
DWIDTH 12 0
BBX 14 10 -1 -3
BITMAP
0B878B80
21DB5CC0
01DB7840
01FFF400
12DE7410
639D7450
7A2D2F40
00000800
00001D00
00000900
ENDCHAR
STARTCHAR uni0498
ENCODING 1176
SWIDTH 525 0
DWIDTH 7 0
BBX 7 14 0 -4
BITMAP
06E4
147C
007C
00F4
0BD0
00F4
00B8
90B4
D1F0
7F80
0D00
0E00
0B00
0600
ENDCHAR
STARTCHAR uni0499
ENCODING 1177
SWIDTH 498 0
DWIDTH 7 0
BBX 8 13 0 -6
BITMAP
1BD0
21F0
81F0
42D0
1F45
0798
07D0
2BC0
2B80
2E00
1800
2C00
1800
ENDCHAR
STARTCHAR uni049A
ENCODING 1178
SWIDTH 635 0
DWIDTH 9 0
BBX 10 14 0 -4
BITMAP
06E2D0
2ADA90
A3E400
A3E000
57F900
0B5E00
0B5E00
0F2D00
1E2C00
1E3D00
002800
002C00
001D00
000800
ENDCHAR
STARTCHAR uni049B
ENCODING 1179
SWIDTH 501 0
DWIDTH 7 0
BBX 9 10 -1 -3
BITMAP
0F1E00
1EA900
2FE000
2DB400
3CB440
78B500
787D00
002400
003800
002400
ENDCHAR
STARTCHAR uni049C
ENCODING 1180
SWIDTH 721 0
DWIDTH 10 0
BBX 11 10 0 0
BITMAP
06E0B8
2AD2A4
A3D600
A3E800
57FF00
0B9B40
0B4B40
0F0F00
1E0E00
1E0E00
ENDCHAR
STARTCHAR uni049D
ENCODING 1181
SWIDTH 551 0
DWIDTH 8 0
BBX 9 7 -1 0
BITMAP
0F0B40
1EA240
2EE400
2F7C00
3E3C40
783D80
781E00
ENDCHAR
STARTCHAR uni04A0
ENCODING 1184
SWIDTH 691 0
DWIDTH 10 0
BBX 10 10 0 0
BITMAP
0AF5B0
74F660
A1F800
D1F400
52FE00
02DB40
03C740
078B00
078F00
0B4F00
ENDCHAR
STARTCHAR uni04A1
ENCODING 1185
SWIDTH 676 0
DWIDTH 9 0
BBX 10 7 0 0
BITMAP
2BD2C0
E3D980
D3E800
57EE00
0B4E10
0B4F60
0F0B80
ENDCHAR
STARTCHAR uni04A2
ENCODING 1186
SWIDTH 665 0
DWIDTH 9 0
BBX 10 12 0 -2
BITMAP
06E1E0
2AD2D0
A3C3C0
A3C3C0
57FF80
0B4B40
0B4B40
0F0F00
1E1E00
1E1E00
0007E0
0001D0
ENDCHAR
STARTCHAR uni04A3
ENCODING 1187
SWIDTH 507 0
DWIDTH 7 0
BBX 9 10 -1 -3
BITMAP
0F2D00
1E2C00
2D3C00
2FF800
3C7800
78B540
787D00
002400
003800
002800
ENDCHAR
STARTCHAR uni04A4
ENCODING 1188
SWIDTH 689 0
DWIDTH 10 0
BBX 13 10 0 0
BITMAP
06E1FF80
26D2D000
A3C3C000
A7C3C000
57FF8000
0B4B4000
0F4B4000
0F0F0000
1E1E0000
1E1E0000
ENDCHAR
STARTCHAR uni04A5
ENCODING 1189
SWIDTH 681 0
DWIDTH 10 0
BBX 11 7 -1 0
BITMAP
0F1FF8
1E2EA4
2D3C00
2FF800
3C7440
78BA40
787D00
ENDCHAR
STARTCHAR uni04AA
ENCODING 1194
SWIDTH 497 0
DWIDTH 7 0
BBX 8 15 0 -5
BITMAP
02F8
0B49
2E0D
3D04
7C00
B800
B800
B800
BC04
7FB4
1B40
0B00
0780
0280
0100
ENDCHAR
STARTCHAR uni04AB
ENCODING 1195
SWIDTH 384 0
DWIDTH 5 0
BBX 6 10 0 -3
BITMAP
1B80
3CC0
B440
F000
F010
F590
BE40
2400
3C00
1800
ENDCHAR
STARTCHAR uni04AE
ENCODING 1198
SWIDTH 620 0
DWIDTH 9 0
BBX 10 10 0 0
BITMAP
06E060
29F080
A0F580
D0F600
50BA00
007D00
007C00
00B800
00B400
00F400
ENDCHAR
STARTCHAR uni04AF
ENCODING 1199
SWIDTH 480 0
DWIDTH 7 0
BBX 7 10 0 -3
BITMAP
7864
3C24
3C20
3C60
2D80
2F40
2E00
2D00
3C00
6400
ENDCHAR
STARTCHAR uni04B0
ENCODING 1200
SWIDTH 620 0
DWIDTH 9 0
BBX 10 10 0 0
BITMAP
06E060
29F080
A0F580
D0F600
50BA00
007D00
01FF00
00B800
00B400
00F400
ENDCHAR
STARTCHAR uni04B1
ENCODING 1201
SWIDTH 480 0
DWIDTH 7 0
BBX 7 10 0 -3
BITMAP
7864
3C24
3C20
3C60
2D80
2F40
2E00
BF80
3C00
6400
ENDCHAR
STARTCHAR uni04B6
ENCODING 1206
SWIDTH 695 0
DWIDTH 10 0
BBX 11 12 0 -2
BITMAP
06E0F0
2AD1E0
A3C1E0
A3C2D0
53C3C0
02FBC0
000780
000B40
000B40
000F40
0002F4
0000E0
ENDCHAR
STARTCHAR uni04B7
ENCODING 1207
SWIDTH 505 0
DWIDTH 7 0
BBX 8 10 0 -3
BITMAP
3CB4
78F0
B4F0
BAE0
7ED1
02E9
01F4
0090
00E0
0090
ENDCHAR
STARTCHAR uni04B8
ENCODING 1208
SWIDTH 715 0
DWIDTH 10 0
BBX 11 10 0 0
BITMAP
06E0B4
2AD0F0
A3C0F0
A3C1E0
53D6D0
01FBD0
0023C0
000780
000780
000B40
ENDCHAR
STARTCHAR uni04B9
ENCODING 1209
SWIDTH 545 0
DWIDTH 8 0
BBX 8 7 0 0
BITMAP
3C3C
7878
B6B4
BBF4
7EF1
09F6
00B8
ENDCHAR
STARTCHAR uni04BA
ENCODING 1210
SWIDTH 679 0
DWIDTH 10 0
BBX 9 10 0 0
BITMAP
06E000
2AD000
A3C000
A3C000
57EF40
0B8780
0B4780
0F0B40
1E0B40
1E0F00
ENDCHAR
STARTCHAR uni04BB
ENCODING 1211
SWIDTH 505 0
DWIDTH 7 0
BBX 9 10 -1 0
BITMAP
064000
0B4000
0F0000
0FB800
1E3C00
2D3C00
2D7800
3C7400
78B540
787D00
ENDCHAR
STARTCHAR uni04C0
ENCODING 1216
SWIDTH 375 0
DWIDTH 5 0
BBX 6 10 0 0
BITMAP
06D0
26D0
A3C0
D780
5780
0B40
0F00
0F00
1E00
2D00
ENDCHAR
STARTCHAR uni04C1
ENCODING 1217
SWIDTH 777 0
DWIDTH 11 0
BBX 13 13 -1 0
BITMAP
001D2000
000B9000
00000000
07868B40
06DB6A40
005F6000
006F8000
06FFF400
0F2D7800
1E2D7800
1D3C7400
2D78B000
7878B400
ENDCHAR
STARTCHAR uni04C2
ENCODING 1218
SWIDTH 882 0
DWIDTH 12 0
BBX 14 9 -1 0
BITMAP
001D2000
000B9000
0B878B80
21DB5CC0
01DB7840
01FFF400
12DE7410
639D7450
7A2D2E40
ENDCHAR
STARTCHAR uni04CB
ENCODING 1227
SWIDTH 695 0
DWIDTH 10 0
BBX 10 12 0 -2
BITMAP
06E0F0
2AD1E0
A3C1E0
A3C2D0
53C7C0
02FBC0
000780
000B40
000B40
001F00
07F400
028000
ENDCHAR
STARTCHAR uni04CC
ENCODING 1228
SWIDTH 516 0
DWIDTH 7 0
BBX 8 10 0 -3
BITMAP
3CB4
78B4
78F0
7AE0
3EE1
01E9
00A4
2BC0
7F40
8000
ENDCHAR
STARTCHAR uni04CF
ENCODING 1231
SWIDTH 267 0
DWIDTH 4 0
BBX 4 10 0 0
BITMAP
19
2D
3C
3C
78
B4
B4
F1
FA
B8
ENDCHAR
STARTCHAR uni04D0
ENCODING 1232
SWIDTH 668 0
DWIDTH 9 0
BBX 11 15 0 -2
BITMAP
000748
0002E4
000000
0006E0
001AD0
0073D0
0093C0
2FE780
A34B40
5B0B40
0E0F00
1D1E00
2C1E00
2C0000
040000
ENDCHAR
STARTCHAR uni04D1
ENCODING 1233
SWIDTH 526 0
DWIDTH 7 0
BBX 8 9 0 0
BITMAP
0718
06A0
1BB8
7CB4
B4B4
F0F0
F1E1
F6E5
B9B8
ENDCHAR
STARTCHAR uni04D2
ENCODING 1234
SWIDTH 668 0
DWIDTH 9 0
BBX 11 16 0 -2
BITMAP
000258
00035C
000000
000000
0006E0
001AD0
0073D0
0093C0
2FE780
A34B40
5B0B40
0E0F00
1D1E00
2C1E00
2C0000
040000
ENDCHAR
STARTCHAR uni04D3
ENCODING 1235
SWIDTH 526 0
DWIDTH 7 0
BBX 8 10 0 0
BITMAP
0258
0368
0000
1BB8
7CB4
B4B4
F0F0
F1E1
F6E5
B9B8
ENDCHAR
STARTCHAR uni04D4
ENCODING 1236
SWIDTH 764 0
DWIDTH 11 0
BBX 13 12 0 -2
BITMAP
0006EA40
001AD000
0063C000
00D3C000
6BEBF800
A34B4000
0B0B4000
0E0F0000
1D1F0000
2C1FF800
2C000000
04000000
ENDCHAR
STARTCHAR uni04D5
ENCODING 1237
SWIDTH 650 0
DWIDTH 9 0
BBX 10 7 0 0
BITMAP
1BEF80
10F980
00F640
6FF900
F5E010
F2E080
B9BA00
ENDCHAR
STARTCHAR uni04D6
ENCODING 1238
SWIDTH 459 0
DWIDTH 6 0
BBX 8 13 0 0
BITMAP
0385
01A4
0000
02F4
0B1C
0E18
0E00
0B40
2E00
BC00
F800
B814
6F90
ENDCHAR
STARTCHAR uni04D7
ENCODING 1239
SWIDTH 384 0
DWIDTH 5 0
BBX 6 9 0 0
BITMAP
1C60
1A80
1B80
38C0
B680
FE00
F010
F040
7E00
ENDCHAR
STARTCHAR uni04D8
ENCODING 1240
SWIDTH 544 0
DWIDTH 8 0
BBX 8 10 0 0
BITMAP
0BE4
2FFC
143D
002E
06FD
1E7D
787C
B0B4
B1D0
2E40
ENDCHAR
STARTCHAR uni04D9
ENCODING 1241
SWIDTH 404 0
DWIDTH 6 0
BBX 6 7 0 0
BITMAP
2F80
53D0
02D0
1BD0
A3C0
DB40
B900
ENDCHAR
STARTCHAR uni04DC
ENCODING 1244
SWIDTH 777 0
DWIDTH 11 0
BBX 13 13 -1 0
BITMAP
00096000
000D7000
00000000
07868B40
06DB6A40
005F6000
006F8000
06FFF400
0F2D7800
1E2D7800
1D3C7400
2D78B000
7878B400
ENDCHAR
STARTCHAR uni04DD
ENCODING 1245
SWIDTH 882 0
DWIDTH 12 0
BBX 14 10 -1 0
BITMAP
00096000
000D7000
00000000
0B878B80
21DB5CC0
01DB7840
01FFF400
12DE7410
639D7450
7A2D2E40
ENDCHAR
STARTCHAR uni04DE
ENCODING 1246
SWIDTH 525 0
DWIDTH 7 0
BBX 7 13 0 0
BITMAP
0258
029C
0000
06E4
147C
007C
00F4
0BD0
00F4
00B8
90B4
D1F0
7F80
ENDCHAR
STARTCHAR uni04DF
ENCODING 1247
SWIDTH 498 0
DWIDTH 7 0
BBX 8 13 0 -3
BITMAP
0920
0A70
0000
1BD0
21F0
81F0
42D0
1F45
0798
07D0
2BC0
2780
2E00
ENDCHAR
STARTCHAR uni04E2
ENCODING 1250
SWIDTH 705 0
DWIDTH 10 0
BBX 11 12 0 0
BITMAP
003FD0
000000
06E0F4
26D2F0
A3C7E0
A3CBD0
579AD0
0B77C0
0BA780
0FC780
1F4B40
1E0F00
ENDCHAR
STARTCHAR uni04E3
ENCODING 1251
SWIDTH 505 0
DWIDTH 7 0
BBX 8 9 0 0
BITMAP
0FF4
0000
3CB4
78F0
B4F0
B5E0
F2D1
F7E9
B9F4
ENDCHAR
STARTCHAR uni04E4
ENCODING 1252
SWIDTH 705 0
DWIDTH 10 0
BBX 11 13 0 0
BITMAP
002880
0029D0
000000
06E0F4
26D2F0
A3C7E0
A3CBD0
579AD0
0B77C0
0BA780
0FC780
1F4B40
1E0F00
ENDCHAR
STARTCHAR uni04E5
ENCODING 1253
SWIDTH 505 0
DWIDTH 7 0
BBX 8 10 0 0
BITMAP
0960
0A70
0000
3CB4
78F0
B4F0
B5E0
F2D1
F7E9
B9F4
ENDCHAR
STARTCHAR uni04E6
ENCODING 1254
SWIDTH 665 0
DWIDTH 9 0
BBX 9 13 0 0
BITMAP
002580
0035C0
000000
02BE00
1D5380
72C2C0
A782C0
5F42C0
1F03C0
1E0780
1E0F00
1E6D00
0BE400
ENDCHAR
STARTCHAR uni04E7
ENCODING 1255
SWIDTH 439 0
DWIDTH 6 0
BBX 8 10 0 0
BITMAP
0920
0A70
0000
1B80
3C91
B4E8
F0D0
F0C0
F280
7E00
ENDCHAR
STARTCHAR uni04E8
ENCODING 1256
SWIDTH 665 0
DWIDTH 9 0
BBX 9 10 0 0
BITMAP
06BE00
299380
B2C2C0
A742C0
0FABC0
1E07C0
1E0B80
1E0F00
1E2D00
0BE400
ENDCHAR
STARTCHAR uni04E9
ENCODING 1257
SWIDTH 439 0
DWIDTH 6 0
BBX 8 7 0 0
BITMAP
1B80
3C91
B4E8
FFE0
F0C0
F280
7E00
ENDCHAR
STARTCHAR uni04EE
ENCODING 1262
SWIDTH 644 0
DWIDTH 9 0
BBX 10 12 0 0
BITMAP
002FE0
000000
06E020
29F090
A0F4C0
A0B540
507B00
003E00
002C00
002800
03A400
02D000
ENDCHAR
STARTCHAR uni04EF
ENCODING 1263
SWIDTH 486 0
DWIDTH 7 0
BBX 7 12 0 -3
BITMAP
0FF4
0000
3CB4
78F0
B4F0
B5E0
F2D0
F7D8
BBD0
1B80
6B40
3E00
ENDCHAR
STARTCHAR uni04F0
ENCODING 1264
SWIDTH 644 0
DWIDTH 9 0
BBX 10 13 0 0
BITMAP
001890
001CD0
000000
06E020
29F090
A0F4C0
A0B540
507B00
003E00
002C00
002800
03A400
02D000
ENDCHAR
STARTCHAR uni04F1
ENCODING 1265
SWIDTH 486 0
DWIDTH 7 0
BBX 7 13 0 -3
BITMAP
0960
0A70
0000
3CB4
78F0
B4F0
B5E0
F2D0
F7D8
BBD0
1B80
6B40
3E00
ENDCHAR
STARTCHAR uni04F2
ENCODING 1266
SWIDTH 644 0
DWIDTH 9 0
BBX 10 14 0 0
BITMAP
000660
000D90
001880
000000
06E020
29F090
A0F4C0
A0B540
507B00
003E00
002C00
002800
03A400
02D000
ENDCHAR
STARTCHAR uni04F3
ENCODING 1267
SWIDTH 486 0
DWIDTH 7 0
BBX 7 14 0 -3
BITMAP
0258
0734
0950
0000
3CB4
78F0
B4F0
B5E0
F2D0
F7D8
BBD0
1B80
6B40
3E00
ENDCHAR
STARTCHAR uni04F4
ENCODING 1268
SWIDTH 695 0
DWIDTH 10 0
BBX 10 13 0 0
BITMAP
002880
0028D0
000000
06E0F0
2AD1E0
A3C1E0
A3C2D0
53C3C0
02FBC0
000780
000B40
000B40
000F00
ENDCHAR
STARTCHAR uni04F5
ENCODING 1269
SWIDTH 505 0
DWIDTH 7 0
BBX 8 10 0 0
BITMAP
0960
0D70
0000
3CB4
78F0
B4F0
BAE0
7ED1
02E9
01F4
ENDCHAR
STARTCHAR uni04F6
ENCODING 1270
SWIDTH 442 0
DWIDTH 6 0
BBX 9 12 0 -2
BITMAP
0AFF80
72D000
A3C000
A78000
178000
0B4000
0F0000
0F0000
1E0000
2E0000
07E000
02D000
ENDCHAR
STARTCHAR uni04F7
ENCODING 1271
SWIDTH 375 0
DWIDTH 5 0
BBX 7 10 -1 -3
BITMAP
0BD0
21E0
12D0
1F80
3D04
7D60
2F80
0900
0E00
0900
ENDCHAR
STARTCHAR uni04F8
ENCODING 1272
SWIDTH 909 0
DWIDTH 13 0
BBX 13 13 0 0
BITMAP
00025800
00036800
00000000
06E003C0
2AD00780
A3C00780
A3C00B40
57ED0F00
0B4B4F00
0B475E00
0F0B6D00
1E0F2D00
1EB83C00
ENDCHAR
STARTCHAR uni04F9
ENCODING 1273
SWIDTH 642 0
DWIDTH 9 0
BBX 10 10 0 0
BITMAP
014800
039C00
000000
380640
782F00
B69F00
B1DE00
F1DD10
F76E80
7E1F40
ENDCHAR
STARTCHAR uni051A
ENCODING 1306
SWIDTH 665 0
DWIDTH 9 0
BBX 9 12 0 -2
BITMAP
02BE00
1D5380
72D2C0
A782C0
AF42C0
1F03C0
1E0780
1E0B00
1EAD00
0BF800
001F40
000500
ENDCHAR
STARTCHAR uni051B
ENCODING 1307
SWIDTH 486 0
DWIDTH 7 0
BBX 7 10 0 -3
BITMAP
1BB8
7CB4
B4B0
F0F0
F1E0
F2E0
BBD0
03C0
03C0
0780
ENDCHAR
STARTCHAR uni051C
ENCODING 1308
SWIDTH 962 0
DWIDTH 13 0
BBX 15 10 0 0
BITMAP
06E0B424
2AE0F430
A1E1F450
D1E2F480
51E2B480
01E5B540
01E8BA00
01E8BA00
01F47C00
01F07800
ENDCHAR
STARTCHAR uni051D
ENCODING 1309
SWIDTH 661 0
DWIDTH 9 0
BBX 9 7 0 0
BITMAP
3CB580
78F080
B4F0C0
B5E180
F2D240
F7EA00
B9F800
ENDCHAR
STARTCHAR uni0524
ENCODING 1316
SWIDTH 742 0
DWIDTH 10 0
BBX 11 12 0 -2
BITMAP
1AEBF8
72D2D0
A3C3C0
978780
078780
0B4B40
0F0B40
0F0F00
1E1E00
1E1E00
0007E0
0002D0
ENDCHAR
STARTCHAR uni0525
ENCODING 1317
SWIDTH 505 0
DWIDTH 7 0
BBX 9 10 -1 -3
BITMAP
0FB800
1E3C00
2D3C00
2D7800
3C7440
78BA00
787D00
002400
003800
002800
ENDCHAR
STARTCHAR uni1E0C
ENCODING 7692
SWIDTH 663 0
DWIDTH 9 0
BBX 9 13 0 -3
BITMAP
06FD00
294B40
A3C380
D7C3C0
9783C0
0B4380
0F0780
0F0B00
1E1E00
2EB400
000000
078000
078000
ENDCHAR
STARTCHAR uni1E0D
ENCODING 7693
SWIDTH 525 0
DWIDTH 7 0
BBX 8 13 0 -3
BITMAP
0018
003C
007C
1BB8
7CB4
B4B4
F0F0
F1F0
F2E2
B9F8
0000
2D00
2D00
ENDCHAR
STARTCHAR uni1E20
ENCODING 7712
SWIDTH 578 0
DWIDTH 8 0
BBX 8 16 0 -3
BITMAP
02FE
0000
0000
06F9
1F4B
3D0A
B800
B409
B41D
787D
1EBC
0078
1A74
34B0
34E0
1B80
ENDCHAR
STARTCHAR uni1E21
ENCODING 7713
SWIDTH 507 0
DWIDTH 7 0
BBX 8 13 0 -3
BITMAP
0BF8
0000
0000
1BB8
7CB4
B4B4
F0F0
F1E0
F2E5
BBE4
07C0
2780
2E00
ENDCHAR
STARTCHAR uni1E24
ENCODING 7716
SWIDTH 665 0
DWIDTH 9 0
BBX 10 13 0 -3
BITMAP
06E1E0
26D2D0
A3C3C0
A3C3C0
57FF80
0B4B40
0B4B40
0F0F00
1E1E00
1E1E00
000000
03C000
02C000
ENDCHAR
STARTCHAR uni1E25
ENCODING 7717
SWIDTH 505 0
DWIDTH 7 0
BBX 9 13 -1 -3
BITMAP
064000
0B4000
0F0000
0FB800
1E3C00
2D3C00
2D7800
3C7400
78B540
787D00
000000
0B4000
0B0000
ENDCHAR
STARTCHAR uni1E2A
ENCODING 7722
SWIDTH 665 0
DWIDTH 9 0
BBX 10 13 0 -3
BITMAP
06E1E0
26D2D0
A3C3C0
A3C3C0
57FF80
0B4B40
0B4B40
0F0F00
1E1E00
1E1E00
000000
0C2400
069000
ENDCHAR
STARTCHAR uni1E2B
ENCODING 7723
SWIDTH 505 0
DWIDTH 7 0
BBX 9 13 -1 -3
BITMAP
064000
0B4000
0F0000
0FB800
1E3C00
2D3C00
2D7800
3C7400
78B540
787D00
000000
34A000
1A4000
ENDCHAR
STARTCHAR uni1E36
ENCODING 7734
SWIDTH 379 0
DWIDTH 5 0
BBX 9 13 0 -3
BITMAP
06D000
2AD000
A3C000
D78000
578000
0B4000
0F0000
0F0000
1E0000
2E0000
06E400
3C7FC0
2C0B80
ENDCHAR
STARTCHAR uni1E37
ENCODING 7735
SWIDTH 293 0
DWIDTH 4 0
BBX 5 13 0 -3
BITMAP
0600
1E00
2D00
2D00
3C00
7800
7800
B440
BA40
7D00
0000
F000
A000
ENDCHAR
STARTCHAR uni1E42
ENCODING 7746
SWIDTH 787 0
DWIDTH 11 0
BBX 11 13 1 -3
BITMAP
06D0F4
27D1F0
97D3F0
DBD7E0
5EDAE0
1ADED0
26EAD0
32F3C0
62E3C0
D3D3C0
000000
078000
078000
ENDCHAR
STARTCHAR uni1E43
ENCODING 7747
SWIDTH 752 0
DWIDTH 11 0
BBX 12 10 -1 -3
BITMAP
0FBAF0
1E3DB4
2D7CB4
2D78F4
3CB4F0
78B4F2
78F0B8
000000
01E000
01D000
ENDCHAR
STARTCHAR uni1E44
ENCODING 7748
SWIDTH 668 0
DWIDTH 9 0
BBX 10 13 0 0
BITMAP
000740
000740
000000
0AD070
36E0A0
A3F0D0
D7F4D0
67B5C0
0A7980
0D3E80
0D2F40
1C2F00
281F00
ENDCHAR
STARTCHAR uni1E45
ENCODING 7749
SWIDTH 505 0
DWIDTH 7 0
BBX 9 10 -1 0
BITMAP
00B400
00B400
000000
0FB800
1E3C00
2D3C00
2D7800
3C7400
78B540
787D00
ENDCHAR
STARTCHAR uni1E46
ENCODING 7750
SWIDTH 668 0
DWIDTH 9 0
BBX 10 13 0 -3
BITMAP
0AD070
36E0A0
A3F0D0
D7F4D0
67B5C0
0A7980
0D3E80
0D2F40
1C2F00
281F00
000000
02C000
02C000
ENDCHAR
STARTCHAR uni1E47
ENCODING 7751
SWIDTH 505 0
DWIDTH 7 0
BBX 9 10 -1 -3
BITMAP
0FB800
1E3C00
2D3C00
2D7800
3C7400
78B540
787D00
000000
0B4000
0B4000
ENDCHAR
STARTCHAR uni1E5A
ENCODING 7770
SWIDTH 601 0
DWIDTH 8 0
BBX 8 13 0 -3
BITMAP
06F9
294B
A3C7
D79E
57FD
0B5E
0F1E
0F2D
1E3C
2D2C
0000
03C0
0280
ENDCHAR
STARTCHAR uni1E5B
ENCODING 7771
SWIDTH 376 0
DWIDTH 5 0
BBX 7 10 -1 -3
BITMAP
0FB4
1E74
2D00
2D00
3C00
7800
7800
0000
B400
7400
ENDCHAR
STARTCHAR uni1E60
ENCODING 7776
SWIDTH 570 0
DWIDTH 8 0
BBX 8 14 0 0
BITMAP
0038
0038
0000
0000
02F8
0B4A
0F4E
0B80
02E0
04F8
3D7C
703C
7478
1FE0
ENDCHAR
STARTCHAR uni1E61
ENCODING 7777
SWIDTH 382 0
DWIDTH 5 0
BBX 7 10 -1 0
BITMAP
01D0
01D0
0000
02C0
07C0
0BD0
16D0
32D4
62E0
2F40
ENDCHAR
STARTCHAR uni1E62
ENCODING 7778
SWIDTH 570 0
DWIDTH 8 0
BBX 8 13 0 -3
BITMAP
02F8
0B4A
0F4E
0B80
02E0
04F8
3D7C
703C
7478
1FE0
0000
0E00
0E00
ENDCHAR
STARTCHAR uni1E63
ENCODING 7779
SWIDTH 382 0
DWIDTH 5 0
BBX 7 11 -1 -3
BITMAP
0040
07C0
0BD0
0AD0
16D0
72D4
52E0
2F40
0000
3C00
2C00
ENDCHAR
STARTCHAR uni1E6C
ENCODING 7788
SWIDTH 481 0
DWIDTH 7 0
BBX 10 13 0 -3
BITMAP
1AFAE0
74F000
A1E000
91E000
02D000
02C000
03C000
078000
078000
0B4000
000000
0F0000
0E0000
ENDCHAR
STARTCHAR uni1E6D
ENCODING 7789
SWIDTH 267 0
DWIDTH 4 0
BBX 5 12 -1 -3
BITMAP
0B40
0F00
2F80
1E00
2D00
2D00
3C40
3D80
2E00
0000
B400
7400
ENDCHAR
STARTCHAR Wgrave
ENCODING 7808
SWIDTH 962 0
DWIDTH 13 0
BBX 15 14 0 0
BITMAP
0000A000
0000A000
00007000
00000000
06E0B424
2AE0F430
A1E1F450
D1E2F480
51E2B480
01E5B540
01E8BA00
01E8BA00
01F47C00
01F07800
ENDCHAR
STARTCHAR wgrave
ENCODING 7809
SWIDTH 661 0
DWIDTH 9 0
BBX 9 10 0 0
BITMAP
01D000
00D000
009000
3CB580
78F080
B4F0C0
B5E180
F2D240
F7EA00
B9F800
ENDCHAR
STARTCHAR Wacute
ENCODING 7810
SWIDTH 962 0
DWIDTH 13 0
BBX 15 14 0 0
BITMAP
00000A00
00001C00
00002400
00000000
06E0B424
2AE0F430
A1E1F450
D1E2F480
51E2B480
01E5B540
01E8BA00
01E8BA00
01F47C00
01F07800
ENDCHAR
STARTCHAR wacute
ENCODING 7811
SWIDTH 661 0
DWIDTH 9 0
BBX 9 10 0 0
BITMAP
001C00
002400
001000
3CB580
78F080
B4F0C0
B5E180
F2D240
F7EA00
B9F800
ENDCHAR
STARTCHAR Wdieresis
ENCODING 7812
SWIDTH 962 0
DWIDTH 13 0
BBX 15 13 0 0
BITMAP
0001C900
00018900
00000000
06E0B424
2AE0F430
A1E1F450
D1E2F480
51E2B480
01E5B540
01E8BA00
01E8BA00
01F47C00
01F07800
ENDCHAR
STARTCHAR wdieresis
ENCODING 7813
SWIDTH 661 0
DWIDTH 9 0
BBX 9 10 0 0
BITMAP
029D00
024800
000000
3CB580
78F080
B4F0C0
B5E180
F2D240
F7EA00
B9F800
ENDCHAR
STARTCHAR uni1E8E
ENCODING 7822
SWIDTH 620 0
DWIDTH 9 0
BBX 10 13 0 0
BITMAP
000B40
000B40
000000
06E060
29F080
A0F580
D0F600
50BA00
007D00
007C00
00B800
00B400
00F400
ENDCHAR
STARTCHAR uni1E8F
ENCODING 7823
SWIDTH 505 0
DWIDTH 7 0
BBX 7 13 0 -3
BITMAP
02C0
03C0
0000
3CB4
78F0
B4F0
B5E0
F2D0
F7D8
BBD0
1B80
6B40
3E00
ENDCHAR
STARTCHAR uni1E92
ENCODING 7826
SWIDTH 542 0
DWIDTH 8 0
BBX 8 17 0 -3
BITMAP
000D
0018
0010
0000
1FFD
287C
00B4
01F0
03D0
0780
0F40
2E04
3D1C
BFF4
0000
0F00
0E00
ENDCHAR
STARTCHAR uni1E93
ENCODING 7827
SWIDTH 428 0
DWIDTH 6 0
BBX 6 10 0 -3
BITMAP
2FE0
32C0
0780
0F00
2D00
3C90
BF80
0000
7800
7800
ENDCHAR
STARTCHAR uni1E97
ENCODING 7831
SWIDTH 267 0
DWIDTH 4 0
BBX 5 11 0 0
BITMAP
3680
2680
1900
3C00
BE00
7800
B400
B400
F100
F600
B800
ENDCHAR
STARTCHAR uni1E9E
ENCODING 7838
SWIDTH 559 0
DWIDTH 8 0
BBX 9 13 -1 -3
BITMAP
01BFC0
03C780
078F00
0B6E00
0F3C00
0F1D00
1E0F00
2D0F00
2D1E00
3DF800
780000
740000
B40000
ENDCHAR
STARTCHAR uni1EA0
ENCODING 7840
SWIDTH 668 0
DWIDTH 9 0
BBX 10 13 0 -3
BITMAP
0001E0
0023D0
0093C0
2FE7C0
A34B80
5B0B40
0E0F40
1D0F00
2C1E00
2C1E00
2C0000
04B400
00B000
ENDCHAR
STARTCHAR uni1EA1
ENCODING 7841
SWIDTH 526 0
DWIDTH 7 0
BBX 8 10 0 -3
BITMAP
1BB8
7CB4
B4B4
F0F0
F1E1
F6E5
B9B8
0000
2D00
2D00
ENDCHAR
STARTCHAR uni1EA2
ENCODING 7842
SWIDTH 668 0
DWIDTH 9 0
BBX 11 16 0 -2
BITMAP
0001E0
000024
000090
000000
0006E0
001AD0
0073D0
0093C0
2FE780
A34B40
5B0B40
0E0F00
1D1E00
2C1E00
2C0000
040000
ENDCHAR
STARTCHAR uni1EA3
ENCODING 7843
SWIDTH 526 0
DWIDTH 7 0
BBX 8 10 0 0
BITMAP
00B4
0090
0000
1BB8
7CB4
B4B4
F0F0
F1E1
F6E5
B9B8
ENDCHAR
STARTCHAR uni1EA4
ENCODING 7844
SWIDTH 668 0
DWIDTH 9 0
BBX 12 16 0 -2
BITMAP
000002
000068
000160
000000
0006E0
001AD0
0073D0
0093C0
2FE780
A34B40
5B0B40
0E0F00
1D1E00
2C1E00
2C0000
040000
ENDCHAR
STARTCHAR uni1EA5
ENCODING 7845
SWIDTH 526 0
DWIDTH 7 0
BBX 9 12 0 0
BITMAP
000340
000600
00A400
026000
000000
1BB800
7CB400
B4B400
F0F000
F1E100
F6E500
B9B800
ENDCHAR
STARTCHAR uni1EA6
ENCODING 7846
SWIDTH 668 0
DWIDTH 9 0
BBX 12 16 0 -2
BITMAP
000008
0000A5
000150
000000
0006E0
001AD0
0073D0
0093C0
2FE780
A34B40
5B0B40
0E0F00
1D1E00
2C1E00
2C0000
040000
ENDCHAR
STARTCHAR uni1EA7
ENCODING 7847
SWIDTH 526 0
DWIDTH 7 0
BBX 8 12 0 0
BITMAP
000D
0009
0060
0110
0000
1BB8
7CB4
B4B4
F0F0
F1E1
F6E5
B9B8
ENDCHAR
STARTCHAR uni1EA8
ENCODING 7848
SWIDTH 668 0
DWIDTH 9 0
BBX 12 16 0 -2
BITMAP
00000A
00006A
000164
000000
0006E0
001AD0
0073D0
0093C0
2FE780
A34B40
5B0B40
0E0F00
1D1E00
2C1E00
2C0000
040000
ENDCHAR
STARTCHAR uni1EA9
ENCODING 7849
SWIDTH 526 0
DWIDTH 7 0
BBX 8 12 0 0
BITMAP
000A
0002
0064
02A0
0000
1BB8
7CB4
B4B4
F0F0
F1E1
F6E5
B9B8
ENDCHAR
STARTCHAR uni1EAA
ENCODING 7850
SWIDTH 668 0
DWIDTH 9 0
BBX 11 16 0 -2
BITMAP
0000B8
000074
000160
000000
0006E0
001AD0
0073D0
0093C0
2FE780
A34B40
5B0B40
0E0F00
1D1E00
2C1E00
2C0000
040000
ENDCHAR
STARTCHAR uni1EAB
ENCODING 7851
SWIDTH 526 0
DWIDTH 7 0
BBX 8 12 0 0
BITMAP
00A4
0000
00A0
0260
0000
1BB8
7CB4
B4B4
F0F0
F1E1
F6E5
B9B8
ENDCHAR
STARTCHAR uni1EAC
ENCODING 7852
SWIDTH 668 0
DWIDTH 9 0
BBX 11 17 0 -3
BITMAP
000030
0001A4
000104
000000
0001E0
0023D0
0093C0
2FE7C0
A34B80
5B0B40
0E0F40
1D0F00
2C1E00
2C1E00
2C0000
04B400
00B000
ENDCHAR
STARTCHAR uni1EAD
ENCODING 7853
SWIDTH 526 0
DWIDTH 7 0
BBX 8 13 0 -3
BITMAP
0060
02A0
0400
1BB8
7CB4
B4B4
F0F0
F1E1
F6E5
B9B8
0000
2D00
2D00
ENDCHAR
STARTCHAR uni1EAE
ENCODING 7854
SWIDTH 668 0
DWIDTH 9 0
BBX 11 16 0 -2
BITMAP
000024
000268
0001A4
000000
0006E0
001AD0
0073D0
0093C0
2FE780
A34B40
5B0B40
0E0F00
1D1E00
2C1E00
2C0000
040000
ENDCHAR
STARTCHAR uni1EAF
ENCODING 7855
SWIDTH 526 0
DWIDTH 7 0
BBX 8 12 0 0
BITMAP
0010
0060
0A58
02A0
0000
1BB8
7CB4
B4B4
F0F0
F1E1
F6E5
B9B8
ENDCHAR
STARTCHAR uni1EB0
ENCODING 7856
SWIDTH 668 0
DWIDTH 9 0
BBX 11 16 0 -2
BITMAP
000090
000298
0001A4
000000
0006E0
001AD0
0073D0
0093C0
2FE780
A34B40
5B0B40
0E0F00
1D1E00
2C1E00
2C0000
040000
ENDCHAR
STARTCHAR uni1EB1
ENCODING 7857
SWIDTH 526 0
DWIDTH 7 0
BBX 8 12 0 0
BITMAP
0180
0080
0A18
02A0
0000
1BB8
7CB4
B4B4
F0F0
F1E1
F6E5
B9B8
ENDCHAR
STARTCHAR uni1EB2
ENCODING 7858
SWIDTH 668 0
DWIDTH 9 0
BBX 11 16 0 -2
BITMAP
0000A0
000164
0002E4
000000
0006E0
001AD0
0073D0
0093C0
2FE780
A34B40
5B0B40
0E0F00
1D1E00
2C1E00
2C0000
040000
ENDCHAR
STARTCHAR uni1EB3
ENCODING 7859
SWIDTH 526 0
DWIDTH 7 0
BBX 8 12 0 0
BITMAP
0090
0020
0AA8
02A0
0000
1BB8
7CB4
B4B4
F0F0
F1E1
F6E5
B9B8
ENDCHAR
STARTCHAR uni1EB4
ENCODING 7860
SWIDTH 668 0
DWIDTH 9 0
BBX 11 16 0 -2
BITMAP
0001F4
000218
0001A4
000000
0006E0
001AD0
0073D0
0093C0
2FE780
A34B40
5B0B40
0E0F00
1D1E00
2C1E00
2C0000
040000
ENDCHAR
STARTCHAR uni1EB5
ENCODING 7861
SWIDTH 526 0
DWIDTH 7 0
BBX 8 12 0 0
BITMAP
01A4
0000
0618
02A0
0000
1BB8
7CB4
B4B4
F0F0
F1E1
F6E5
B9B8
ENDCHAR
STARTCHAR uni1EB6
ENCODING 7862
SWIDTH 668 0
DWIDTH 9 0
BBX 12 16 0 -3
BITMAP
00070D
0002A4
000000
0001E0
0023D0
0093C0
2FE7C0
A34B80
5B0B40
0E0F40
1D0F00
2C1E00
2C1E00
2C0000
04B400
00B000
ENDCHAR
STARTCHAR uni1EB7
ENCODING 7863
SWIDTH 526 0
DWIDTH 7 0
BBX 8 13 0 -3
BITMAP
0A1C
06A0
0000
1BB8
7CB4
B4B4
F0F0
F1E1
F6E5
B9B8
0000
2D00
2D00
ENDCHAR
STARTCHAR uni1EB8
ENCODING 7864
SWIDTH 459 0
DWIDTH 6 0
BBX 7 13 0 -3
BITMAP
02F4
0B1C
0E18
0E00
0B40
2E00
BC00
F800
B814
6F90
0000
2C00
2C00
ENDCHAR
STARTCHAR uni1EB9
ENCODING 7865
SWIDTH 384 0
DWIDTH 5 0
BBX 6 10 0 -3
BITMAP
1B80
38C0
B680
FE00
F010
F040
7E00
0000
7400
7400
ENDCHAR
STARTCHAR uni1EBA
ENCODING 7866
SWIDTH 459 0
DWIDTH 6 0
BBX 7 14 0 0
BITMAP
00B8
000C
0060
0000
02F4
0B1C
0E18
0E00
0B40
2E00
BC00
F800
B814
6F90
ENDCHAR
STARTCHAR uni1EBB
ENCODING 7867
SWIDTH 384 0
DWIDTH 5 0
BBX 6 10 0 0
BITMAP
0680
0240
0000
1B80
38C0
B680
FE00
F010
F040
7E00
ENDCHAR
STARTCHAR uni1EBC
ENCODING 7868
SWIDTH 459 0
DWIDTH 6 0
BBX 8 13 0 0
BITMAP
01FA
0014
0000
02F4
0B1C
0E18
0E00
0B40
2E00
BC00
F800
B814
6F90
ENDCHAR
STARTCHAR uni1EBD
ENCODING 7869
SWIDTH 384 0
DWIDTH 5 0
BBX 6 10 0 0
BITMAP
1F90
1BD0
0000
1B80
38C0
B680
FE00
F010
F040
7E00
ENDCHAR
STARTCHAR uni1EBE
ENCODING 7870
SWIDTH 459 0
DWIDTH 6 0
BBX 9 14 0 0
BITMAP
001240
007A00
004400
000000
02F400
0B1C00
0E1800
0E0000
0B4000
2E0000
BC0000
F80000
B81400
6F9000
ENDCHAR
STARTCHAR uni1EBF
ENCODING 7871
SWIDTH 384 0
DWIDTH 5 0
BBX 8 12 0 0
BITMAP
000A
0008
0180
0690
0000
1B80
38C0
B680
FE00
F010
F040
7E00
ENDCHAR
STARTCHAR uni1EC0
ENCODING 7872
SWIDTH 459 0
DWIDTH 6 0
BBX 8 14 0 0
BITMAP
0006
0066
0044
0000
02F4
0B1C
0E18
0E00
0B40
2E00
BC00
F800
B814
6F90
ENDCHAR
STARTCHAR uni1EC1
ENCODING 7873
SWIDTH 384 0
DWIDTH 5 0
BBX 7 12 0 0
BITMAP
0024
0018
0180
0550
0000
1B80
38C0
B680
FE00
F010
F040
7E00
ENDCHAR
STARTCHAR uni1EC2
ENCODING 7874
SWIDTH 459 0
DWIDTH 6 0
BBX 9 14 0 0
BITMAP
000240
002640
009800
000000
02F400
0B1C00
0E1800
0E0000
0B4000
2E0000
BC0000
F80000
B81400
6F9000
ENDCHAR
STARTCHAR uni1EC3
ENCODING 7875
SWIDTH 384 0
DWIDTH 5 0
BBX 7 12 0 0
BITMAP
0028
0008
0190
0690
0000
1B80
38C0
B680
FE00
F010
F040
7E00
ENDCHAR
STARTCHAR uni1EC4
ENCODING 7876
SWIDTH 459 0
DWIDTH 6 0
BBX 8 14 0 0
BITMAP
0069
0064
0044
0000
02F4
0B1C
0E18
0E00
0B40
2E00
BC00
F800
B814
6F90
ENDCHAR
STARTCHAR uni1EC5
ENCODING 7877
SWIDTH 384 0
DWIDTH 5 0
BBX 6 12 0 0
BITMAP
01A0
0000
0180
0690
0000
1B80
38C0
B680
FE00
F010
F040
7E00
ENDCHAR
STARTCHAR uni1EC6
ENCODING 7878
SWIDTH 459 0
DWIDTH 6 0
BBX 7 17 0 -3
BITMAP
0024
00A8
0104
0000
02F4
0B1C
0E18
0E00
0B40
2E00
BC00
F800
B814
6F90
0000
2C00
2C00
ENDCHAR
STARTCHAR uni1EC7
ENCODING 7879
SWIDTH 384 0
DWIDTH 5 0
BBX 6 13 0 -3
BITMAP
0180
0690
0010
1B80
38C0
B680
FE00
F010
F040
7E00
0000
7400
7400
ENDCHAR
STARTCHAR uni1EC8
ENCODING 7880
SWIDTH 375 0
DWIDTH 5 0
BBX 7 14 0 0
BITMAP
01A0
0024
0090
0000
06D0
26D0
A3C0
D780
5780
0B40
0F00
0F00
1E00
2D00
ENDCHAR
STARTCHAR uni1EC9
ENCODING 7881
SWIDTH 267 0
DWIDTH 4 0
BBX 4 10 0 0
BITMAP
1E
19
00
3C
78
B4
B4
F1
F6
B8
ENDCHAR
STARTCHAR uni1ECA
ENCODING 7882
SWIDTH 375 0
DWIDTH 5 0
BBX 6 13 0 -3
BITMAP
06D0
26D0
A3C0
D780
5780
0B40
0F00
0F00
1E00
2D00
0000
3C00
3800
ENDCHAR
STARTCHAR uni1ECB
ENCODING 7883
SWIDTH 267 0
DWIDTH 4 0
BBX 5 13 -1 -3
BITMAP
0B40
0B40
0000
0F00
1E00
2D00
2D00
3C40
3D80
2E00
0000
B400
7400
ENDCHAR
STARTCHAR uni1ECC
ENCODING 7884
SWIDTH 665 0
DWIDTH 9 0
BBX 9 13 0 -3
BITMAP
02BE00
1D5380
72C2C0
A782C0
5F42C0
1F03C0
1E0780
1E0F00
1E6D00
0BE400
000000
078000
074000
ENDCHAR
STARTCHAR uni1ECD
ENCODING 7885
SWIDTH 433 0
DWIDTH 6 0
BBX 9 10 -1 -3
BITMAP
06E000
1E3440
2D7900
3C3400
7C7000
7C9000
2F4000
000000
1D0000
1D0000
ENDCHAR
STARTCHAR uni1ECE
ENCODING 7886
SWIDTH 665 0
DWIDTH 9 0
BBX 9 14 0 0
BITMAP
001E00
000200
000800
000000
02BE00
1D5380
72C2C0
A782C0
5F42C0
1F03C0
1E0780
1E0F00
1E6D00
0BE400
ENDCHAR
STARTCHAR uni1ECF
ENCODING 7887
SWIDTH 433 0
DWIDTH 6 0
BBX 9 10 -1 0
BITMAP
00B400
005000
000000
06E000
1E3440
2D7900
3C3400
7C7000
7C9000
2F4000
ENDCHAR
STARTCHAR uni1ED0
ENCODING 7888
SWIDTH 665 0
DWIDTH 9 0
BBX 10 14 0 0
BITMAP
000050
000980
002200
000000
02BE00
1D5380
72C2C0
A782C0
5F42C0
1F03C0
1E0780
1E0F00
1E6D00
0BE400
ENDCHAR
STARTCHAR uni1ED1
ENCODING 7889
SWIDTH 433 0
DWIDTH 6 0
BBX 9 12 -1 0
BITMAP
000280
000200
006000
01A400
000000
06E000
1E3440
2D7900
3C3400
7C7000
7C9000
2F4000
ENDCHAR
STARTCHAR uni1ED2
ENCODING 7890
SWIDTH 665 0
DWIDTH 9 0
BBX 9 14 0 0
BITMAP
000080
000A80
002100
000000
02BE00
1D5380
72C2C0
A782C0
5F42C0
1F03C0
1E0780
1E0F00
1E6D00
0BE400
ENDCHAR
STARTCHAR uni1ED3
ENCODING 7891
SWIDTH 433 0
DWIDTH 6 0
BBX 9 12 -1 0
BITMAP
000900
000600
006000
015400
000000
06E000
1E3440
2D7900
3C3400
7C7000
7C9000
2F4000
ENDCHAR
STARTCHAR uni1ED4
ENCODING 7892
SWIDTH 665 0
DWIDTH 9 0
BBX 10 14 0 0
BITMAP
0000A0
0009A0
002600
000000
02BE00
1D5380
72C2C0
A782C0
5F42C0
1F03C0
1E0780
1E0F00
1E6D00
0BE400
ENDCHAR
STARTCHAR uni1ED5
ENCODING 7893
SWIDTH 433 0
DWIDTH 6 0
BBX 9 12 -1 0
BITMAP
000A00
000200
006600
01E400
010000
06E000
1E3440
2D7900
3C3400
7C7000
7C9000
2F4000
ENDCHAR
STARTCHAR uni1ED6
ENCODING 7894
SWIDTH 665 0
DWIDTH 9 0
BBX 9 14 0 0
BITMAP
001E80
000A00
002600
000000
02BE00
1D5380
72C2C0
A782C0
5F42C0
1F03C0
1E0780
1E0F00
1E6D00
0BE400
ENDCHAR
STARTCHAR uni1ED7
ENCODING 7895
SWIDTH 433 0
DWIDTH 6 0
BBX 9 12 -1 0
BITMAP
00B800
000000
006000
01A400
000000
06E000
1E3440
2D7900
3C3400
7C7000
7C9000
2F4000
ENDCHAR
STARTCHAR uni1ED8
ENCODING 7896
SWIDTH 665 0
DWIDTH 9 0
BBX 9 17 0 -3
BITMAP
000900
002A00
004100
000000
02BE00
1D5380
72C2C0
A782C0
5F42C0
1F03C0
1E0780
1E0F00
1E6D00
0BE400
000000
078000
074000
ENDCHAR
STARTCHAR uni1ED9
ENCODING 7897
SWIDTH 433 0
DWIDTH 6 0
BBX 9 13 -1 -3
BITMAP
006000
02A000
000000
06E000
1E3440
2D7900
3C3400
7C7000
7C9000
2F4000
000000
1D0000
1D0000
ENDCHAR
STARTCHAR uni1EDA
ENCODING 7898
SWIDTH 665 0
DWIDTH 9 0
BBX 10 14 0 0
BITMAP
000700
000900
001C70
000070
02BEA0
1D53C0
72C2C0
A782C0
5F42C0
1F03C0
1E0780
1E0F00
1E6D00
0BE400
ENDCHAR
STARTCHAR uni1EDB
ENCODING 7899
SWIDTH 439 0
DWIDTH 6 0
BBX 7 10 0 0
BITMAP
00D0
0194
0118
1BB4
7C90
B490
F0D0
F0C0
F280
7D00
ENDCHAR
STARTCHAR uni1EDC
ENCODING 7900
SWIDTH 665 0
DWIDTH 9 0
BBX 10 14 0 0
BITMAP
00A000
007010
003070
000070
02BEA0
1D53C0
72C2C0
A782C0
5F42C0
1F03C0
1E0780
1E0F00
1E6D00
0BE400
ENDCHAR
STARTCHAR uni1EDD
ENCODING 7901
SWIDTH 439 0
DWIDTH 6 0
BBX 7 10 0 0
BITMAP
0700
0344
0258
1BA4
7C90
B490
F0D0
F0C0
F280
7D00
ENDCHAR
STARTCHAR uni1EDE
ENCODING 7902
SWIDTH 665 0
DWIDTH 9 0
BBX 10 14 0 0
BITMAP
001E00
000200
000870
000070
02BEA0
1D53C0
72C2C0
A782C0
5F42C0
1F03C0
1E0780
1E0F00
1E6D00
0BE400
ENDCHAR
STARTCHAR uni1EDF
ENCODING 7903
SWIDTH 439 0
DWIDTH 6 0
BBX 7 10 0 0
BITMAP
02D0
0158
0018
1BB4
7C90
B490
F0D0
F0C0
F280
7D00
ENDCHAR
STARTCHAR uni1EE0
ENCODING 7904
SWIDTH 665 0
DWIDTH 9 0
BBX 10 13 0 0
BITMAP
00BA00
001470
000070
02BEA0
1D53C0
72C2C0
A782C0
5F42C0
1F03C0
1E0780
1E0F00
1E6D00
0BE400
ENDCHAR
STARTCHAR uni1EE1
ENCODING 7905
SWIDTH 439 0
DWIDTH 6 0
BBX 7 10 0 0
BITMAP
1E44
1B58
0018
1BA0
7C90
B490
F0D0
F1C0
F740
7D00
ENDCHAR
STARTCHAR uni1EE2
ENCODING 7906
SWIDTH 665 0
DWIDTH 9 0
BBX 10 16 0 -3
BITMAP
000010
000070
000070
02BE90
1D5380
72C2C0
A782C0
5F42C0
1F03C0
1E0780
1E0F00
1E6D00
0BE400
000000
078000
074000
ENDCHAR
STARTCHAR uni1EE3
ENCODING 7907
SWIDTH 439 0
DWIDTH 6 0
BBX 7 12 0 -3
BITMAP
0018
0018
1BB4
7C90
B490
F0D0
F0C0
F280
7D00
0000
7400
7400
ENDCHAR
STARTCHAR uni1EE4
ENCODING 7908
SWIDTH 716 0
DWIDTH 10 0
BBX 11 13 0 -3
BITMAP
06E0B4
25D0B4
A2D0F0
D3C1E0
5781E0
0B42D0
0B03C0
0F0780
0B9F00
06F900
000000
02D000
02D000
ENDCHAR
STARTCHAR uni1EE5
ENCODING 7909
SWIDTH 505 0
DWIDTH 7 0
BBX 8 10 0 -3
BITMAP
3CB4
78F0
B4F0
B5E0
F2D1
F7E9
B9F4
0000
2D00
2C00
ENDCHAR
STARTCHAR uni1EE6
ENCODING 7910
SWIDTH 716 0
DWIDTH 10 0
BBX 11 14 0 0
BITMAP
000780
000080
000200
000000
06E0B4
25D0B4
A2D0F0
D3C1E0
5781E0
0B42D0
0B03C0
0F0780
0B9F00
06F900
ENDCHAR
STARTCHAR uni1EE7
ENCODING 7911
SWIDTH 505 0
DWIDTH 7 0
BBX 8 10 0 0
BITMAP
02D0
0240
0000
3CB4
78F0
B4F0
B5E0
F2D1
F7E9
B9F4
ENDCHAR
STARTCHAR uni1EE8
ENCODING 7912
SWIDTH 716 0
DWIDTH 10 0
BBX 12 14 0 0
BITMAP
0000D0
000283
000103
000005
06E0B4
25D0B0
A2D0F0
D3C1E0
5781E0
0B42D0
0B03C0
0F0780
0B9F00
06F900
ENDCHAR
STARTCHAR uni1EE9
ENCODING 7913
SWIDTH 505 0
DWIDTH 7 0
BBX 8 10 0 0
BITMAP
00A0
01CA
0009
3CB8
78F0
B4F0
B5E0
F2D1
F7E9
B9F4
ENDCHAR
STARTCHAR uni1EEA
ENCODING 7914
SWIDTH 716 0
DWIDTH 10 0
BBX 12 14 0 0
BITMAP
001D00
000D03
000903
000005
06E0B4
25D0B4
A2D0F0
D3C1E0
5781E0
0B42D0
0B03C0
0F0780
0B9F00
06F900
ENDCHAR
STARTCHAR uni1EEB
ENCODING 7915
SWIDTH 505 0
DWIDTH 7 0
BBX 8 10 0 0
BITMAP
0700
0345
0249
3CB8
78F0
B4F0
B5E0
F2D1
F7E9
B9F4
ENDCHAR
STARTCHAR uni1EEC
ENCODING 7916
SWIDTH 716 0
DWIDTH 10 0
BBX 12 14 0 0
BITMAP
000780
000082
000203
000006
06E0B8
25D0B4
A2D0F0
D3C1E0
5781E0
0B42D0
0B03C0
0F0780
0B9F00
06F900
ENDCHAR
STARTCHAR uni1EED
ENCODING 7917
SWIDTH 505 0
DWIDTH 7 0
BBX 8 10 0 0
BITMAP
02D0
024A
0009
3CB8
78F0
B4F0
B5E0
F2D1
F7E9
B9F4
ENDCHAR
STARTCHAR uni1EEE
ENCODING 7918
SWIDTH 716 0
DWIDTH 10 0
BBX 12 13 0 0
BITMAP
002FA7
000143
000005
06E0B4
25D0B0
A2D0F0
D3C1E0
5781E0
0B42D0
0B03C0
0F0780
0B9F00
06F900
ENDCHAR
STARTCHAR uni1EEF
ENCODING 7919
SWIDTH 505 0
DWIDTH 7 0
BBX 8 10 0 0
BITMAP
0B95
068A
0008
3CB4
78F0
B4F0
B5E0
F2D1
F7E9
B9F4
ENDCHAR
STARTCHAR uni1EF0
ENCODING 7920
SWIDTH 716 0
DWIDTH 10 0
BBX 12 16 0 -3
BITMAP
000003
000003
000005
06E0B4
25D0B0
A2D0F0
D3C1E0
5781E0
0B42D0
0B03C0
0F0780
0B9F00
06F900
000000
02D000
02D000
ENDCHAR
STARTCHAR uni1EF1
ENCODING 7921
SWIDTH 505 0
DWIDTH 7 0
BBX 8 13 0 -3
BITMAP
0005
000A
0009
3CB4
78F0
B4F0
B5E0
F2D1
F7E9
B9F4
0000
2D00
2C00
ENDCHAR
STARTCHAR Ygrave
ENCODING 7922
SWIDTH 620 0
DWIDTH 9 0
BBX 10 14 0 0
BITMAP
000900
000A00
000600
000000
06E060
29F080
A0F580
D0F600
50BA00
007D00
007C00
00B800
00B400
00F400
ENDCHAR
STARTCHAR ygrave
ENCODING 7923
SWIDTH 505 0
DWIDTH 7 0
BBX 7 13 0 -3
BITMAP
0700
0340
0240
3CB4
78F0
B4F0
B5E0
F2D0
F7D8
BBD0
1B80
6B40
3E00
ENDCHAR
STARTCHAR uni1EF4
ENCODING 7924
SWIDTH 620 0
DWIDTH 9 0
BBX 10 13 0 -3
BITMAP
06E060
29F080
A0F580
D0F600
50BA00
007D00
007C00
00B800
00B400
00F400
000000
01E000
01D000
ENDCHAR
STARTCHAR uni1EF5
ENCODING 7925
SWIDTH 505 0
DWIDTH 7 0
BBX 7 10 0 -3
BITMAP
3CB4
78F0
B4F0
B5E0
F2D0
F7D8
BBD0
1B80
6B64
3E38
ENDCHAR
STARTCHAR uni1EF6
ENCODING 7926
SWIDTH 620 0
DWIDTH 9 0
BBX 10 14 0 0
BITMAP
000780
000080
000200
000000
06E060
29F080
A0F580
D0F600
50BA00
007D00
007C00
00B800
00B400
00F400
ENDCHAR
STARTCHAR uni1EF7
ENCODING 7927
SWIDTH 505 0
DWIDTH 7 0
BBX 7 13 0 -3
BITMAP
02D0
0240
0000
3CB4
78F0
B4F0
B5E0
F2D0
F7D8
BBD0
1B80
6B40
3E00
ENDCHAR
STARTCHAR uni1EF8
ENCODING 7928
SWIDTH 620 0
DWIDTH 9 0
BBX 10 13 0 0
BITMAP
002F90
000540
000000
06E060
29F080
A0F580
D0F600
50BA00
007D00
007C00
00B800
00B400
00F400
ENDCHAR
STARTCHAR uni1EF9
ENCODING 7929
SWIDTH 505 0
DWIDTH 7 0
BBX 7 13 0 -3
BITMAP
0BA4
16A0
0000
3CB4
78F0
B4F0
B5E0
F2D0
F7D8
BBD0
1B80
6B40
3E00
ENDCHAR
STARTCHAR uni2010
ENCODING 8208
SWIDTH 290 0
DWIDTH 4 0
BBX 3 1 0 3
BITMAP
BC
ENDCHAR
STARTCHAR endash
ENCODING 8211
SWIDTH 352 0
DWIDTH 5 0
BBX 4 1 0 3
BITMAP
BF
ENDCHAR
STARTCHAR emdash
ENCODING 8212
SWIDTH 444 0
DWIDTH 6 0
BBX 6 1 0 3
BITMAP
BFD0
ENDCHAR
STARTCHAR quoteleft
ENCODING 8216
SWIDTH 209 0
DWIDTH 3 0
BBX 2 3 1 7
BITMAP
20
B0
B0
ENDCHAR
STARTCHAR quoteright
ENCODING 8217
SWIDTH 238 0
DWIDTH 3 0
BBX 2 3 1 7
BITMAP
B0
70
50
ENDCHAR
STARTCHAR quotesinglbase
ENCODING 8218
SWIDTH 220 0
DWIDTH 3 0
BBX 2 3 0 -1
BITMAP
E0
E0
80
ENDCHAR
STARTCHAR quotedblleft
ENCODING 8220
SWIDTH 429 0
DWIDTH 6 0
BBX 5 3 1 7
BITMAP
2140
B380
B280
ENDCHAR
STARTCHAR quotedblright
ENCODING 8221
SWIDTH 426 0
DWIDTH 6 0
BBX 5 3 1 7
BITMAP
76C0
76C0
2140
ENDCHAR
STARTCHAR quotedblbase
ENCODING 8222
SWIDTH 440 0
DWIDTH 6 0
BBX 5 3 0 -1
BITMAP
E740
E740
8200
ENDCHAR
STARTCHAR dagger
ENCODING 8224
SWIDTH 495 0
DWIDTH 7 0
BBX 6 13 1 -3
BITMAP
0300
0300
0600
6A90
FFD0
0C00
1800
2400
2400
3000
3000
6000
9000
ENDCHAR
STARTCHAR daggerdbl
ENCODING 8225
SWIDTH 495 0
DWIDTH 7 0
BBX 7 13 0 -3
BITMAP
00C0
00C0
0180
1AA4
3FF4
0300
7FE0
BFE0
0900
0C00
0C00
1800
2400
ENDCHAR
STARTCHAR bullet
ENCODING 8226
SWIDTH 434 0
DWIDTH 6 0
BBX 4 3 1 2
BITMAP
28
7D
2C
ENDCHAR
STARTCHAR ellipsis
ENCODING 8230
SWIDTH 702 0
DWIDTH 10 0
BBX 10 2 0 0
BITMAP
74E2D0
74E2D0
ENDCHAR
STARTCHAR perthousand
ENCODING 8240
SWIDTH 1175 0
DWIDTH 16 0
BBX 17 10 0 0
BITMAP
0B80C00000
28C2400000
35C6000000
71C9000000
7258B42E00
2E329CA340
00971CD340
018728D700
024734DA00
0602D0B800
ENDCHAR
STARTCHAR minute
ENCODING 8242
SWIDTH 196 0
DWIDTH 3 0
BBX 3 4 1 6
BITMAP
74
60
90
40
ENDCHAR
STARTCHAR second
ENCODING 8243
SWIDTH 341 0
DWIDTH 5 0
BBX 5 4 1 6
BITMAP
7740
6600
9900
4400
ENDCHAR
STARTCHAR guilsinglleft
ENCODING 8249
SWIDTH 359 0
DWIDTH 5 0
BBX 5 5 0 1
BITMAP
0240
2800
A000
1900
0200
ENDCHAR
STARTCHAR guilsinglright
ENCODING 8250
SWIDTH 344 0
DWIDTH 5 0
BBX 5 5 0 1
BITMAP
2400
0A00
0280
1900
5000
ENDCHAR
STARTCHAR fraction
ENCODING 8260
SWIDTH 248 0
DWIDTH 3 0
BBX 6 10 -1 0
BITMAP
0020
0060
00C0
0240
0600
0900
1800
3000
9000
C000
ENDCHAR
STARTCHAR uni2052
ENCODING 8274
SWIDTH 796 0
DWIDTH 11 0
BBX 7 10 2 0
BITMAP
B00C
B024
0060
0090
0180
0300
0900
1800
243C
6028
ENDCHAR
STARTCHAR uni2070
ENCODING 8304
SWIDTH 379 0
DWIDTH 5 0
BBX 5 6 0 4
BITMAP
0B80
28C0
35C0
71C0
7240
2E00
ENDCHAR
STARTCHAR uni2074
ENCODING 8308
SWIDTH 352 0
DWIDTH 5 0
BBX 4 6 1 4
BITMAP
66
69
9D
AD
18
14
ENDCHAR
STARTCHAR uni2075
ENCODING 8309
SWIDTH 335 0
DWIDTH 5 0
BBX 5 6 0 4
BITMAP
1A40
2400
2A00
3340
6340
2D00
ENDCHAR
STARTCHAR uni2076
ENCODING 8310
SWIDTH 351 0
DWIDTH 5 0
BBX 5 6 0 4
BITMAP
0B40
2880
3400
7640
7240
2E00
ENDCHAR
STARTCHAR uni2077
ENCODING 8311
SWIDTH 329 0
DWIDTH 5 0
BBX 4 6 1 4
BITMAP
BD
18
20
90
C0
80
ENDCHAR
STARTCHAR uni2078
ENCODING 8312
SWIDTH 354 0
DWIDTH 5 0
BBX 5 7 0 3
BITMAP
0B40
1C80
1E40
1F00
3380
7280
2E00
ENDCHAR
STARTCHAR uni2079
ENCODING 8313
SWIDTH 345 0
DWIDTH 5 0
BBX 4 6 1 4
BITMAP
7D
CA
CA
A9
5C
50
ENDCHAR
STARTCHAR uni2080
ENCODING 8320
SWIDTH 379 0
DWIDTH 5 0
BBX 5 6 0 0
BITMAP
0B80
28C0
35C0
71C0
7280
2E00
ENDCHAR
STARTCHAR uni2081
ENCODING 8321
SWIDTH 229 0
DWIDTH 3 0
BBX 3 6 0 0
BITMAP
04
7C
28
24
30
70
ENDCHAR
STARTCHAR uni2082
ENCODING 8322
SWIDTH 328 0
DWIDTH 5 0
BBX 5 6 0 0
BITMAP
1F00
2340
1700
0900
2000
7E00
ENDCHAR
STARTCHAR uni2083
ENCODING 8323
SWIDTH 336 0
DWIDTH 5 0
BBX 5 6 0 0
BITMAP
1B40
2680
0600
1740
6340
2A00
ENDCHAR
STARTCHAR uni2084
ENCODING 8324
SWIDTH 352 0
DWIDTH 5 0
BBX 4 6 1 0
BITMAP
66
69
9D
AD
1C
28
ENDCHAR
STARTCHAR uni2085
ENCODING 8325
SWIDTH 335 0
DWIDTH 5 0
BBX 5 6 0 0
BITMAP
1A40
1400
2A00
2340
6340
2D00
ENDCHAR
STARTCHAR uni2086
ENCODING 8326
SWIDTH 351 0
DWIDTH 5 0
BBX 5 6 0 0
BITMAP
0B40
2880
3B40
7680
7240
2E00
ENDCHAR
STARTCHAR uni2087
ENCODING 8327
SWIDTH 329 0
DWIDTH 5 0
BBX 4 6 1 0
BITMAP
FD
18
20
90
D0
C0
ENDCHAR
STARTCHAR uni2088
ENCODING 8328
SWIDTH 354 0
DWIDTH 5 0
BBX 5 6 0 0
BITMAP
0B40
1D80
0E00
2740
7280
2E00
ENDCHAR
STARTCHAR uni2089
ENCODING 8329
SWIDTH 345 0
DWIDTH 5 0
BBX 4 6 1 0
BITMAP
7C
CA
CA
A9
4C
A4
ENDCHAR
STARTCHAR colonmonetary
ENCODING 8353
SWIDTH 384 0
DWIDTH 5 0
BBX 6 11 0 -1
BITMAP
0250
03D0
1860
34A0
B000
A000
E000
B440
3F40
2500
1400
ENDCHAR
STARTCHAR franc
ENCODING 8355
SWIDTH 529 0
DWIDTH 7 0
BBX 8 10 0 0
BITMAP
03FE
03C0
03C0
0780
0BF4
0B40
0F00
BFE0
1E00
2D00
ENDCHAR
STARTCHAR lira
ENCODING 8356
SWIDTH 455 0
DWIDTH 6 0
BBX 7 10 0 0
BITMAP
01B8
039C
0B44
0B00
7FE0
BFD0
2D00
2C04
7FFC
41F4
ENDCHAR
STARTCHAR uni20A6
ENCODING 8358
SWIDTH 723 0
DWIDTH 10 0
BBX 11 10 0 0
BITMAP
02E070
02E0A0
03F0D0
07F4D0
6FFAE8
0A7A80
BFFFF4
0D3F40
1C2F00
281F00
ENDCHAR
STARTCHAR uni20A9
ENCODING 8361
SWIDTH 841 0
DWIDTH 12 0
BBX 13 10 0 0
BITMAP
1F03C180
0F0BC240
0F0FC200
0F1BC900
6FBBEE80
0F23D800
BFFFFF40
0F83E000
0F83E000
0F43C000
ENDCHAR
STARTCHAR Euro
ENCODING 8364
SWIDTH 507 0
DWIDTH 7 0
BBX 9 10 0 0
BITMAP
00BE00
02C740
0B4B00
0F0000
7FF800
BFF400
2E0000
1E0000
0F5800
07E400
ENDCHAR
STARTCHAR uni20AE
ENCODING 8366
SWIDTH 481 0
DWIDTH 7 0
BBX 10 10 0 0
BITMAP
1AFFE0
74F000
A1E000
91E500
06F900
27D900
1BD400
578000
078000
0B4000
ENDCHAR
STARTCHAR uni20B3
ENCODING 8371
SWIDTH 573 0
DWIDTH 8 0
BBX 9 10 0 0
BITMAP
06F900
394B00
A3C740
D78B00
1B5D00
2FE400
0F0000
7FE000
1E0000
2D0000
ENDCHAR
STARTCHAR uni20B4
ENCODING 8372
SWIDTH 570 0
DWIDTH 8 0
BBX 8 10 0 0
BITMAP
06F8
1C2D
0438
3FFD
0280
7FFC
2C78
782C
7828
2FE0
ENDCHAR
STARTCHAR uni20B8
ENCODING 8376
SWIDTH 522 0
DWIDTH 7 0
BBX 11 10 0 0
BITMAP
2FFFF4
06F910
28BAE0
B0F400
E0F000
61E000
02E000
02D000
03C000
078000
ENDCHAR
STARTCHAR uni20B9
ENCODING 8377
SWIDTH 544 0
DWIDTH 8 0
BBX 7 12 1 -1
BITMAP
6FA8
03C0
ABE8
02D0
0780
BE00
0B40
0780
0B40
0F00
0F00
0500
ENDCHAR
STARTCHAR uni20BA
ENCODING 8378
SWIDTH 455 0
DWIDTH 6 0
BBX 8 10 0 0
BITMAP
03C0
0780
07A0
1B80
5FA0
2F04
1E0D
2D1D
2D74
3F90
ENDCHAR
STARTCHAR uni20BD
ENCODING 8381
SWIDTH 573 0
DWIDTH 8 0
BBX 9 10 0 0
BITMAP
06F900
394B00
A3C740
D78B00
1B5D00
7FE400
0F0000
7FD000
1E0000
2D0000
ENDCHAR
STARTCHAR uni2116
ENCODING 8470
SWIDTH 996 0
DWIDTH 14 0
BBX 14 10 0 0
BITMAP
16D07000
63E0A2D0
A3F0AA60
A7B4D950
1B75CB80
0A798000
0D3E9FD0
0D2F4000
1C1F0000
281F0000
ENDCHAR
STARTCHAR uni2120
ENCODING 8480
SWIDTH 585 0
DWIDTH 8 0
BBX 7 5 1 6
BITMAP
1444
2494
19A4
59A4
5550
ENDCHAR
STARTCHAR trademark
ENCODING 8482
SWIDTH 379 0
DWIDTH 5 0
BBX 5 3 0 6
BITMAP
6540
5680
8680
ENDCHAR
STARTCHAR uni2126
ENCODING 8486
SWIDTH 745 0
DWIDTH 10 0
BBX 10 11 0 0
BITMAP
006F40
02D6D0
0600A0
0D0060
1800A0
2800A0
2800D0
280180
1C0300
090900
7F2FC0
ENDCHAR
STARTCHAR uni212A
ENCODING 8490
SWIDTH 601 0
DWIDTH 8 0
BBX 9 10 0 0
BITMAP
06D280
26D600
A3DC00
D7E000
57F900
0B5E00
0F1E00
0F2D00
1E3C00
2D2C00
ENDCHAR
STARTCHAR uni212B
ENCODING 8491
SWIDTH 668 0
DWIDTH 9 0
BBX 10 14 0 -2
BITMAP
000050
0000A0
0001E0
000AD0
0023D0
0093C0
2BE780
A34B80
5B0B40
0E0F00
1D0F00
2C1E00
2C1500
180000
ENDCHAR
STARTCHAR estimated
ENCODING 8494
SWIDTH 786 0
DWIDTH 11 0
BBX 11 10 0 0
BITMAP
01BA00
0E02C0
2D01F0
7D01F4
7FAAF4
7D0000
7D0000
2D0000
0E0180
01B900
ENDCHAR
STARTCHAR uni2153
ENCODING 8531
SWIDTH 733 0
DWIDTH 10 0
BBX 10 11 0 0
BITMAP
040000
7C0300
280900
240C00
342400
7062E0
109330
018190
0301A0
090970
180690
ENDCHAR
STARTCHAR uni2154
ENCODING 8532
SWIDTH 852 0
DWIDTH 12 0
BBX 12 10 0 0
BITMAP
1F0060
234090
170180
080300
20092D
7E1866
002419
006049
00C0CA
0240A8
ENDCHAR
STARTCHAR oneeighth
ENCODING 8539
SWIDTH 741 0
DWIDTH 10 0
BBX 10 11 0 0
BITMAP
040000
7C0300
280900
240C00
342400
7062E0
109360
0182D0
0306A0
090970
1807D0
ENDCHAR
STARTCHAR threeeighths
ENCODING 8540
SWIDTH 828 0
DWIDTH 12 0
BBX 12 10 0 0
BITMAP
1F4090
164180
060300
334600
634C7D
2924A9
006078
0091AC
01828D
0301F8
ENDCHAR
STARTCHAR fiveeighths
ENCODING 8541
SWIDTH 827 0
DWIDTH 12 0
BBX 12 10 0 0
BITMAP
1A4090
240180
2A0300
334600
634C7C
2D2499
006078
0091AC
01828D
0301F8
ENDCHAR
STARTCHAR seveneighths
ENCODING 8542
SWIDTH 761 0
DWIDTH 11 0
BBX 10 10 1 0
BITMAP
BD0900
181800
202400
906000
C0C7D0
824A50
060780
091AC0
1828D0
301F80
ENDCHAR
STARTCHAR partialdiff
ENCODING 8706
SWIDTH 597 0
DWIDTH 8 0
BBX 9 11 0 0
BITMAP
00B900
025B00
000340
000340
000340
06F700
1D5A00
300900
601800
747000
2F8000
ENDCHAR
STARTCHAR uni2206
ENCODING 8710
SWIDTH 619 0
DWIDTH 9 0
BBX 9 11 0 0
BITMAP
001400
003D00
006D00
00DE00
028A00
070B00
0A0700
1C0700
340740
600340
BFFF80
ENDCHAR
STARTCHAR product
ENCODING 8719
SWIDTH 661 0
DWIDTH 9 0
BBX 9 11 0 0
BITMAP
7FFFC0
0D1D00
0C1C00
1C1800
182400
243400
343000
306000
60A000
A09000
508000
ENDCHAR
STARTCHAR summation
ENCODING 8721
SWIDTH 605 0
DWIDTH 8 0
BBX 9 10 0 0
BITMAP
0BFF80
0B0000
034000
01C000
00E000
00D000
034000
0A0000
280000
BFF800
ENDCHAR
STARTCHAR minus
ENCODING 8722
SWIDTH 471 0
DWIDTH 7 0
BBX 6 1 0 4
BITMAP
7FE0
ENDCHAR
STARTCHAR uni2215
ENCODING 8725
SWIDTH 488 0
DWIDTH 7 0
BBX 7 11 0 0
BITMAP
0004
0024
0060
0090
0180
0300
0A00
0C00
2400
6000
9000
ENDCHAR
STARTCHAR uni2219
ENCODING 8729
SWIDTH 434 0
DWIDTH 6 0
BBX 4 3 1 2
BITMAP
28
7D
3C
ENDCHAR
STARTCHAR radical
ENCODING 8730
SWIDTH 660 0
DWIDTH 9 0
BBX 9 10 0 0
BITMAP
001F80
002800
003000
006000
00D000
01C000
B64000
270000
2E0000
1D0000
ENDCHAR
STARTCHAR infinity
ENCODING 8734
SWIDTH 833 0
DWIDTH 12 0
BBX 10 5 0 2
BITMAP
0B82E0
35ED70
607430
71E860
3E0B80
ENDCHAR
STARTCHAR integral
ENCODING 8747
SWIDTH 305 0
DWIDTH 4 0
BBX 8 14 -2 -2
BITMAP
0029
0060
0090
00D0
00C0
0180
0280
0240
0340
0700
0600
0A00
0D00
6800
ENDCHAR
STARTCHAR approxequal
ENCODING 8776
SWIDTH 441 0
DWIDTH 6 0
BBX 7 5 0 1
BITMAP
2FF4
1000
0000
7FE0
5000
ENDCHAR
STARTCHAR notequal
ENCODING 8800
SWIDTH 500 0
DWIDTH 7 0
BBX 7 7 0 0
BITMAP
0140
1AA4
2FF4
0200
2AA0
7FE0
0800
ENDCHAR
STARTCHAR lessequal
ENCODING 8804
SWIDTH 405 0
DWIDTH 6 0
BBX 6 7 0 2
BITMAP
0050
0690
2D00
2D00
0280
0000
FFC0
ENDCHAR
STARTCHAR greaterequal
ENCODING 8805
SWIDTH 405 0
DWIDTH 6 0
BBX 6 7 0 2
BITMAP
1400
1B40
01E0
0B40
3400
0000
BFC0
ENDCHAR
STARTCHAR lozenge
ENCODING 9674
SWIDTH 619 0
DWIDTH 9 0
BBX 8 11 0 0
BITMAP
0060
00F4
0258
0A0D
1C0A
7007
300A
2428
1C70
0DC0
0B40
ENDCHAR
STARTCHAR uni27E8
ENCODING 10216
SWIDTH 456 0
DWIDTH 6 0
BBX 5 14 1 -2
BITMAP
0080
0180
0200
0800
2400
6000
8000
8000
5000
2000
1800
0900
0200
0140
ENDCHAR
STARTCHAR uni27E9
ENCODING 10217
SWIDTH 456 0
DWIDTH 6 0
BBX 6 14 0 -2
BITMAP
2000
2400
0800
0600
0240
0080
0050
0050
0180
0200
0900
1400
6000
8000
ENDCHAR
STARTCHAR ff
ENCODING 64256
SWIDTH 508 0
DWIDTH 7 0
BBX 12 13 -3 -3
BITMAP
002EBD
00B5E1
00F2E0
00FFF8
01E3C0
02D3C0
02D780
03CB40
078B40
0B9F00
6B5E00
CF2D00
7EB800
ENDCHAR
STARTCHAR fi
ENCODING 64257
SWIDTH 534 0
DWIDTH 7 0
BBX 11 13 -3 -3
BITMAP
001FD0
0078E0
00F040
00FDE0
01E2D0
02E3D0
02D3C0
03C784
078798
0B83E0
6B4000
8F0000
7D0000
ENDCHAR
STARTCHAR fl
ENCODING 64258
SWIDTH 548 0
DWIDTH 8 0
BBX 11 13 -3 -3
BITMAP
002E90
00B4B4
00F0F0
00FDF0
01E1E0
02D2D0
02D2D0
03C3C4
0783D8
0B82E0
6B4000
8F0000
7D0000
ENDCHAR
STARTCHAR ffi
ENCODING 64259
SWIDTH 764 0
DWIDTH 11 0
BBX 14 13 -3 -3
BITMAP
002E6F80
00B5E2C0
00F2D140
00FFFF80
01E3C780
02E78B40
02DB8B40
03CB4F10
07CF0F60
0B9E0B80
6B5E0000
CF2D0000
7EB40000
ENDCHAR
STARTCHAR ffl
ENCODING 64260
SWIDTH 780 0
DWIDTH 11 0
BBX 15 13 -3 -3
BITMAP
002EBE40
00B5E1E0
00F2D2D0
00FFF7C0
01E3C3C0
02E78780
02DB8B40
03CB4B44
07CF0F60
0B9E0B90
6B5E0000
CF2D0000
7EB40000
ENDCHAR
STARTCHAR .notdef
ENCODING -1
SWIDTH 810 0
DWIDTH 11 0
BBX 12 18 0 -4
BITMAP
01AAA9
020004
020008
020008
050004
051914
089A20
085920
081420
142050
100040
205080
200080
100080
500140
800100
800200
AAA900
ENDCHAR
STARTCHAR A.salt
ENCODING -1
SWIDTH 590 0
DWIDTH 8 0
BBX 9 12 0 -2
BITMAP
001B40
006B40
018F00
021F00
0BBE00
1C2D00
283D00
743C00
B07800
B07800
A00000
100000
ENDCHAR
STARTCHAR B.salt
ENCODING -1
SWIDTH 633 0
DWIDTH 9 0
BBX 9 10 0 0
BITMAP
06FD00
7A8700
A3CA00
97FE00
074F40
0B4B40
0F0F40
0E0F00
1E2D00
2EF400
ENDCHAR
STARTCHAR E.salt
ENCODING -1
SWIDTH 554 0
DWIDTH 8 0
BBX 9 10 0 0
BITMAP
1AFF40
63C000
A3C000
978000
1BF400
0B4000
0F0000
1F0000
1E0000
2FF400
ENDCHAR
STARTCHAR N.salt
ENCODING -1
SWIDTH 669 0
DWIDTH 9 0
BBX 10 10 0 0
BITMAP
06EB40
27D3C0
A7C3C0
D78780
5B8780
0F4B40
0F0F00
1F0E00
2E1E20
2D0B80
ENDCHAR
STARTCHAR i.loclTRK
ENCODING -1
SWIDTH 267 0
DWIDTH 4 0
BBX 4 10 0 0
BITMAP
2D
2D
00
3C
78
B4
B4
F1
F6
B8
ENDCHAR
STARTCHAR a.end
ENCODING -1
SWIDTH 467 0
DWIDTH 7 0
BBX 7 7 0 0
BITMAP
1BB8
7CB4
B4B4
F0F0
F1F0
F2E0
B9F4
ENDCHAR
STARTCHAR aacute.end
ENCODING -1
SWIDTH 461 0
DWIDTH 6 0
BBX 8 10 -1 0
BITMAP
0028
0030
0010
06EE
1E2D
2D3C
3C3C
7C78
3CB8
2E7C
ENDCHAR
STARTCHAR c.end
ENCODING -1
SWIDTH 341 0
DWIDTH 5 0
BBX 6 7 -1 0
BITMAP
06E0
1E30
2D10
3C00
7C00
7C00
2F80
ENDCHAR
STARTCHAR d.end
ENCODING -1
SWIDTH 476 0
DWIDTH 7 0
BBX 7 10 0 0
BITMAP
0018
003C
007C
1BB8
7CB4
B4B4
F0F0
F1F0
F2E0
B9F4
ENDCHAR
STARTCHAR e.end
ENCODING -1
SWIDTH 366 0
DWIDTH 5 0
BBX 6 7 -1 0
BITMAP
06E0
1E30
2DA0
3F80
7C00
3C00
1F80
ENDCHAR
STARTCHAR eacute.end
ENCODING -1
SWIDTH 367 0
DWIDTH 5 0
BBX 6 10 0 0
BITMAP
00D0
0280
0100
1B80
38C0
B680
FE00
F000
F000
7E00
ENDCHAR
STARTCHAR uni0292.end
ENCODING -1
SWIDTH 391 0
DWIDTH 5 0
BBX 6 10 0 -3
BITMAP
7FD0
9780
0F00
2D00
3D00
0F00
0B40
6F40
8F00
BD00
ENDCHAR
STARTCHAR g.end
ENCODING -1
SWIDTH 480 0
DWIDTH 7 0
BBX 7 10 0 -3
BITMAP
1BB8
7CB4
B4B0
F0F0
F1E0
F2E0
BBD0
17C0
2780
2E00
ENDCHAR
STARTCHAR uni01E5.end
ENCODING -1
SWIDTH 507 0
DWIDTH 7 0
BBX 7 10 0 -3
BITMAP
1BB8
7CB4
B4B4
F0F0
F1E0
F2E0
BBD0
17C0
7BE0
2E40
ENDCHAR
STARTCHAR h.end
ENCODING -1
SWIDTH 453 0
DWIDTH 6 0
BBX 7 10 -1 0
BITMAP
0640
0B40
0F00
0FB8
1E3C
2D3C
2D78
3CB4
78B8
7878
ENDCHAR
STARTCHAR i.end
ENCODING -1
SWIDTH 209 0
DWIDTH 3 0
BBX 4 10 0 0
BITMAP
2D
2D
00
3C
78
B4
B4
F0
F4
B4
ENDCHAR
STARTCHAR iacute.end
ENCODING -1
SWIDTH 209 0
DWIDTH 3 0
BBX 4 10 0 0
BITMAP
07
0D
04
3C
78
B4
B4
F0
F4
B4
ENDCHAR
STARTCHAR ij.end
ENCODING -1
SWIDTH 480 0
DWIDTH 7 0
BBX 7 13 0 -3
BITMAP
2D3C
2D28
0000
3C78
78B4
B4F0
B4F0
F1E0
F6E0
BAD0
27C0
2780
2E00
ENDCHAR
STARTCHAR j.end
ENCODING -1
SWIDTH 213 0
DWIDTH 3 0
BBX 7 13 -3 -3
BITMAP
00B4
00B4
0000
00F0
01E0
02D0
02D0
03C0
0780
0B80
6B40
8F00
7D00
ENDCHAR
STARTCHAR k.end
ENCODING -1
SWIDTH 472 0
DWIDTH 7 0
BBX 8 10 -1 0
BITMAP
0640
0B40
0F00
0F18
1EA0
2FF4
2D78
3C78
7878
783D
ENDCHAR
STARTCHAR l.end
ENCODING -1
SWIDTH 207 0
DWIDTH 3 0
BBX 4 9 0 0
BITMAP
2D
3D
3C
78
B8
B4
F0
F0
B4
ENDCHAR
STARTCHAR m.end
ENCODING -1
SWIDTH 701 0
DWIDTH 10 0
BBX 11 7 -1 0
BITMAP
0FBAF0
1E3DB4
2D7CB4
2D78F0
3CB4F0
78B4F4
78F0B4
ENDCHAR
STARTCHAR n.end
ENCODING -1
SWIDTH 454 0
DWIDTH 6 0
BBX 7 7 -1 0
BITMAP
0FB8
1E3C
2D3C
2D78
3C74
78B8
7878
ENDCHAR
STARTCHAR o.end
ENCODING -1
SWIDTH 487 0
DWIDTH 7 0
BBX 8 7 -1 0
BITMAP
06E0
1F35
2D38
3C34
7C30
3CA0
1F80
ENDCHAR
STARTCHAR oacute.end
ENCODING -1
SWIDTH 487 0
DWIDTH 7 0
BBX 7 10 0 0
BITMAP
00D0
0180
0100
1B80
3C94
B4E0
F0D0
F0C0
F280
7E00
ENDCHAR
STARTCHAR s.end
ENCODING -1
SWIDTH 316 0
DWIDTH 4 0
BBX 6 8 -1 0
BITMAP
0140
07C0
0BD0
0AD0
22D0
76D0
52D0
2F40
ENDCHAR
STARTCHAR t.end
ENCODING -1
SWIDTH 276 0
DWIDTH 4 0
BBX 4 9 0 0
BITMAP
2D
3C
7E
78
78
B4
F0
F4
B4
ENDCHAR
STARTCHAR u.end
ENCODING -1
SWIDTH 459 0
DWIDTH 6 0
BBX 7 7 0 0
BITMAP
3CB4
78F0
B4F0
B5E0
F2D0
F7E0
B9E0
ENDCHAR
STARTCHAR uacute.end
ENCODING -1
SWIDTH 459 0
DWIDTH 6 0
BBX 7 10 0 0
BITMAP
00D0
0280
0100
3CB4
78F0
B4F0
B5E0
F2D0
F7E0
B9E0
ENDCHAR
STARTCHAR x.end
ENCODING -1
SWIDTH 500 0
DWIDTH 7 0
BBX 7 7 0 0
BITMAP
1B58
239C
43E0
83D0
47D0
19E4
60B4
ENDCHAR
STARTCHAR y.end
ENCODING -1
SWIDTH 460 0
DWIDTH 6 0
BBX 7 10 0 -3
BITMAP
3CB4
78F0
B4F0
B5E0
F2D0
F7D0
BBC0
2B80
5740
2E00
ENDCHAR
STARTCHAR k.salt
ENCODING -1
SWIDTH 518 0
DWIDTH 7 0
BBX 9 10 -1 0
BITMAP
064000
0B4000
0F0000
0F1D00
1EA800
2FE400
2EB800
3C7840
787940
787E00
ENDCHAR
STARTCHAR p.salt
ENCODING -1
SWIDTH 482 0
DWIDTH 7 0
BBX 9 12 -1 -4
BITMAP
050000
0FB400
1F7C00
2D2C00
2D2E40
3CB800
7A7400
7AD000
B40000
F00000
F00000
400000
ENDCHAR
STARTCHAR E_x
ENCODING -1
SWIDTH 797 0
DWIDTH 11 0
BBX 12 10 0 0
BITMAP
02F400
0F1800
0E1428
0B4B4C
2E0798
7C07E0
B803C0
F807C1
B81AE9
2F91F4
ENDCHAR
STARTCHAR F_i
ENCODING -1
SWIDTH 726 0
DWIDTH 10 0
BBX 11 10 0 0
BITMAP
0AFFF0
72E6D0
A3D000
D3C2D0
57F7C0
0783C0
0B4780
0F0B44
0F0BA4
1E07D0
ENDCHAR
STARTCHAR T_h
ENCODING -1
SWIDTH 971 0
DWIDTH 14 0
BBX 14 10 0 0
BITMAP
1AFEA400
74F1F000
A0F1E000
91E1EF00
02D2D740
02D3CB40
03C38B40
07878F00
078B4F20
0B4B4B80
ENDCHAR
STARTCHAR T_i
ENCODING -1
SWIDTH 744 0
DWIDTH 10 0
BBX 11 10 0 0
BITMAP
1AFFF0
74FAF0
A0F000
D1E1E0
52D2D0
02D3C0
03C3C0
078784
078794
0B43E0
ENDCHAR
STARTCHAR a_x
ENCODING -1
SWIDTH 899 0
DWIDTH 13 0
BBX 13 7 0 0
BITMAP
1BB9E740
7CB4F240
B4B4F600
F0F0B800
F1E0B840
F6F6BD80
B9B92E00
ENDCHAR
STARTCHAR a_z
ENCODING -1
SWIDTH 906 0
DWIDTH 13 0
BBX 13 7 0 0
BITMAP
1BB8BF40
7CB58F00
B4B42D00
F0F07800
F1F0F400
F2E1E200
B9F7FE00
ENDCHAR
STARTCHAR b_s
ENCODING -1
SWIDTH 799 0
DWIDTH 11 0
BBX 12 10 0 0
BITMAP
190000
2D0000
3C0050
3FD2F0
78E5F0
B4F4F0
B4E0F0
F0D9B5
F288F8
BE0BD0
ENDCHAR
STARTCHAR b_s_x
ENCODING -1
SWIDTH 1144 0
DWIDTH 16 0
BBX 17 10 0 0
BITMAP
1900000000
2D00000000
3C00500900
7DD1F2D200
78E4F2D600
B4E0F1E800
B0D0F5F400
F1D9B5F040
F788F9BA00
BE0BD07900
ENDCHAR
STARTCHAR b_s_z
ENCODING -1
SWIDTH 1158 0
DWIDTH 16 0
BBX 16 10 0 0
BITMAP
19000000
2D000000
3C005000
3FD2F1FF
78E6F36D
B4F4F078
B4E0F0B4
F0D9B5E0
F288F3CA
BE0BD7F8
ENDCHAR
STARTCHAR c_x
ENCODING -1
SWIDTH 755 0
DWIDTH 11 0
BBX 12 7 -1 0
BITMAP
06E79C
1E33C9
2D13D8
3C02E0
7802D1
3C1AF6
1F90B8
ENDCHAR
STARTCHAR c_z
ENCODING -1
SWIDTH 769 0
DWIDTH 11 0
BBX 12 7 -1 0
BITMAP
06E2FD
1E337C
2D11B4
3C01E0
7C02D0
7C0788
2F8FF8
ENDCHAR
STARTCHAR e_x
ENCODING -1
SWIDTH 762 0
DWIDTH 11 0
BBX 11 7 0 0
BITMAP
1B8F34
38CF24
B68BA0
FE0B80
F00B84
F427D8
7E82E0
ENDCHAR
STARTCHAR e_z
ENCODING -1
SWIDTH 788 0
DWIDTH 11 0
BBX 12 7 -1 0
BITMAP
06E2FE
1E322D
2DA078
3E40F0
7802E0
7C43C9
2F4BF8
ENDCHAR
STARTCHAR eacute_x
ENCODING -1
SWIDTH 760 0
DWIDTH 11 0
BBX 12 10 -1 0
BITMAP
002800
007000
009000
06E3CD
1E33C9
2DA2E8
3F82E0
7C02E1
3C19F6
1FA0B8
ENDCHAR
STARTCHAR f_f_t
ENCODING -1
SWIDTH 780 0
DWIDTH 11 0
BBX 15 13 -3 -3
BITMAP
002EBE40
00B5E1E0
00F2D2D0
00FFFFE0
01E3C3C0
02E78780
02DB8B40
03CB4B44
07CF0F60
0B9E0B90
6B5E0000
CF2D0000
7EB40000
ENDCHAR
STARTCHAR f_i_x
ENCODING -1
SWIDTH 898 0
DWIDTH 13 0
BBX 16 13 -3 -3
BITMAP
001FD000
0078E000
00F04008
00FDE79D
01E2D3C8
02E3D3D8
02D3C2E0
03C782D1
078799F6
0B83E0B8
6B400000
8F000000
7D000000
ENDCHAR
STARTCHAR f_i_z
ENCODING -1
SWIDTH 904 0
DWIDTH 13 0
BBX 16 13 -3 -3
BITMAP
001FD000
0078E000
00F04000
00FDE2FD
01E2D638
02E3D0B4
02D3C1E0
03C783C0
0787879C
0B83DFF8
6B400000
8F000000
7D000000
ENDCHAR
STARTCHAR f_l_x
ENCODING -1
SWIDTH 912 0
DWIDTH 13 0
BBX 16 13 -3 -3
BITMAP
002E9000
00B4B400
00F0F000
00FDF3C9
01E1E3C5
02D2D2D8
02D2D1F0
03C3C2E1
0783DAF6
0B82E4B8
6B400000
8F000000
7D000000
ENDCHAR
STARTCHAR f_l_z
ENCODING -1
SWIDTH 938 0
DWIDTH 13 0
BBX 16 13 -3 -3
BITMAP
002E9000
00B4B400
00F0F000
00FDF2FE
01E1E36D
02D2D078
02D2D0B0
03C3C1E0
0783C3C9
0B82DBF8
6B400000
8F000000
7D000000
ENDCHAR
STARTCHAR f_t
ENCODING -1
SWIDTH 548 0
DWIDTH 8 0
BBX 11 13 -3 -3
BITMAP
002E90
00B4B4
00F0F0
00FFF8
01E1E0
02D2D0
02D2D0
03C3C4
0783D8
0B82E0
6B4000
8F0000
7D0000
ENDCHAR
STARTCHAR f_u
ENCODING -1
SWIDTH 772 0
DWIDTH 11 0
BBX 14 13 -3 -3
BITMAP
002E0000
00B54000
00F00000
00FFE3C0
01E2D7C0
02D2D780
02D3CB40
03C78F40
0787AF60
0B83D790
6B400000
8F000000
7D000000
ENDCHAR
STARTCHAR f_x
ENCODING -1
SWIDTH 663 0
DWIDTH 9 0
BBX 13 13 -3 -3
BITMAP
002E0000
00B54000
00F00000
00FFD600
01E1E300
02D1E900
02D0F400
03C2F000
0789B440
0B893E00
5B400000
8F000000
7D000000
ENDCHAR
STARTCHAR g_p
ENCODING -1
SWIDTH 975 0
DWIDTH 14 0
BBX 14 11 0 -3
BITMAP
0000F000
1BB8FB80
7CB5E2D0
B4B6E2D0
F0F2D2C0
F1E3C3C0
F2E3CB40
BBEFFD00
1BDB4000
278B4000
2E0E0000
ENDCHAR
STARTCHAR g_x
ENCODING -1
SWIDTH 892 0
DWIDTH 12 0
BBX 13 10 0 -3
BITMAP
1BB9E700
7CB4F200
B4B4F600
F0F0B800
F1E0B440
F7E2B980
BBE42E00
1BC00000
27800000
2E000000
ENDCHAR
STARTCHAR g_z
ENCODING -1
SWIDTH 907 0
DWIDTH 13 0
BBX 14 10 -1 -3
BITMAP
06EE2FD0
1F2D63C0
2D2C0B40
3C3C1E00
7C782D00
3CB47880
2EF4FF80
05F00000
09E00000
0B800000
ENDCHAR
STARTCHAR i_x
ENCODING -1
SWIDTH 631 0
DWIDTH 9 0
BBX 10 10 0 0
BITMAP
2D0000
2D0000
000240
3CF180
78B640
B4BA00
B47800
F0B850
F67D80
B91E00
ENDCHAR
STARTCHAR i_z
ENCODING -1
SWIDTH 637 0
DWIDTH 9 0
BBX 9 10 0 0
BITMAP
2D0000
2D0000
000000
3CBF80
79CF00
B41E00
B43C00
F0B400
F5E340
BAFE00
ENDCHAR
STARTCHAR iacute_x
ENCODING -1
SWIDTH 631 0
DWIDTH 9 0
BBX 10 10 0 0
BITMAP
070000
0C0000
000240
3CF180
78B640
B4BA00
B47800
F0B850
F67D80
B91E00
ENDCHAR
STARTCHAR iacute_z
ENCODING -1
SWIDTH 637 0
DWIDTH 9 0
BBX 9 10 0 0
BITMAP
070000
0D0000
040000
3CBF80
79CF00
B41E00
B43C00
F0B400
F5E340
BAFE00
ENDCHAR
STARTCHAR j_x
ENCODING -1
SWIDTH 624 0
DWIDTH 9 0
BBX 12 13 -3 -3
BITMAP
00B400
00B000
000009
00F3C5
01E3C8
02D2E4
02D1E0
03C2E1
0789F6
0B90B8
6F4000
8F0000
7D0000
ENDCHAR
STARTCHAR j_z
ENCODING -1
SWIDTH 618 0
DWIDTH 9 0
BBX 12 13 -3 -3
BITMAP
00B400
00B400
000000
00F2FD
01E638
02D0B4
02D1E0
03C3C0
07875C
0B8FF8
6B4000
8F0000
7D0000
ENDCHAR
STARTCHAR l_x
ENCODING -1
SWIDTH 631 0
DWIDTH 9 0
BBX 10 10 0 0
BITMAP
190000
2D0000
3C0240
3CF180
78B640
B4BA00
B47800
F0B850
F67D80
B91E00
ENDCHAR
STARTCHAR l_z
ENCODING -1
SWIDTH 635 0
DWIDTH 9 0
BBX 9 10 0 0
BITMAP
190000
2D0000
3C0000
7CBF80
79CF00
B41D00
F43C00
F0B400
F1E200
B6FE00
ENDCHAR
STARTCHAR m_x
ENCODING -1
SWIDTH 1124 0
DWIDTH 16 0
BBX 17 7 -1 0
BITMAP
0FB9F0F240
1E3DB4F240
2D7CB4BA00
2D78F0B800
3CB4F0B840
78B4F67D80
78F0B92E00
ENDCHAR
STARTCHAR m_z
ENCODING -1
SWIDTH 1125 0
DWIDTH 16 0
BBX 17 7 -1 0
BITMAP
0FB9F0BF40
1E3DB58F00
2D7CB42D00
2D78F07800
3CB4F0B400
78B4F5E300
78F0B7FE00
ENDCHAR
STARTCHAR n_z
ENCODING -1
SWIDTH 882 0
DWIDTH 12 0
BBX 13 7 -1 0
BITMAP
0FB87FC0
1E3C9740
2D3C0F00
2D782D00
3C747800
78B8B680
7879FF40
ENDCHAR
STARTCHAR o_ae
ENCODING -1
SWIDTH 1089 0
DWIDTH 15 0
BBX 16 7 0 0
BITMAP
1B81BEB8
3CDA0F8C
B4E40F68
F0D2FF90
F0CB5E01
F28F2F08
7E079BA0
ENDCHAR
STARTCHAR o_s
ENCODING -1
SWIDTH 786 0
DWIDTH 11 0
BBX 12 8 -1 0
BITMAP
000004
06E0B8
1F35BC
2D393C
3C343C
7C367D
3CA53D
1F82E4
ENDCHAR
STARTCHAR o_s_x
ENCODING -1
SWIDTH 1132 0
DWIDTH 16 0
BBX 16 7 0 0
BITMAP
1B81E3C9
3C96F2D6
B4E4F2D8
F0D0F1F4
F1D9F2E0
F794F8F6
7E0B9079
ENDCHAR
STARTCHAR o_s_z
ENCODING -1
SWIDTH 1139 0
DWIDTH 16 0
BBX 17 8 -1 0
BITMAP
0000040000
06E0B8BF80
1F35BDCB00
2D393C1E00
3C343C3C00
7C367CB400
3CA53DF340
1F82E6FE00
ENDCHAR
STARTCHAR o_x
ENCODING -1
SWIDTH 851 0
DWIDTH 12 0
BBX 12 7 0 0
BITMAP
1B83C9
3C97D6
B4E6D8
F0D1F4
F0C6E0
F288F1
7E1C79
ENDCHAR
STARTCHAR oacute_s
ENCODING -1
SWIDTH 787 0
DWIDTH 11 0
BBX 12 10 0 0
BITMAP
00D000
018000
010000
1B82E0
3CD6F0
B4E4F0
F0D0F0
F0D9F5
F294F4
7E0B90
ENDCHAR
STARTCHAR oacute_s_x
ENCODING -1
SWIDTH 1141 0
DWIDTH 16 0
BBX 16 10 0 0
BITMAP
00D00000
01800000
01000000
1B82E2FE
3C96F32C
B4E4F078
F0D0F0F0
F0D9F2D0
F294F3CD
7E0B9BF8
ENDCHAR
STARTCHAR oacute_s_z
ENCODING -1
SWIDTH 1140 0
DWIDTH 16 0
BBX 16 10 0 0
BITMAP
00D00000
01800000
01000000
1B82E2FE
3CD6F72C
B4E4F078
F0D0F0F0
F0D9F2D0
F294F7CD
7E0B9BF8
ENDCHAR
STARTCHAR oacute_x
ENCODING -1
SWIDTH 852 0
DWIDTH 12 0
BBX 12 10 0 0
BITMAP
00E000
01C000
024000
1B83C9
3C97D6
B4E6E8
F0D1F4
F0C6E0
F288F1
7E1C79
ENDCHAR
STARTCHAR r_x
ENCODING -1
SWIDTH 784 0
DWIDTH 11 0
BBX 13 8 -1 0
BITMAP
00000900
0FB7C200
1E36D900
2D02E800
2C01F000
3C06F000
780CF140
781D7900
ENDCHAR
STARTCHAR r_z
ENCODING -1
SWIDTH 654 0
DWIDTH 9 0
BBX 10 7 -1 0
BITMAP
0FBFF0
1F76D0
2D0780
2D0B00
3C1E00
783C90
78BF80
ENDCHAR
STARTCHAR s_x
ENCODING -1
SWIDTH 727 0
DWIDTH 10 0
BBX 12 8 -1 0
BITMAP
014018
07CB4C
07D798
06D7E0
22D3C0
76DBC1
53E6E9
2F40F4
ENDCHAR
STARTCHAR s_z
ENCODING -1
SWIDTH 744 0
DWIDTH 10 0
BBX 11 8 -1 0
BITMAP
014000
07C7FC
0BD978
0AD0F0
16D2D0
72D3C0
62DB58
2F5FF4
ENDCHAR
STARTCHAR t_x
ENCODING -1
SWIDTH 631 0
DWIDTH 9 0
BBX 9 9 0 0
BITMAP
040000
3C0000
7FF240
78F180
B8B600
B47D00
F07800
F1BC40
B92E40
ENDCHAR
STARTCHAR t_z
ENCODING -1
SWIDTH 704 0
DWIDTH 10 0
BBX 10 9 0 0
BITMAP
2D0000
3C0000
7E2FE0
7873C0
780B40
B40F00
F02D00
F078D0
B4BF80
ENDCHAR
STARTCHAR u_v
ENCODING -1
SWIDTH 923 0
DWIDTH 13 0
BBX 13 7 0 0
BITMAP
3CB5F240
78F1E180
B4F2E140
B5E2D240
F2D3C600
F7D3DD00
BBC2F400
ENDCHAR
STARTCHAR u_x
ENCODING -1
SWIDTH 878 0
DWIDTH 12 0
BBX 13 8 0 0
BITMAP
00000600
3CB5D300
78F1E600
B4F0F800
B5E0F400
F2D1F440
F7E6BA40
B9F83D00
ENDCHAR
STARTCHAR y_p
ENCODING -1
SWIDTH 954 0
DWIDTH 13 0
BBX 13 11 0 -3
BITMAP
0001E000
3CB5FB40
78F2E3C0
B4F2D3C0
B5E3C3C0
F2D78780
F7D79F00
BBEFF900
1B8F0000
6B4F0000
3E190000
ENDCHAR
STARTCHAR y_x
ENCODING -1
SWIDTH 871 0
DWIDTH 12 0
BBX 13 11 0 -3
BITMAP
00000600
3CB6D300
78F1E600
B4F1F800
B5E0F000
F2D1F040
F7D6BA40
BBE43D00
1B800000
6B400000
3E000000
ENDCHAR
STARTCHAR y_z
ENCODING -1
SWIDTH 888 0
DWIDTH 12 0
BBX 12 10 0 -3
BITMAP
3CB5FF
78F25E
B4F03C
B5E0B4
F2D0F0
F7D2D6
BBC7FD
2B8000
574000
2E0000
ENDCHAR
STARTCHAR a_x.end
ENCODING -1
SWIDTH 884 0
DWIDTH 12 0
BBX 13 7 0 0
BITMAP
1BB9E740
7CB4F240
B4B4F600
F0F0B800
F1E0B400
F6F6BD00
B9B92D00
ENDCHAR
STARTCHAR b_s.end
ENCODING -1
SWIDTH 731 0
DWIDTH 10 0
BBX 11 10 0 0
BITMAP
190000
2D0000
3C0050
3FD2F0
78E5F0
B4F4F0
B4E0F0
F0D9B4
F288F0
BE0BD0
ENDCHAR
STARTCHAR e_x.end
ENCODING -1
SWIDTH 747 0
DWIDTH 10 0
BBX 11 7 0 0
BITMAP
1B8F34
38CF24
B68BA0
FE0B80
F00B80
F42BC0
7E82E0
ENDCHAR
STARTCHAR f_u.end
ENCODING -1
SWIDTH 724 0
DWIDTH 10 0
BBX 13 13 -3 -3
BITMAP
002E0000
00B54000
00F00000
00FFE3C0
01E2D7C0
02D2D780
02D3CB40
03C78F40
0787AF40
0B83E780
6B400000
8F000000
7D000000
ENDCHAR
STARTCHAR fi.end
ENCODING -1
SWIDTH 479 0
DWIDTH 7 0
BBX 10 13 -3 -3
BITMAP
001FD0
0078E0
00F040
00FDE0
01E2D0
02E3D0
02D3C0
03C780
078790
0B83D0
6B4000
8F0000
7D0000
ENDCHAR
STARTCHAR fl.end
ENCODING -1
SWIDTH 490 0
DWIDTH 7 0
BBX 11 13 -3 -3
BITMAP
002E90
00B4B4
00F0F0
00FDF0
01E1E0
02D2D0
02D2D0
03C3C0
0783D0
0B82D0
6B4000
8F0000
7D0000
ENDCHAR
STARTCHAR i_x.end
ENCODING -1
SWIDTH 616 0
DWIDTH 9 0
BBX 9 10 0 0
BITMAP
2D0000
2D0000
000240
3CF180
78B640
B4BA00
B47800
F0B800
F67D00
B91E00
ENDCHAR
STARTCHAR o_s.end
ENCODING -1
SWIDTH 718 0
DWIDTH 10 0
BBX 11 8 -1 0
BITMAP
000004
06E0B8
1F35BC
2D393C
3C343C
7C367C
3CA53C
1F82E4
ENDCHAR
STARTCHAR oacute_s.end
ENCODING -1
SWIDTH 719 0
DWIDTH 10 0
BBX 10 10 0 0
BITMAP
00D000
018000
010000
1B82E0
3CD6F0
B4E4F0
F0D0F0
F0D9F0
F294F0
7E0B90
ENDCHAR
STARTCHAR u_x.end
ENCODING -1
SWIDTH 863 0
DWIDTH 12 0
BBX 12 7 0 0
BITMAP
3CB6D6
78F1E3
B4F0E5
B5E0F8
F2D0F4
F7E6B8
B9F83D
ENDCHAR
STARTCHAR uni0424.loclBGR
ENCODING -1
SWIDTH 840 0
DWIDTH 12 0
BBX 12 13 0 -2
BITMAP
02BE00
0B0F00
051F00
02AEA0
1D2D2C
783C1E
B43C1E
B4782D
B4B43C
7CB5B4
1BFE80
00F000
005000
ENDCHAR
STARTCHAR uni0492.loclBSH
ENCODING -1
SWIDTH 459 0
DWIDTH 6 0
BBX 9 10 0 0
BITMAP
0AFF40
63C000
A3C000
D78000
5BF800
0B4000
0F0000
1E0000
1E0000
2D0000
ENDCHAR
STARTCHAR uni04AA.loclCHU
ENCODING -1
SWIDTH 497 0
DWIDTH 7 0
BBX 8 13 0 -3
BITMAP
02F8
0F49
2E0D
3D00
7C00
B800
B800
B800
7D18
2FE0
0240
07C0
0540
ENDCHAR
STARTCHAR uni0418.loclSRB
ENCODING -1
SWIDTH 705 0
DWIDTH 10 0
BBX 11 10 0 0
BITMAP
06E0F4
2AD0F0
A3C2E0
A3CBD0
57AAD0
0BF3C0
0BD780
0F4780
1E0B40
1E0F00
ENDCHAR
STARTCHAR uni0419.loclSRB
ENCODING -1
SWIDTH 705 0
DWIDTH 10 0
BBX 11 13 0 0
BITMAP
003890
002E40
000000
06E0F4
2AD0F0
A3C2E0
A3CBD0
57AAD0
0BF3C0
0BD780
0F4780
1E0B40
1E0F00
ENDCHAR
STARTCHAR uni0430.end
ENCODING -1
SWIDTH 467 0
DWIDTH 7 0
BBX 7 7 0 0
BITMAP
1BB8
7CB4
B4B4
F0F0
F1F0
F2E0
B9F4
ENDCHAR
STARTCHAR uni0432.end
ENCODING -1
SWIDTH 406 0
DWIDTH 6 0
BBX 7 10 -1 0
BITMAP
01F4
0398
0B14
0E20
2EA0
2DF4
3C34
7C34
3C60
1F80
ENDCHAR
STARTCHAR uni0434.end
ENCODING -1
SWIDTH 480 0
DWIDTH 7 0
BBX 7 10 0 -3
BITMAP
1BB8
7CB4
B4B0
F0F0
F1E0
F2E0
BBD0
17C0
2780
2E00
ENDCHAR
STARTCHAR uni0435.end
ENCODING -1
SWIDTH 366 0
DWIDTH 5 0
BBX 6 7 -1 0
BITMAP
06E0
1E30
2DA0
3F80
7C00
3C00
1F80
ENDCHAR
STARTCHAR uni0451.end
ENCODING -1
SWIDTH 366 0
DWIDTH 5 0
BBX 7 10 -1 0
BITMAP
0218
0368
0000
06E0
1E30
2DA0
3F80
7C00
3C00
1F80
ENDCHAR
STARTCHAR uni0436.end
ENCODING -1
SWIDTH 848 0
DWIDTH 12 0
BBX 13 7 -1 0
BITMAP
0B878B80
21DB5CC0
01DB7840
01FFF400
12DE7400
639D7440
7A2D2E40
ENDCHAR
STARTCHAR uni0437.end
ENCODING -1
SWIDTH 426 0
DWIDTH 6 0
BBX 6 10 0 -3
BITMAP
1BD0
21F0
81F0
42D0
1F40
0780
07C0
27C0
6780
2E00
ENDCHAR
STARTCHAR uni0438.end
ENCODING -1
SWIDTH 459 0
DWIDTH 6 0
BBX 7 7 0 0
BITMAP
3CB4
78F0
B4F0
B5E0
F2D0
F7E0
B9E0
ENDCHAR
STARTCHAR uni0439.end
ENCODING -1
SWIDTH 459 0
DWIDTH 6 0
BBX 7 10 0 0
BITMAP
0D14
0E20
0A80
3CB4
78F0
B4F0
B5E0
F2D0
F7E0
B9E0
ENDCHAR
STARTCHAR uni043A.end
ENCODING -1
SWIDTH 501 0
DWIDTH 7 0
BBX 8 7 -1 0
BITMAP
0F1E
1EAA
2FE0
2DB4
3CB4
78B8
787C
ENDCHAR
STARTCHAR uni043B.end
ENCODING -1
SWIDTH 511 0
DWIDTH 7 0
BBX 8 7 -1 0
BITMAP
007F
00DF
019E
026D
222D
662D
7D1E
ENDCHAR
STARTCHAR uni043C.end
ENCODING -1
SWIDTH 780 0
DWIDTH 11 0
BBX 12 7 -1 0
BITMAP
00782E
00B83E
017CBD
026CAC
122E7C
622E3D
292D2D
ENDCHAR
STARTCHAR uni043D.end
ENCODING -1
SWIDTH 460 0
DWIDTH 6 0
BBX 8 7 -1 0
BITMAP
0F2D
1E2C
2D3C
2FF8
3C78
78B4
7878
ENDCHAR
STARTCHAR uni043E.end
ENCODING -1
SWIDTH 439 0
DWIDTH 6 0
BBX 6 7 0 0
BITMAP
1B80
3C90
B490
F0D0
F0C0
F280
7E00
ENDCHAR
STARTCHAR uni043F.end
ENCODING -1
SWIDTH 454 0
DWIDTH 6 0
BBX 7 7 -1 0
BITMAP
0FB8
1E3C
2D3C
2D78
3C74
78B8
7878
ENDCHAR
STARTCHAR uni0441.end
ENCODING -1
SWIDTH 341 0
DWIDTH 5 0
BBX 6 7 -1 0
BITMAP
06E0
1E30
2D10
3C00
7C00
7C00
2F80
ENDCHAR
STARTCHAR uni0442.end
ENCODING -1
SWIDTH 701 0
DWIDTH 10 0
BBX 11 7 -1 0
BITMAP
0FBAF0
1E3DB4
2D7CB4
2D78F0
3CB4F0
78B4F4
78F0B4
ENDCHAR
STARTCHAR uni0443.end
ENCODING -1
SWIDTH 460 0
DWIDTH 6 0
BBX 7 10 0 -3
BITMAP
3CB4
78F0
B4F0
B5E0
F2D0
F7D0
BBC0
2B80
5740
2E00
ENDCHAR
STARTCHAR uni0445.end
ENCODING -1
SWIDTH 500 0
DWIDTH 7 0
BBX 7 7 0 0
BITMAP
1B58
239C
43E0
83D0
47D0
19E4
60B4
ENDCHAR
STARTCHAR uni0447.end
ENCODING -1
SWIDTH 459 0
DWIDTH 6 0
BBX 7 7 0 0
BITMAP
3CB4
78F0
B4F0
BAE0
7ED0
02E0
01E0
ENDCHAR
STARTCHAR uni0448.end
ENCODING -1
SWIDTH 706 0
DWIDTH 10 0
BBX 10 7 0 0
BITMAP
3CB5E0
78F1E0
B4F2D0
B5E3C0
F2D3C0
F7EBD0
B9F6D0
ENDCHAR
STARTCHAR uni044B.end
ENCODING -1
SWIDTH 608 0
DWIDTH 9 0
BBX 9 7 0 0
BITMAP
780740
782F40
B6CF00
B0CE00
F1DE00
F79E00
7E0F00
ENDCHAR
STARTCHAR uni0455.end
ENCODING -1
SWIDTH 316 0
DWIDTH 4 0
BBX 6 8 -1 0
BITMAP
0140
07C0
0BD0
0AD0
22D0
76D0
52D0
2F40
ENDCHAR
STARTCHAR uni0456.end
ENCODING -1
SWIDTH 209 0
DWIDTH 3 0
BBX 4 10 0 0
BITMAP
2D
2D
00
3C
78
B4
B4
F0
F4
B4
ENDCHAR
STARTCHAR uni0458.end
ENCODING -1
SWIDTH 213 0
DWIDTH 3 0
BBX 7 13 -3 -3
BITMAP
00B4
00B4
0000
00F0
01E0
02D0
02D0
03C0
0780
0B80
6B40
8F00
7D00
ENDCHAR
STARTCHAR uni044E.end
ENCODING -1
SWIDTH 675 0
DWIDTH 9 0
BBX 10 7 -1 0
BITMAP
0F0BD0
1E2D60
2D7860
2FF4A0
3CF4D0
78B580
787E00
ENDCHAR
STARTCHAR uni044F.end
ENCODING -1
SWIDTH 480 0
DWIDTH 7 0
BBX 8 7 -1 0
BITMAP
02FE
0F2D
0E2D
07FC
6378
667D
3D2D
ENDCHAR
STARTCHAR uni0437.init
ENCODING -1
SWIDTH 455 0
DWIDTH 6 0
BBX 7 10 0 -3
BITMAP
2B80
53D0
03D0
0780
3E08
0F64
0B80
6F40
8F00
7D00
ENDCHAR
STARTCHAR uni0445.init
ENCODING -1
SWIDTH 390 0
DWIDTH 5 0
BBX 7 8 -1 0
BITMAP
0060
1D24
1E70
0F90
0F40
2B44
9788
A2E0
ENDCHAR
STARTCHAR uni0436.loclBGR
ENCODING -1
SWIDTH 882 0
DWIDTH 12 0
BBX 14 10 -1 0
BITMAP
00018000
0003C000
00038000
0B878B80
21DB5CC0
01DB7840
01FFF400
12DE7410
639D7450
7A2D2E40
ENDCHAR
STARTCHAR uni043A.loclBGR
ENCODING -1
SWIDTH 518 0
DWIDTH 7 0
BBX 9 10 -1 0
BITMAP
064000
0B4000
0F0000
0F1800
1EA000
2FF400
2D7800
3C7840
787940
783E00
ENDCHAR
STARTCHAR uni044E.loclBGR
ENCODING -1
SWIDTH 675 0
DWIDTH 9 0
BBX 12 10 -1 0
BITMAP
064000
0B4000
0F0000
0F0BD0
1E2D61
2D78B5
2FF4A0
3CF490
78B580
787E00
ENDCHAR
STARTCHAR uni0493.loclBSH
ENCODING -1
SWIDTH 398 0
DWIDTH 6 0
BBX 7 7 -1 0
BITMAP
1FF8
2EA4
3C00
7E80
7800
7540
7D00
ENDCHAR
STARTCHAR uni04AB.loclCHU
ENCODING -1
SWIDTH 384 0
DWIDTH 5 0
BBX 6 10 0 -3
BITMAP
1B80
3CC0
B440
F000
F010
F090
7F40
0800
0B00
1500
ENDCHAR
STARTCHAR uni0453.loclMKD
ENCODING -1
SWIDTH 267 0
DWIDTH 4 0
BBX 5 13 0 0
BITMAP
0140
0700
0900
BF00
0000
0000
3C00
7800
B400
B400
F100
F600
B800
ENDCHAR
STARTCHAR uni0433.loclSRB
ENCODING -1
SWIDTH 267 0
DWIDTH 4 0
BBX 4 10 0 0
BITMAP
BF
00
00
3C
78
B4
B4
F1
F6
B8
ENDCHAR
STARTCHAR uni043F.loclSRB
ENCODING -1
SWIDTH 505 0
DWIDTH 7 0
BBX 8 10 0 0
BITMAP
1FF0
0000
0000
3CB4
78F0
B4F0
B5E0
F2D1
F7E9
B9F4
ENDCHAR
STARTCHAR uni0442.loclSRB
ENCODING -1
SWIDTH 752 0
DWIDTH 11 0
BBX 11 9 0 0
BITMAP
0FFFD0
000000
3CB5E0
78F1E0
B4F2D0
B5E3C0
F2D3C4
F7EBD8
B9F6E0
ENDCHAR
STARTCHAR uni04150437
ENCODING -1
SWIDTH 940 0
DWIDTH 13 0
BBX 14 13 0 -3
BITMAP
02F40000
0F1C0000
0E140000
0B40BD00
1F010F00
7D010F00
B8042D00
F804F410
B8103840
2F803D40
0001BC00
00027800
0002E000
ENDCHAR
STARTCHAR uni04150445
ENCODING -1
SWIDTH 797 0
DWIDTH 11 0
BBX 12 10 0 0
BITMAP
02F400
0F1800
0E1428
0B4B4C
2E0798
7C07E0
B803C0
F807C1
B81AE9
2F91F4
ENDCHAR
STARTCHAR uni04010437
ENCODING -1
SWIDTH 940 0
DWIDTH 13 0
BBX 14 17 0 -3
BITMAP
01890000
01CD0000
00000000
00000000
02F40000
0F1C0000
0E140000
0B40BD00
1F010F00
7D010F00
B8042D00
F804F410
B8103840
2F803D40
0001BC00
00027800
0002E000
ENDCHAR
STARTCHAR uni04010445
ENCODING -1
SWIDTH 797 0
DWIDTH 11 0
BBX 12 13 0 0
BITMAP
01CD00
018900
000000
02F400
0F1800
0E1428
0B4B4C
2E0798
7C07E0
B803C0
F807C1
B81AE9
2F91F4
ENDCHAR
STARTCHAR uni04210437
ENCODING -1
SWIDTH 973 0
DWIDTH 14 0
BBX 14 13 0 -3
BITMAP
02F80000
0F490000
2E090000
3D006E00
7C004B80
B8010B40
B8011E00
B804B820
7C142D10
2F801E40
0000AE00
00016D00
0001F400
ENDCHAR
STARTCHAR uni04210445
ENCODING -1
SWIDTH 814 0
DWIDTH 11 0
BBX 12 10 0 0
BITMAP
02F800
0F4900
2E0518
3D0788
7C03D8
B803E0
B802D0
B803D1
7D5AE5
2F90B8
ENDCHAR
STARTCHAR uni04040437
ENCODING -1
SWIDTH 973 0
DWIDTH 14 0
BBX 14 13 0 -3
BITMAP
02F80000
0F490000
2D090000
3FD06E00
78004B80
B8010B40
B8011E00
B804B820
7C142D10
2F801E40
0000AE00
00016D00
0001F400
ENDCHAR
STARTCHAR uni04040445
ENCODING -1
SWIDTH 814 0
DWIDTH 11 0
BBX 12 10 0 0
BITMAP
02F800
0F4900
2E0518
3D0788
7FD38C
B803E4
B802D0
B803D1
7D5AE5
2F90B8
ENDCHAR
STARTCHAR uni04300445
ENCODING -1
SWIDTH 899 0
DWIDTH 13 0
BBX 13 7 0 0
BITMAP
1BB9E740
7CB4F240
B4B4F600
F0F0B800
F1E0B840
F6F6BD80
B9B92E00
ENDCHAR
STARTCHAR uni04300447
ENCODING -1
SWIDTH 993 0
DWIDTH 14 0
BBX 14 7 0 0
BITMAP
1BB9E3C0
7CB6D3C0
B4B6D780
F0F2EF80
F1F1EF40
F2E00B50
B9F40790
ENDCHAR
STARTCHAR uni04310433
ENCODING -1
SWIDTH 816 0
DWIDTH 11 0
BBX 12 10 0 0
BITMAP
07FE00
0BFC00
024000
1BC2F4
789878
B4B0B8
F0E3E0
F1CB81
F24F45
7D07E4
ENDCHAR
STARTCHAR uni04310453
ENCODING -1
SWIDTH 816 0
DWIDTH 11 0
BBX 12 10 0 0
BITMAP
07FE28
0BFC70
024040
1BC2F4
789878
B4B0B8
F0E3E0
F1CB81
F24F45
7D07E4
ENDCHAR
STARTCHAR uni04310451
ENCODING -1
SWIDTH 814 0
DWIDTH 11 0
BBX 12 10 0 0
BITMAP
07FD86
0BF8DA
024000
1B81B8
78938C
B49B68
F0DFE0
F1DF01
F68F58
7E07E0
ENDCHAR
STARTCHAR uni04310436
ENCODING -1
SWIDTH 1261 0
DWIDTH 18 0
BBX 18 10 0 0
BITMAP
07FE000000
0BFC000000
0240000000
1BC7D2D2E0
7CA4B2CA60
B4B0B3DD00
F0D0BFFC00
F1C0E76C00
F259DB6C20
7E1F4F1B80
ENDCHAR
STARTCHAR uni04310439
ENCODING -1
SWIDTH 935 0
DWIDTH 13 0
BBX 14 10 0 0
BITMAP
07FD9040
0BF8E200
0240A900
1B83CB40
7C978F00
B49B4F00
F0DB5E00
F1CF1E00
F28F2D50
7E0B9F40
ENDCHAR
STARTCHAR uni0431045E
ENCODING -1
SWIDTH 916 0
DWIDTH 13 0
BBX 13 13 0 -3
BITMAP
0BFDD140
0BF8A900
02400000
1BC3CB40
7C978F00
B49B4F00
F0DB5E00
F1CF1E00
F24F3D40
7E0BBD40
0001B800
0006B400
0003E000
ENDCHAR
STARTCHAR uni0431044D
ENCODING -1
SWIDTH 860 0
DWIDTH 12 0
BBX 12 10 0 0
BITMAP
07FE00
0BFC00
024000
1B82B8
7C992D
B4B42D
F0E1FD
F1C03C
F25874
7E1A90
ENDCHAR
STARTCHAR uni04310456
ENCODING -1
SWIDTH 697 0
DWIDTH 10 0
BBX 10 10 0 0
BITMAP
0BFED0
0BE6D0
024000
1BC3C0
7C9780
B49B40
F0DB40
F1CF00
F24F20
7E0B80
ENDCHAR
STARTCHAR uni04310457
ENCODING -1
SWIDTH 697 0
DWIDTH 10 0
BBX 11 10 0 0
BITMAP
07FA64
0BF774
024000
1B83C0
7C9780
B49B40
F0DB40
F1CF00
F28F20
7E0B80
ENDCHAR
STARTCHAR uni04310458
ENCODING -1
SWIDTH 669 0
DWIDTH 9 0
BBX 10 13 0 -3
BITMAP
0BFED0
0BA6C0
024000
1BC3C0
7C9780
B49B40
F0DB40
F1CF10
F25F10
7D2E40
01BD00
023C00
01F400
ENDCHAR
STARTCHAR uni04320433
ENCODING -1
SWIDTH 837 0
DWIDTH 12 0
BBX 13 10 -1 0
BITMAP
01F40000
03980000
0B140000
0E20BD00
2EAA1F00
2DF42E00
3C34BC00
7C36E040
3C62D140
1F81F900
ENDCHAR
STARTCHAR uni04320453
ENCODING -1
SWIDTH 837 0
DWIDTH 12 0
BBX 13 10 -1 0
BITMAP
01F40B00
03980D00
0B140400
0E20BD00
2EAA1F00
2DF42E00
3C34BC00
7C36E040
3C62D140
1F81F900
ENDCHAR
STARTCHAR uni04320436
ENCODING -1
SWIDTH 1279 0
DWIDTH 18 0
BBX 19 10 -1 0
BITMAP
01F4000000
0398000000
0B18000000
0E21B878B8
2EAA1DB6CC
2DF81DB380
3C342FFF40
7C342DE740
3C7235D744
1F83A2D2E4
ENDCHAR
STARTCHAR uni04320437
ENCODING -1
SWIDTH 824 0
DWIDTH 12 0
BBX 13 13 -1 -3
BITMAP
01F40000
03980000
0B140000
0E21B800
2EA92D00
2DF42D00
3C347800
7C36E080
3C60B040
1F80B900
0002B800
0009B400
0007D000
ENDCHAR
STARTCHAR uni04320445
ENCODING -1
SWIDTH 851 0
DWIDTH 12 0
BBX 13 10 -1 0
BITMAP
01F40000
03980000
0B140000
0E22F280
2EA9B580
2DF47A00
3C347C00
7C34B800
3C627C40
1F891E40
ENDCHAR
STARTCHAR uni04330437
ENCODING -1
SWIDTH 840 0
DWIDTH 12 0
BBX 13 10 -1 -3
BITMAP
0BD0BD00
21E11E00
02E41E00
1F843C00
3D12F040
7C50B480
2E407A00
0001B800
0005B400
0006E000
ENDCHAR
STARTCHAR uni04330445
ENCODING -1
SWIDTH 740 0
DWIDTH 10 0
BBX 12 8 -1 0
BITMAP
000018
0BDB48
21E79C
12E7E4
1F83D0
3D07D0
7C1AD1
2F90F8
ENDCHAR
STARTCHAR uni04330447
ENCODING -1
SWIDTH 880 0
DWIDTH 12 0
BBX 14 7 -1 0
BITMAP
0BD3C780
21E3CB40
12E78F00
1F8BEF00
3D1AEE10
7C201E50
2E400F80
ENDCHAR
STARTCHAR uni04530437
ENCODING -1
SWIDTH 840 0
DWIDTH 12 0
BBX 13 13 -1 -3
BITMAP
00340000
00A00000
00400000
0BD0BD00
21E11E00
02E41E00
1F843C00
3D12F040
7C50B480
2E407A00
0001B800
0005B400
0006E000
ENDCHAR
STARTCHAR uni04530445
ENCODING -1
SWIDTH 740 0
DWIDTH 10 0
BBX 12 10 -1 0
BITMAP
007400
009000
000018
0BDB48
21E79C
12E7E4
1F83D0
3D07D0
7C1AD1
2F90F8
ENDCHAR
STARTCHAR uni04530447
ENCODING -1
SWIDTH 880 0
DWIDTH 12 0
BBX 14 10 -1 0
BITMAP
00340000
00A00000
00400000
0BD3C780
21E3CB40
12E78F00
1F8BEF00
3D1AEE10
7C201E50
2E400F80
ENDCHAR
STARTCHAR uni04340447
ENCODING -1
SWIDTH 1010 0
DWIDTH 14 0
BBX 15 10 0 -3
BITMAP
1BB8F2D0
7CB5E3D0
B4B5E3C0
F0F2EB80
F1E2FB84
F2E50B54
BBE407D0
07C00000
27800000
2E000000
ENDCHAR
STARTCHAR uni04340458
ENCODING -1
SWIDTH 746 0
DWIDTH 10 0
BBX 11 13 0 -3
BITMAP
0000B4
0000B4
000000
1BB8F0
7CB5E0
B4B5E0
F0F2D0
F1E3C0
F2E3C8
BBD7E0
07CB40
2BDF00
2E7D00
ENDCHAR
STARTCHAR uni04350437
ENCODING -1
SWIDTH 876 0
DWIDTH 12 0
BBX 13 10 0 -3
BITMAP
1B81F800
38C53D00
B6843C00
FE10B800
F013E080
F040F140
7E00B900
0002F400
0008F000
000B9000
ENDCHAR
STARTCHAR uni04350445
ENCODING -1
SWIDTH 762 0
DWIDTH 11 0
BBX 11 7 0 0
BITMAP
1B8F34
38CF24
B68BA0
FE0B80
F00B84
F427D8
7E82E0
ENDCHAR
STARTCHAR uni04350447
ENCODING -1
SWIDTH 889 0
DWIDTH 12 0
BBX 13 7 0 0
BITMAP
1B8B5E00
38CF2D00
B69E3D00
FE1FFC00
F01BBC40
F0407940
7D002E00
ENDCHAR
STARTCHAR uni04510437
ENCODING -1
SWIDTH 876 0
DWIDTH 12 0
BBX 13 13 0 -3
BITMAP
0DA00000
08600000
00000000
1B81F800
38C53D00
B6843C00
FE10B800
F013E080
F040F140
7E00B900
0002F400
0008F000
000B9000
ENDCHAR
STARTCHAR uni04510445
ENCODING -1
SWIDTH 762 0
DWIDTH 11 0
BBX 11 10 0 0
BITMAP
086000
0DA000
000000
1B8F34
38CF24
B68BA0
FE0B80
F00B84
F427D8
7E82E0
ENDCHAR
STARTCHAR uni04510447
ENCODING -1
SWIDTH 889 0
DWIDTH 12 0
BBX 13 10 0 0
BITMAP
08600000
0DA00000
00000000
1B8B5E00
38CF2D00
B69E3D00
FE2FFC00
F01BBC40
F0407940
7D002E00
ENDCHAR
STARTCHAR uni04360447
ENCODING -1
SWIDTH 1392 0
DWIDTH 19 0
BBX 21 7 -1 0
BITMAP
0B878B8B5E00
21DB5CCF2D00
01DB785E2D00
01FFF42F7C00
12DE742BBC40
639D74907940
7A2D2E402E00
ENDCHAR
STARTCHAR uni04370437
ENCODING -1
SWIDTH 921 0
DWIDTH 13 0
BBX 14 10 0 -3
BITMAP
1BD0BD00
21F11E00
81F41E00
42D42D00
1F45F450
07907980
07D07D00
2BC2B800
27867400
2E02E000
ENDCHAR
STARTCHAR uni04380447
ENCODING -1
SWIDTH 1010 0
DWIDTH 14 0
BBX 15 7 0 0
BITMAP
3CB4F2D0
78F1E3D0
B4F1E3C0
B5E2EB80
F2D2FB84
F7E90BA4
B9F407D0
ENDCHAR
STARTCHAR uni04390447
ENCODING -1
SWIDTH 1010 0
DWIDTH 14 0
BBX 15 10 0 0
BITMAP
0D140000
0E200000
0A800000
3CB4F2D0
78F1E3D0
B4F2E3C0
B5E2EB80
F2D2FB84
F7E90BA4
B9F407D0
ENDCHAR
STARTCHAR uni043A0447
ENCODING -1
SWIDTH 1016 0
DWIDTH 14 0
BBX 16 7 -1 0
BITMAP
0F1E3C78
1EA93CB4
2FE078F0
2DB4BFF0
3CB4AEE1
78BA41E5
787D00F4
ENDCHAR
STARTCHAR uni045C0447
ENCODING -1
SWIDTH 1016 0
DWIDTH 14 0
BBX 16 10 -1 0
BITMAP
00280000
00600000
00400000
0F1E3C78
1EA93CB4
2FE078F0
2DB4BFF0
3CB4AEE1
78BA41E5
787D00F4
ENDCHAR
STARTCHAR uni043B0447
ENCODING -1
SWIDTH 1061 0
DWIDTH 15 0
BBX 17 7 -1 0
BITMAP
007F1E3C00
00DF2D3C00
019E2D7800
026D3EF800
132D6EF440
762C40F500
7D1E007900
ENDCHAR
STARTCHAR uni043C0447
ENCODING -1
SWIDTH 1276 0
DWIDTH 18 0
BBX 20 7 -1 0
BITMAP
00F43C78F0
00F4BCB4F0
01F4F8B5E0
02B6B4FBD0
12BAB5BBD1
627DB602E8
697C7801E4
ENDCHAR
STARTCHAR uni043D0447
ENCODING -1
SWIDTH 1011 0
DWIDTH 14 0
BBX 16 7 -1 0
BITMAP
0F2D3CB4
1E2C78B4
2D3C78F0
2FF8BAE0
3C78BEE1
78B542D5
787D01F4
ENDCHAR
STARTCHAR uni043E0433
ENCODING -1
SWIDTH 804 0
DWIDTH 11 0
BBX 12 7 0 0
BITMAP
1B82F4
3CE87C
B4E0B8
F0D2E0
F0CF81
F24F05
7E0BE0
ENDCHAR
STARTCHAR uni043E0453
ENCODING -1
SWIDTH 804 0
DWIDTH 11 0
BBX 12 10 0 0
BITMAP
00000D
000028
000010
1B82F4
3CE87C
B4E0B8
F0D2E0
F0CF81
F24F05
7E0BE0
ENDCHAR
STARTCHAR uni043E0436
ENCODING -1
SWIDTH 1271 0
DWIDTH 18 0
BBX 18 7 0 0
BITMAP
1B86D1D2E0
3C98B2DB30
B4E0B7CD10
F0D0BFFD00
F0C0B7AC00
F2A9DB6D20
7E1E4B0B80
ENDCHAR
STARTCHAR uni043E0437
ENCODING -1
SWIDTH 837 0
DWIDTH 12 0
BBX 12 10 0 -3
BITMAP
1B86E0
3CE8B8
B4E0B8
F0D0F0
F1CBC1
F242D2
7E01E8
0006E0
0016D0
001F80
ENDCHAR
STARTCHAR uni043E043B
ENCODING -1
SWIDTH 992 0
DWIDTH 14 0
BBX 14 7 0 0
BITMAP
1B801FC0
3C9033C0
B4906780
F0D09780
F0C48B40
F29DCB50
7E9B4790
ENDCHAR
STARTCHAR uni043E043C
ENCODING -1
SWIDTH 1207 0
DWIDTH 17 0
BBX 18 7 0 0
BITMAP
1B802D0F00
3C903D2F00
B4907D3E00
F0D06DAD00
F1C4AEED10
F7AC9F6E80
7E4A5F1F40
ENDCHAR
STARTCHAR uni043E0445
ENCODING -1
SWIDTH 850 0
DWIDTH 12 0
BBX 12 7 0 0
BITMAP
1B83C9
3C97D6
B4E6D8
F0D1F4
F0C6E0
F288F1
7E1C79
ENDCHAR
STARTCHAR uni043E0459
ENCODING -1
SWIDTH 1179 0
DWIDTH 17 0
BBX 16 7 0 0
BITMAP
1B801FC0
3C9033C0
B49067FD
F0D0979F
F0C48B4E
F29DCB5D
7E9B47E4
ENDCHAR
STARTCHAR uni043E044D
ENCODING -1
SWIDTH 867 0
DWIDTH 12 0
BBX 12 7 0 0
BITMAP
1B81B8
3CD92D
B4E02E
F0D1FD
F0C43C
F25C74
7E0A90
ENDCHAR
STARTCHAR uni043F0447
ENCODING -1
SWIDTH 1010 0
DWIDTH 14 0
BBX 16 7 -1 0
BITMAP
0FB83CB4
1E3C78F4
2D3C78F0
2D78BAE0
3C74BEE1
78B542D5
787D01F4
ENDCHAR
STARTCHAR uni04400437
ENCODING -1
SWIDTH 890 0
DWIDTH 12 0
BBX 15 11 -2 -3
BITMAP
03C00000
07EE1B80
078B92D0
0B4B42D0
0F4F0780
0F1E2E08
1F6D0B14
2FF40B90
2D002F40
3C009F00
78007D00
ENDCHAR
STARTCHAR uni04410437
ENCODING -1
SWIDTH 876 0
DWIDTH 12 0
BBX 13 10 0 -3
BITMAP
1B81F800
3C853D00
B4043C00
F010B800
F013E080
F040F140
7E00B900
0002F400
0008F000
000B9000
ENDCHAR
STARTCHAR uni04410445
ENCODING -1
SWIDTH 755 0
DWIDTH 11 0
BBX 12 7 -1 0
BITMAP
06E79C
1E33C9
2D13D8
3C02E0
7802D1
3C1AF6
1F90B8
ENDCHAR
STARTCHAR uni04410447
ENCODING -1
SWIDTH 889 0
DWIDTH 12 0
BBX 13 7 0 0
BITMAP
1B8B5E00
3CCF2D00
B45F2D00
F02F7C00
F02BBC40
F0807980
7E002E00
ENDCHAR
STARTCHAR uni0441044A
ENCODING -1
SWIDTH 841 0
DWIDTH 12 0
BBX 12 7 0 0
BITMAP
1B8BD0
3CDDC0
B407F8
F00B1D
F02F1D
F05E2C
7E0BE0
ENDCHAR
STARTCHAR uni04420447
ENCODING -1
SWIDTH 1257 0
DWIDTH 18 0
BBX 19 7 -1 0
BITMAP
0FBAF0B5F0
1E3DB4B5E0
2D7CB4F2D0
2D78F5FBD0
3CB4F1BBC4
78B4F103C4
78F0B802E0
ENDCHAR
STARTCHAR uni04430447
ENCODING -1
SWIDTH 989 0
DWIDTH 14 0
BBX 14 10 0 -3
BITMAP
3CB5E3C0
78F2D3C0
B4F2D780
B5E3EF40
F2D6EF40
F7D80F60
BBE00790
1B800000
6B400000
3E000000
ENDCHAR
STARTCHAR uni04430458
ENCODING -1
SWIDTH 725 0
DWIDTH 10 0
BBX 11 13 0 -3
BITMAP
0000F0
0000A0
000000
3CB5E0
78F2D0
B4F2D0
B5E3C0
F2D784
F7D794
BBDB90
1BDF00
6B8E00
2EB800
ENDCHAR
STARTCHAR uni045E0447
ENCODING -1
SWIDTH 989 0
DWIDTH 14 0
BBX 14 13 0 -3
BITMAP
0D140000
0A900000
00000000
3CB5E3C0
78F2D3C0
B4F2D780
B5E3EF40
F2D6EF40
F7D80F60
BBE00790
1B800000
6B400000
3E000000
ENDCHAR
STARTCHAR uni045E0458
ENCODING -1
SWIDTH 725 0
DWIDTH 10 0
BBX 11 14 0 -3
BITMAP
040000
0E24F0
0A90A0
000000
3CB5E0
78F2D0
B4F2D0
B5E3C0
F2D784
F7D794
BBDB90
1B8F00
6B9E00
3EB800
ENDCHAR
STARTCHAR uni04440437
ENCODING -1
SWIDTH 1148 0
DWIDTH 16 0
BBX 17 13 0 -3
BITMAP
0018000000
003C000000
0078000000
1BBBD2F400
7CB4E87C00
B4B0F07C00
F0E1E0B400
F1D1D7D040
F2E3C1E100
BBFE00F500
03C006F000
078009E000
06400B8000
ENDCHAR
STARTCHAR uni04450447
ENCODING -1
SWIDTH 1027 0
DWIDTH 14 0
BBX 15 7 0 0
BITMAP
1B58F5E0
239CF2D0
53E5E3D0
83D1FBC0
47C2BBC4
19D10784
60B402E0
ENDCHAR
STARTCHAR uni0445044A
ENCODING -1
SWIDTH 1006 0
DWIDTH 14 0
BBX 14 7 0 0
BITMAP
0B58BD00
238DD800
53E43F80
83D0B1D0
47C1E1D0
1AD2E3C0
60B8BE00
ENDCHAR
STARTCHAR uni04470447
ENCODING -1
SWIDTH 1010 0
DWIDTH 14 0
BBX 15 7 0 0
BITMAP
3CB4F2D0
78F1E3D0
B4F1E3C0
BAE2EB80
7ED2FB84
02E90BA4
01F407D0
ENDCHAR
STARTCHAR uni04480447
ENCODING -1
SWIDTH 1257 0
DWIDTH 18 0
BBX 18 7 0 0
BITMAP
3CB5E2D3C0
78F1E3D780
B4F2D3CB40
B5E3C7DF40
F2D3CAEF10
F7EBD80F60
B9F6E00B80
ENDCHAR
STARTCHAR uni045F0447
ENCODING -1
SWIDTH 1010 0
DWIDTH 14 0
BBX 15 10 0 -3
BITMAP
3CB4F2D0
78F1E3D0
B4F1E3C0
B5E2EB80
F2D2FB84
F7E90BA4
B9F407D0
0A000000
0B000000
06000000
ENDCHAR
STARTCHAR uni044B0447
ENCODING -1
SWIDTH 1157 0
DWIDTH 16 0
BBX 17 7 0 0
BITMAP
78074F2D00
782F5E2D00
B6CF1E3C00
B0CE2FB800
F1DE2FB840
F79E907A40
7E0F407D00
ENDCHAR
STARTCHAR uni04550437
ENCODING -1
SWIDTH 840 0
DWIDTH 12 0
BBX 13 11 -1 -3
BITMAP
00400000
07C1B900
07D21E00
06D81E00
12D83C00
62F6F040
52E0B480
2F807A00
0001B800
0005B400
0006E000
ENDCHAR
STARTCHAR uni04550445
ENCODING -1
SWIDTH 727 0
DWIDTH 10 0
BBX 12 8 -1 0
BITMAP
014018
07CB4C
07D798
06D7E0
22D3C0
76DBC1
53E6E9
2F40F4
ENDCHAR
STARTCHAR uni04550447
ENCODING -1
SWIDTH 909 0
DWIDTH 13 0
BBX 14 8 -1 0
BITMAP
01400000
07C1E3C0
0BD2D780
0AD3C780
16D7DF40
76DAEF00
62E00F60
2F400B80
ENDCHAR
STARTCHAR uni04540437
ENCODING -1
SWIDTH 876 0
DWIDTH 12 0
BBX 13 10 0 -3
BITMAP
1B81F800
38853D00
BE043C00
F010B800
F013E080
F040F140
7E00B900
0002F400
0008F000
000B9000
ENDCHAR
STARTCHAR uni04540445
ENCODING -1
SWIDTH 755 0
DWIDTH 11 0
BBX 12 7 -1 0
BITMAP
06E79C
1E33C9
2D13D8
3F82E0
7C02D1
3C0AF6
1FA0B8
ENDCHAR
STARTCHAR uni04540447
ENCODING -1
SWIDTH 889 0
DWIDTH 12 0
BBX 13 7 0 0
BITMAP
1B8B5E00
3CCF2D00
B45F2D00
FE2F7C00
F02BBC40
F0807980
7E002E00
ENDCHAR
STARTCHAR uni044D0437
ENCODING -1
SWIDTH 837 0
DWIDTH 12 0
BBX 13 10 -1 -3
BITMAP
0BE1B800
10BA2E00
07F82E00
00B03C00
60E2F080
62D0B480
2A407A00
0001B800
0005B400
0007E000
ENDCHAR
STARTCHAR uni04560447
ENCODING -1
SWIDTH 763 0
DWIDTH 11 0
BBX 11 10 0 0
BITMAP
2D0000
2D0000
000000
3CB4F0
78B5E0
B4F2E0
B5F7D0
F1BBC4
F603D8
B802E0
ENDCHAR
STARTCHAR uni04570447
ENCODING -1
SWIDTH 763 0
DWIDTH 11 0
BBX 11 10 0 0
BITMAP
624000
A34000
000000
3CB4F0
78B5E0
B4F2E0
B5F7D0
F1BBC4
F603D8
B802E0
ENDCHAR
STARTCHAR uni04570457
ENCODING -1
SWIDTH 543 0
DWIDTH 8 0
BBX 8 10 0 0
BITMAP
6666
A677
0000
3C78
78B4
B4F4
B4F0
F1E1
F7E6
B9F8
ENDCHAR
STARTCHAR uni04580447
ENCODING -1
SWIDTH 743 0
DWIDTH 10 0
BBX 14 13 -3 -3
BITMAP
00B40000
00B00000
00000000
00F2D780
01E3CB40
02D78B40
02D7EF00
03CAEE10
07941E50
0B900B80
6F400000
8F000000
7D000000
ENDCHAR
STARTCHAR uni04580458
ENCODING -1
SWIDTH 480 0
DWIDTH 7 0
BBX 10 13 -3 -3
BITMAP
00B5E0
00B1D0
000000
00F2D0
01E3C0
02D780
02D780
03CB50
078F60
07AF40
6F5E00
9F6D00
7DF800
ENDCHAR
STARTCHAR uni045B0447
ENCODING -1
SWIDTH 990 0
DWIDTH 14 0
BBX 15 13 -1 -3
BITMAP
06400000
0B400000
2FE00000
1F0078F0
1FB4B5E0
2E78F2E0
2D78FBD0
3CB5BBD4
78B603D8
79F402E0
0BE00000
19D00000
0B800000
ENDCHAR
STARTCHAR uni045B0458
ENCODING -1
SWIDTH 722 0
DWIDTH 10 0
BBX 12 13 -1 -3
BITMAP
06403C
0B4028
2FE000
1F0078
1FB4B4
2E78B4
2D78F0
3CB5E1
78B5E5
78F2E4
0AE3C0
1AEB80
0BAE00
ENDCHAR
STARTCHAR uni044E0433
ENCODING -1
SWIDTH 1050 0
DWIDTH 15 0
BBX 16 7 -1 0
BITMAP
0F0BD1B8
1E2DA53D
2D78A07C
2FF4A2F4
3CF49B80
78B58B45
787E07E4
ENDCHAR
STARTCHAR uni044E0453
ENCODING -1
SWIDTH 1050 0
DWIDTH 15 0
BBX 16 10 -1 0
BITMAP
0000000A
00000018
00000010
0F0BD1B8
1E2DA53D
2D78A07C
2FF4A2F4
3CF49B80
78B58B45
787E07E4
ENDCHAR
STARTCHAR uni044E0436
ENCODING -1
SWIDTH 1507 0
DWIDTH 21 0
BBX 23 7 -1 0
BITMAP
0F0BD2E1E1F0
1E2DA875E764
2D78B07ADA10
2FF4A07FFE00
3CF494B7DD00
78B59CE79E14
787E0A874B90
ENDCHAR
STARTCHAR uni044E0437
ENCODING -1
SWIDTH 1073 0
DWIDTH 15 0
BBX 17 10 -1 -3
BITMAP
0E1BD2F400
1E7DB87C00
2FF8A07C00
2CB4A0B400
3CF4D7D140
78B581E200
786E00F500
000006F000
000009E000
00000B8000
ENDCHAR
STARTCHAR uni044E043B
ENCODING -1
SWIDTH 1228 0
DWIDTH 17 0
BBX 19 7 -1 0
BITMAP
0F0BD00BD0
1E2D6026D0
2D786033C0
2FF4A063C0
3CF4945784
78B5DD9794
787F9B83D0
ENDCHAR
STARTCHAR uni044E043C
ENCODING -1
SWIDTH 1443 0
DWIDTH 20 0
BBX 22 7 -1 0
BITMAP
0F0BD01E0B40
1E2D602E1F40
2D78603E2F00
2FF4A03E3F00
3CF4906EAE00
78B5DD9F9E50
787F9A8F4F40
ENDCHAR
STARTCHAR uni044E0445
ENCODING -1
SWIDTH 1088 0
DWIDTH 15 0
BBX 17 7 -1 0
BITMAP
0E1BD2D600
1E7DAAE600
2FF8B4F400
2CB4A2F000
3CF4DAB040
78B58CB540
786E0D3D00
ENDCHAR
STARTCHAR uni044E0459
ENCODING -1
SWIDTH 1415 0
DWIDTH 20 0
BBX 21 7 -1 0
BITMAP
0F0BD00BD000
1E2D6026D000
2D786033EE00
2FF4A063DF40
3CF494578B00
78B5DD974E00
787F9B82F800
ENDCHAR
STARTCHAR uni044E044D
ENCODING -1
SWIDTH 1103 0
DWIDTH 15 0
BBX 16 7 -1 0
BITMAP
0F0BD1B9
1E2DA51E
2D78A41F
2FF4A0BE
3CF4902D
78B58C38
787E0AA0
ENDCHAR
STARTCHAR uni044F0447
ENCODING -1
SWIDTH 1030 0
DWIDTH 14 0
BBX 16 7 -1 0
BITMAP
02FE2D78
0F1D3CB4
0E2D78F4
07FC7FF0
6378AEF1
767841E1
2D2E00B4
ENDCHAR
STARTCHAR uni04300445.liga
ENCODING -1
SWIDTH 884 0
DWIDTH 12 0
BBX 13 7 0 0
BITMAP
1BB9E740
7CB4F240
B4B4F600
F0F0B800
F1E0B800
F6F6BD00
B9B92D00
ENDCHAR
STARTCHAR uni04300447.liga
ENCODING -1
SWIDTH 947 0
DWIDTH 13 0
BBX 13 7 0 0
BITMAP
1BB9E3C0
7CB6D3C0
B4B6D780
F0F2EF80
F1F1EF40
F2E00B40
B9F40780
ENDCHAR
STARTCHAR uni04310451.liga
ENCODING -1
SWIDTH 746 0
DWIDTH 10 0
BBX 12 10 0 0
BITMAP
07FD86
0BF8DA
024000
1B81B8
78938C
B49B68
F0DFE0
F1DF00
F68F54
7E07E0
ENDCHAR
STARTCHAR uni04310436.liga
ENCODING -1
SWIDTH 1258 0
DWIDTH 18 0
BBX 18 10 0 0
BITMAP
07FE000000
0BFC000000
0240000000
1BC7D2D2E0
7CA4B2CA60
B4B0B3DD00
F0D0BFFC00
F1C0E76C00
F259DB6C00
7E1F4F1B80
ENDCHAR
STARTCHAR uni04310439.liga
ENCODING -1
SWIDTH 901 0
DWIDTH 13 0
BBX 13 10 0 0
BITMAP
07FD9040
0BF8E200
0240A900
1B83CB40
7C978F00
B49B4F00
F0DB5E00
F1CF1E00
F28F2D00
7E0B9E00
ENDCHAR
STARTCHAR uni0431045E.liga
ENCODING -1
SWIDTH 890 0
DWIDTH 12 0
BBX 13 13 0 -3
BITMAP
0BFDD140
0BF8A900
02400000
1BC3CB40
78978F00
B49B4F00
F0DB5E00
F1CF2D00
F74F7D00
7E0BBC00
0002B800
00057400
0002E000
ENDCHAR
STARTCHAR uni04310456.liga
ENCODING -1
SWIDTH 639 0
DWIDTH 9 0
BBX 10 10 0 0
BITMAP
0BFED0
0BE6D0
024000
1BC3C0
7C9780
B49B40
F0DB40
F1CF00
F24F00
7E0B80
ENDCHAR
STARTCHAR uni04310457.liga
ENCODING -1
SWIDTH 638 0
DWIDTH 9 0
BBX 11 10 0 0
BITMAP
07FA64
0BF774
024000
1B83C0
7C9780
B49B40
F0DB40
F1CF00
F28F00
7E0B80
ENDCHAR
STARTCHAR uni04310458.liga
ENCODING -1
SWIDTH 638 0
DWIDTH 9 0
BBX 10 13 0 -3
BITMAP
0BFED0
0BA6C0
024000
1BC3C0
7C9780
B49B40
F0DB40
F1CF00
F25E00
7D2E00
01AD00
023C00
01F400
ENDCHAR
STARTCHAR uni04320436.liga
ENCODING -1
SWIDTH 1275 0
DWIDTH 18 0
BBX 19 10 -1 0
BITMAP
01F4000000
0398000000
0B18000000
0E21B878B8
2EAA1DB6CC
2DF81DB380
3C342FFF40
7C342DE740
3C7235D740
1F83A2D2E4
ENDCHAR
STARTCHAR uni04320437.liga
ENCODING -1
SWIDTH 752 0
DWIDTH 11 0
BBX 12 13 -1 -3
BITMAP
01F400
039800
0B1400
0E21B8
2EA92D
2DF42D
3C3478
7C36E0
3C60B4
1F80B8
0002B4
0008B0
0007D0
ENDCHAR
STARTCHAR uni04320445.liga
ENCODING -1
SWIDTH 842 0
DWIDTH 12 0
BBX 13 10 -1 0
BITMAP
01F40000
03980000
0B140000
0E22F280
2EA9B580
2DF47A00
3C347C00
7C34BC00
3C627C00
1F891E00
ENDCHAR
STARTCHAR uni04330437.liga
ENCODING -1
SWIDTH 768 0
DWIDTH 11 0
BBX 12 10 -1 -3
BITMAP
0BD0BD
21E11E
02E41E
1F843C
3D12F0
7C50B8
2E4078
0002B8
0005B4
0006E0
ENDCHAR
STARTCHAR uni04330445.liga
ENCODING -1
SWIDTH 725 0
DWIDTH 10 0
BBX 11 8 -1 0
BITMAP
000018
0BDB48
21E798
12E3E4
1F83D0
3D07D0
7C29E0
2F90F4
ENDCHAR
STARTCHAR uni04330447.liga
ENCODING -1
SWIDTH 834 0
DWIDTH 12 0
BBX 13 7 -1 0
BITMAP
0BD3C780
21E3CB40
12E78F00
1F8BEF00
3D1AEE00
7C201E00
2E400F40
ENDCHAR
STARTCHAR uni04530437.liga
ENCODING -1
SWIDTH 768 0
DWIDTH 11 0
BBX 12 13 -1 -3
BITMAP
003400
00A000
004000
0BD0BD
21E11E
02E41E
1F843C
3D12F0
7C50B8
2E4078
0002B8
0005B4
0006E0
ENDCHAR
STARTCHAR uni04530445.liga
ENCODING -1
SWIDTH 725 0
DWIDTH 10 0
BBX 11 10 -1 0
BITMAP
007400
009000
000018
0BDB48
21E798
12E3E4
1F83D0
3D07D0
7C29E0
2F90F4
ENDCHAR
STARTCHAR uni04530447.liga
ENCODING -1
SWIDTH 834 0
DWIDTH 12 0
BBX 13 10 -1 0
BITMAP
00340000
00A00000
00400000
0BD3C780
21E3CB40
12E78F00
1F8BEF00
3D1AEE00
7C201E00
2E400F40
ENDCHAR
STARTCHAR uni04340447.liga
ENCODING -1
SWIDTH 965 0
DWIDTH 14 0
BBX 14 10 0 -3
BITMAP
1BB8F2D0
7CB5E3D0
B4B5E3C0
F0F2EB80
F1E2FB80
F2E50B40
BBE40790
07C00000
27800000
2E000000
ENDCHAR
STARTCHAR uni04340458.liga
ENCODING -1
SWIDTH 715 0
DWIDTH 10 0
BBX 11 13 0 -3
BITMAP
0000B4
0000B4
000000
1BB8F0
7CB5E0
B4B5E0
F0F2D0
F1E3C0
F2E3C0
BBD780
07CB40
2BDF00
2E7D00
ENDCHAR
STARTCHAR uni04350437.liga
ENCODING -1
SWIDTH 804 0
DWIDTH 11 0
BBX 12 10 0 -3
BITMAP
1B81F8
38C53D
B6843C
FE10B8
F013E0
F040F0
7E00B4
0005F4
0008F0
000B90
ENDCHAR
STARTCHAR uni04350445.liga
ENCODING -1
SWIDTH 747 0
DWIDTH 10 0
BBX 11 7 0 0
BITMAP
1B8F34
38CF24
B68BA0
FE0B80
F00B80
F42BC0
7E82E0
ENDCHAR
STARTCHAR uni04350447.liga
ENCODING -1
SWIDTH 844 0
DWIDTH 12 0
BBX 12 7 0 0
BITMAP
1B8B5E
38CF2E
B69E3D
FE1FFC
F01BBC
F0407C
7D002D
ENDCHAR
STARTCHAR uni04510437.liga
ENCODING -1
SWIDTH 804 0
DWIDTH 11 0
BBX 12 13 0 -3
BITMAP
0DA000
086000
000000
1B81F8
38C53D
B6843C
FE10B8
F013E0
F040F0
7E00B4
0005F4
0008F0
000B90
ENDCHAR
STARTCHAR uni04510445.liga
ENCODING -1
SWIDTH 747 0
DWIDTH 10 0
BBX 11 10 0 0
BITMAP
086000
0DA000
000000
1B8F34
38CF24
B68BA0
FE0B80
F00B80
F42BC0
7E82E0
ENDCHAR
STARTCHAR uni04510447.liga
ENCODING -1
SWIDTH 844 0
DWIDTH 12 0
BBX 12 10 0 0
BITMAP
086000
0DA000
000000
1B8B5E
38CF2E
B69E3D
FE1FFC
F01BBC
F0407C
7D002D
ENDCHAR
STARTCHAR uni04360447.liga
ENCODING -1
SWIDTH 1341 0
DWIDTH 19 0
BBX 20 7 -1 0
BITMAP
0B878B8B5E
21DB5CCF2D
01DB785E2D
01FFF42F7C
12DE742BBC
639D749078
7A2D2E402D
ENDCHAR
STARTCHAR uni04370437.liga
ENCODING -1
SWIDTH 849 0
DWIDTH 12 0
BBX 12 10 0 -3
BITMAP
1BD0BD
21F11E
81F41E
42D42D
1F45F4
079078
07D07C
2BC278
278574
2E02E0
ENDCHAR
STARTCHAR uni04380447.liga
ENCODING -1
SWIDTH 964 0
DWIDTH 14 0
BBX 14 7 0 0
BITMAP
3CB4F2D0
78F1E3D0
B4F1E3C0
B5E2EB80
F2D2FB80
F7E90B80
B9F407C0
ENDCHAR
STARTCHAR uni04390447.liga
ENCODING -1
SWIDTH 964 0
DWIDTH 14 0
BBX 14 10 0 0
BITMAP
0D140000
0E200000
0A800000
3CB4F2D0
78F1E3D0
B4F2E3C0
B5E2EB80
F2D2FB80
F7E90B80
B9F407C0
ENDCHAR
STARTCHAR uni043A0447.liga
ENCODING -1
SWIDTH 978 0
DWIDTH 14 0
BBX 15 7 -1 0
BITMAP
0F1E3C78
1EA93CB4
2FE078F0
2DB4BFF0
3CB4AEE0
78BA41E4
787D00B4
ENDCHAR
STARTCHAR uni045C0447.liga
ENCODING -1
SWIDTH 978 0
DWIDTH 14 0
BBX 15 10 -1 0
BITMAP
00280000
00600000
00400000
0F1E3C78
1EA93CB4
2FE078F0
2DB4BFF0
3CB4AEE0
78BA41E4
787D00B4
ENDCHAR
STARTCHAR uni043B0447.liga
ENCODING -1
SWIDTH 1015 0
DWIDTH 14 0
BBX 15 7 -1 0
BITMAP
007F1E3C
00DF2D3C
019E2D78
026D3EF8
132D6EF4
762C40F4
7D1E0078
ENDCHAR
STARTCHAR uni043C0447.liga
ENCODING -1
SWIDTH 1231 0
DWIDTH 17 0
BBX 18 7 -1 0
BITMAP
00F43C78F0
00F4BCB4F0
01F4F8B5E0
02B6B4FBD0
12BAB5BBD0
627DB602E0
697C7801E0
ENDCHAR
STARTCHAR uni043D0447.liga
ENCODING -1
SWIDTH 965 0
DWIDTH 14 0
BBX 15 7 -1 0
BITMAP
0F2D3CB4
1E2C78B4
2D3C78F0
2FF8BAE0
3C78BEE0
78B542D0
787D01E4
ENDCHAR
STARTCHAR uni043E0436.liga
ENCODING -1
SWIDTH 1268 0
DWIDTH 18 0
BBX 18 7 0 0
BITMAP
1B86D1D2E0
3C98B2DB30
B4E0B7CD10
F0D0BFFD00
F0C0B7AC00
F2A9DB6D00
7E1E4B0B90
ENDCHAR
STARTCHAR uni043E0437.liga
ENCODING -1
SWIDTH 765 0
DWIDTH 11 0
BBX 11 10 0 -3
BITMAP
1B86E0
3CE8B8
B4E0B8
F0D0F0
F1CBC0
F242E0
7E01E0
000AE0
0016D0
001B80
ENDCHAR
STARTCHAR uni043E043B.liga
ENCODING -1
SWIDTH 945 0
DWIDTH 13 0
BBX 13 7 0 0
BITMAP
1B801FC0
3C9033C0
B4906780
F0D09780
F0C48B40
F29DCB40
7E9B4780
ENDCHAR
STARTCHAR uni043E043C.liga
ENCODING -1
SWIDTH 1161 0
DWIDTH 16 0
BBX 16 7 0 0
BITMAP
1B802D0F
3C903D2F
B4907D3E
F0D07D7E
F0C0AEAD
F29C9F6D
7E9A5F1E
ENDCHAR
STARTCHAR uni043E0445.liga
ENCODING -1
SWIDTH 835 0
DWIDTH 12 0
BBX 12 7 0 0
BITMAP
1B83C9
3C97D6
B4E6E8
F0D1F0
F0C6E0
F298F4
7E1C78
ENDCHAR
STARTCHAR uni043F0447.liga
ENCODING -1
SWIDTH 965 0
DWIDTH 14 0
BBX 15 7 -1 0
BITMAP
0FB83CB4
1E3C78F4
2D3C78F0
2D78BAE0
3C74BEE0
78B542D0
787D01E4
ENDCHAR
STARTCHAR uni04400437.liga
ENCODING -1
SWIDTH 818 0
DWIDTH 11 0
BBX 14 11 -2 -3
BITMAP
03C00000
07EE1B80
078B92D0
0B4B42D0
0F4F0780
0F1E2E00
1F6D0F40
2FF40B40
2D006B40
3C008B00
78007D00
ENDCHAR
STARTCHAR uni04410437.liga
ENCODING -1
SWIDTH 804 0
DWIDTH 11 0
BBX 12 10 0 -3
BITMAP
1B81F8
3C853D
B4043C
F010B8
F013E0
F040F0
7E00B4
0005F4
0008F0
000B90
ENDCHAR
STARTCHAR uni04410445.liga
ENCODING -1
SWIDTH 740 0
DWIDTH 10 0
BBX 12 7 -1 0
BITMAP
06E79C
1E33C9
2D13D8
3C02E0
7802D0
3C0AE0
1FA0B4
ENDCHAR
STARTCHAR uni04410447.liga
ENCODING -1
SWIDTH 843 0
DWIDTH 12 0
BBX 12 7 0 0
BITMAP
1B8B5E
3CCF2D
B45F2D
F02F7C
F02BBC
F08078
7E002D
ENDCHAR
STARTCHAR uni04420447.liga
ENCODING -1
SWIDTH 1211 0
DWIDTH 17 0
BBX 18 7 -1 0
BITMAP
0FBAF0B5F0
1E3DB4B5E0
2D7CB4F2D0
2D78F5FBD0
3CB4F1BBC0
78B4F103C0
78F0B802D0
ENDCHAR
STARTCHAR uni04430447.liga
ENCODING -1
SWIDTH 943 0
DWIDTH 13 0
BBX 13 10 0 -3
BITMAP
3CB5E3C0
78F2D3C0
B4F2D780
B5E3EF40
F2D6EF40
F7D80F40
BBD00780
1B800000
6B400000
3E000000
ENDCHAR
STARTCHAR uni04430458.liga
ENCODING -1
SWIDTH 694 0
DWIDTH 10 0
BBX 10 13 0 -3
BITMAP
0000F0
0000A0
000000
3CB5E0
78F2D0
B4F2D0
B5E3C0
F2D780
F7D780
BBDB40
1BDF00
6B8E00
2EB800
ENDCHAR
STARTCHAR uni045E0447.liga
ENCODING -1
SWIDTH 943 0
DWIDTH 13 0
BBX 13 13 0 -3
BITMAP
0D140000
0A900000
00000000
3CB5E3C0
78F2D3C0
B4F2D780
B5E3EF40
F2D6EF40
F7D80F40
BBD00780
1B800000
6B400000
3E000000
ENDCHAR
STARTCHAR uni045E0458.liga
ENCODING -1
SWIDTH 694 0
DWIDTH 10 0
BBX 10 14 0 -3
BITMAP
040000
0E24F0
0A90A0
000000
3CB5E0
78F2D0
B4F2D0
B5E3C0
F2D780
F7D780
BBDB40
1B8F00
6B9E00
3EB800
ENDCHAR
STARTCHAR uni04440437.liga
ENCODING -1
SWIDTH 1076 0
DWIDTH 15 0
BBX 15 13 0 -3
BITMAP
00180000
003C0000
00780000
1BBBD2F4
7CB4E87C
B4B0F07C
F0E1E0B4
F1D1D7D0
F2E3C1F0
BBFE00F0
03C005F0
078009E0
06400B80
ENDCHAR
STARTCHAR uni04450447.liga
ENCODING -1
SWIDTH 981 0
DWIDTH 14 0
BBX 14 7 0 0
BITMAP
1B58F5E0
239CF2D0
53E5E3D0
83D1FBC0
47C2BBC0
19D10780
60B402D0
ENDCHAR
STARTCHAR uni04470447.liga
ENCODING -1
SWIDTH 964 0
DWIDTH 14 0
BBX 14 7 0 0
BITMAP
3CB4F2D0
78F1E3D0
B4F1E3C0
BAE2EB80
7ED2FB80
02E90B80
01F407C0
ENDCHAR
STARTCHAR uni04480447.liga
ENCODING -1
SWIDTH 1211 0
DWIDTH 17 0
BBX 17 7 0 0
BITMAP
3CB5E2D3C0
78F1E3D780
B4F2D3CB40
B5E3C7DF40
F2D3CAEF00
F7EBD80F40
B9F6E00B40
ENDCHAR
STARTCHAR uni045F0447.liga
ENCODING -1
SWIDTH 964 0
DWIDTH 14 0
BBX 14 10 0 -3
BITMAP
3CB4F2D0
78F1E3D0
B4F1E3C0
B5E2EB80
F2D2FB80
F7E90B80
B9F407C0
0A000000
0B000000
06000000
ENDCHAR
STARTCHAR uni044B0447.liga
ENCODING -1
SWIDTH 1112 0
DWIDTH 16 0
BBX 16 7 0 0
BITMAP
78074F2D
782F5E2D
B6CF1E3C
B0CE2FF8
F1DE2FB8
F79E9079
7E0F407D
ENDCHAR
STARTCHAR uni04550437.liga
ENCODING -1
SWIDTH 768 0
DWIDTH 11 0
BBX 12 11 -1 -3
BITMAP
004000
07C1B9
07D21E
06D81E
12D83C
62F6F0
52E0B8
2F8078
0002B8
0005B4
0006E0
ENDCHAR
STARTCHAR uni04550445.liga
ENCODING -1
SWIDTH 712 0
DWIDTH 10 0
BBX 11 8 -1 0
BITMAP
014018
07CB4C
07D798
06D7E0
22D3C0
76D7C0
53E6D0
2F41F0
ENDCHAR
STARTCHAR uni04550447.liga
ENCODING -1
SWIDTH 864 0
DWIDTH 12 0
BBX 13 8 -1 0
BITMAP
01400000
07C1E3C0
0BD2D780
0AD3C780
16D7DF40
76DAEF40
62E00F40
2F400B80
ENDCHAR
STARTCHAR uni04540437.liga
ENCODING -1
SWIDTH 804 0
DWIDTH 11 0
BBX 12 10 0 -3
BITMAP
1B81F8
38853D
BE043C
F010B8
F013E0
F040F0
7E00B4
0005F4
0008F0
000B90
ENDCHAR
STARTCHAR uni04540445.liga
ENCODING -1
SWIDTH 740 0
DWIDTH 10 0
BBX 12 7 -1 0
BITMAP
06E79C
1E33C9
2D13D8
3F82E0
7C02D0
3C0AE0
1FA0B4
ENDCHAR
STARTCHAR uni04540447.liga
ENCODING -1
SWIDTH 844 0
DWIDTH 12 0
BBX 12 7 0 0
BITMAP
1B8B5E
3CCF2E
B45F2D
FE2F7C
F02BBC
F0807C
7E002D
ENDCHAR
STARTCHAR uni044D0437.liga
ENCODING -1
SWIDTH 765 0
DWIDTH 11 0
BBX 12 10 -1 -3
BITMAP
0BE1B8
10BA2E
07F82E
00B03C
60E2F0
62D0B8
2A4078
0002B8
0005B4
0006E0
ENDCHAR
STARTCHAR uni04560447.liga
ENCODING -1
SWIDTH 717 0
DWIDTH 10 0
BBX 10 10 0 0
BITMAP
2D0000
2D0000
000000
3CB4F0
78B5E0
B4F2E0
B5F7D0
F1BBC0
F603D0
B802E0
ENDCHAR
STARTCHAR uni04570447.liga
ENCODING -1
SWIDTH 718 0
DWIDTH 10 0
BBX 10 10 0 0
BITMAP
624000
A34000
000000
3CB4F0
78B5E0
B4F2E0
B5F7D0
F1BBC0
F603D0
B802E0
ENDCHAR
STARTCHAR uni04570457.liga
ENCODING -1
SWIDTH 476 0
DWIDTH 7 0
BBX 8 10 0 0
BITMAP
6666
A677
0000
3C78
78B4
B4F4
B4F0
F1E0
F7E4
B9F4
ENDCHAR
STARTCHAR uni04580447.liga
ENCODING -1
SWIDTH 697 0
DWIDTH 10 0
BBX 13 13 -3 -3
BITMAP
00B40000
00B00000
00000000
00F2D780
01E3CB40
02D78B40
02D7EF00
03CAEE00
07941F40
0B900B40
6F400000
8F000000
7D000000
ENDCHAR
STARTCHAR uni04580458.liga
ENCODING -1
SWIDTH 449 0
DWIDTH 6 0
BBX 10 13 -3 -3
BITMAP
00B5E0
00B1D0
000000
00F2D0
01E3C0
02D780
02D780
03CB40
078F00
07AF00
6F5E00
9F6D00
7DF800
ENDCHAR
STARTCHAR uni045B0447.liga
ENCODING -1
SWIDTH 937 0
DWIDTH 13 0
BBX 14 13 -1 -3
BITMAP
06400000
0B400000
2FE00000
1F0078F0
1FB4B5E0
2E78F2E0
2D78FBD0
3CB5BBD0
78B603D0
79F402E0
0BE00000
19D00000
0B800000
ENDCHAR
STARTCHAR uni045B0458.liga
ENCODING -1
SWIDTH 691 0
DWIDTH 10 0
BBX 11 13 -1 -3
BITMAP
06403C
0B4028
2FE000
1F0078
1FB4B4
2E78B4
2D78F0
3CB5E0
78B5E0
78F2D0
0AE3C0
1AEB80
0BAE00
ENDCHAR
STARTCHAR uni044E0436.liga
ENCODING -1
SWIDTH 1503 0
DWIDTH 21 0
BBX 23 7 -1 0
BITMAP
0F0BD2E1E1F0
1E2DA875E764
2D78B07ADA10
2FF4A07FFE00
3CF494B7DD00
78B59CE79E00
787E0A874B90
ENDCHAR
STARTCHAR uni044E0437.liga
ENCODING -1
SWIDTH 1001 0
DWIDTH 14 0
BBX 15 10 -1 -3
BITMAP
0E1BD2F4
1E7DB87C
2FF8A07C
2CB4A0B4
3CF4D7D0
78B581E0
786E00F0
000005F0
000019E0
00000B80
ENDCHAR
STARTCHAR uni044E043B.liga
ENCODING -1
SWIDTH 1181 0
DWIDTH 17 0
BBX 18 7 -1 0
BITMAP
0F0BD00BD0
1E2D6026D0
2D786033C0
2FF4A063C0
3CF4945780
78B5DD9780
787F9B83D0
ENDCHAR
STARTCHAR uni044E043C.liga
ENCODING -1
SWIDTH 1396 0
DWIDTH 20 0
BBX 21 7 -1 0
BITMAP
0F0BD01E0B40
1E2D602E1F40
2D78603E2F00
2FF4A03E3F00
3CF4906EAE00
78B5DD9F9E00
787F9A8F4F40
ENDCHAR
STARTCHAR uni044E0445.liga
ENCODING -1
SWIDTH 1072 0
DWIDTH 15 0
BBX 16 7 -1 0
BITMAP
0E1BD2D6
1E7DAAE6
2FF8B4F4
2CB4A2F0
3CF4DAB4
78B58CB8
786E0D3C
ENDCHAR
STARTCHAR uni044F0447.liga
ENCODING -1
SWIDTH 984 0
DWIDTH 14 0
BBX 15 7 -1 0
BITMAP
02FE2D78
0F1D3CB4
0E2D78F4
07FC7FF0
6378AEF0
767841E0
2D2E00B4
ENDCHAR
STARTCHAR brevecombcy
ENCODING -1
SWIDTH 0 0
DWIDTH 0 0
BBX 5 2 -4 7
BITMAP
E240
A900
ENDCHAR
STARTCHAR brevecombcy.case
ENCODING -1
SWIDTH 0 0
DWIDTH 0 0
BBX 5 2 -4 11
BITMAP
7480
2E40
ENDCHAR
ENDFONT
